<svg width="125" height="144" viewBox="0 0 125 144" fill="none" xmlns="http://www.w3.org/2000/svg">
<path d="M2.45388 138.305C1.81587 138.305 1.17786 138.575 0.711626 139.017C0.245388 139.483 0 140.097 0 140.759C0 141.397 0.269927 142.035 0.711626 142.502C1.17786 142.968 1.79133 143.213 2.45388 143.213C3.11643 143.213 3.7299 142.943 4.19614 142.502C4.66237 142.06 4.90776 141.422 4.90776 140.759C4.90776 140.121 4.63784 139.483 4.19614 139.017C3.75444 138.551 3.09189 138.305 2.45388 138.305Z" fill="#020203"/>
<path d="M80.0347 62.8348L73.0667 98.6318C72.3797 102.189 75.1031 105.502 78.7344 105.502C81.5068 105.502 83.8868 103.539 84.402 100.815L91.0265 65.6319L80.0347 62.8348Z" fill="#14455A"/>
<path d="M92.7924 24.2408L108.691 40.1397C110.605 42.0535 110.605 45.1694 108.691 47.0832C107.734 48.0401 106.483 48.5308 105.232 48.5308C103.98 48.5308 102.729 48.0401 101.772 47.0832L95.5894 40.9003L92.7924 24.2408Z" fill="#CCE6F4"/>
<path d="M98.7062 51.524H95.2713V30.669C95.2713 25.3939 90.9776 21.1002 85.7025 21.1002C83.1018 21.1002 80.7464 22.1307 79.0289 23.8236L57.4133 45.4147C55.4996 47.3284 55.4996 50.4444 57.4133 52.3582C58.3702 53.315 59.6215 53.8057 60.8728 53.8057C62.1241 53.8057 63.3754 53.315 64.3323 52.3582L76.1092 40.5812V54.5663C76.1092 60.5039 80.9181 65.3128 86.8557 65.3128H98.6817V81.9477C98.6817 85.2109 101.307 87.8362 104.57 87.8362C107.833 87.8362 110.459 85.2109 110.459 81.9477V63.3009C110.483 56.799 105.208 51.524 98.7062 51.524Z" fill="#CCE6F4"/>
<path d="M76.1337 51.524V54.5664C76.1337 60.504 80.9426 65.3129 86.8801 65.3129H98.7061V81.9478C98.7061 85.211 101.331 87.8363 104.595 87.8363C107.858 87.8363 110.483 85.211 110.483 81.9478V63.301C110.483 56.7991 105.208 51.524 98.7061 51.524H76.1337Z" fill="#14455A"/>
<path d="M86.4629 18.6467C89.9715 18.6467 92.8421 15.7761 92.8421 12.2676V11.2862C92.8421 7.77761 89.9715 4.90698 86.4629 4.90698C82.9544 4.90698 80.0837 7.77761 80.0837 11.2862V12.2676C80.0837 15.7761 82.9544 18.6467 86.4629 18.6467Z" fill="#FCD4AB"/>
<path d="M112.2 85.3827C112.666 84.3277 112.936 83.1746 112.936 81.9478V63.301C112.936 58.0259 110.041 53.4133 105.772 50.9598C107.538 50.8371 109.182 50.0765 110.433 48.8252C113.304 45.9546 113.304 41.2929 110.433 38.4222L94.5344 22.5234C94.5099 22.4988 94.5099 22.4988 94.4853 22.4743C94.0928 22.0572 93.6757 21.6646 93.234 21.2966C95.982 19.2357 97.7731 15.9479 97.7731 12.2676V11.2862C97.7731 5.05427 92.7188 0 86.4868 0C80.2549 0 75.2006 5.05427 75.2006 11.2862V12.2676C75.2006 15.629 76.6727 18.6223 79.0036 20.7078C78.4638 21.0758 77.9486 21.4929 77.4579 21.9345C77.4088 21.9836 77.3597 22.0327 77.3107 22.0817L55.6951 43.6728C52.8245 46.5434 52.8245 51.2051 55.6951 54.0757C57.0936 55.4742 58.9337 56.2348 60.8966 56.2348C62.8594 56.2348 64.6995 55.4742 66.098 54.0757L73.6794 46.4943V54.5664C73.6794 58.0995 75.0779 61.3136 77.3597 63.6936L70.6371 98.1656C70.3181 99.834 70.5144 101.527 71.1768 103.048H78.7092C77.7278 103.048 76.7954 102.607 76.1575 101.846C75.5196 101.085 75.2742 100.079 75.4705 99.098L81.7761 66.7359C83.3463 67.3984 85.0638 67.7664 86.8794 67.7664H88.1552L81.9724 100.349C81.6779 101.92 80.304 103.048 78.7092 103.048H86.2415C86.4868 102.484 86.6831 101.895 86.8058 101.257L93.1359 67.7419H96.2519V81.9478C96.2519 83.1746 96.5218 84.3277 96.9879 85.3827H112.2ZM97.724 32.6564L106.974 41.9062C107.931 42.8631 107.931 44.4088 106.974 45.3657C106.508 45.8319 105.894 46.0772 105.232 46.0772C104.569 46.0772 103.956 45.8319 103.49 45.3657L97.6995 39.5754V32.6564H97.724ZM97.724 46.5189L100.03 48.8252C100.153 48.9479 100.276 49.0705 100.398 49.1687C99.834 49.0951 99.2697 49.0705 98.6809 49.0705H97.6995V46.5189H97.724ZM80.0831 11.2862C80.0831 7.77768 82.9538 4.90705 86.4623 4.90705C89.9709 4.90705 92.8415 7.77768 92.8415 11.2862V12.2676C92.8415 15.7762 89.9709 18.6468 86.4623 18.6468C82.9538 18.6468 80.0831 15.7762 80.0831 12.2676V11.2862ZM77.0653 38.3241C76.7709 38.2014 76.4519 38.1278 76.133 38.1278C75.495 38.1278 74.8571 38.3732 74.391 38.8393L62.614 50.6163C62.1479 51.0824 61.5345 51.3278 60.872 51.3278C60.2096 51.3278 59.5962 51.0824 59.13 50.6163C58.6639 50.1501 58.4185 49.5367 58.4185 48.8743C58.4185 48.2118 58.6639 47.5984 59.13 47.1323L80.6229 25.6394C80.6475 25.6148 80.672 25.5903 80.7211 25.5658C82.046 24.2654 83.8125 23.5539 85.6772 23.5539C89.6028 23.5539 92.7924 26.7434 92.7924 30.6691V49.0705H78.562V40.5813C78.5865 39.5999 77.9976 38.6921 77.0653 38.3241ZM108.029 81.9478C108.029 83.837 106.483 85.3827 104.594 85.3827C102.705 85.3827 101.159 83.837 101.159 81.9478V65.3129C101.159 63.9635 100.055 62.8594 98.7054 62.8594H86.8794C82.3159 62.8594 78.5865 59.1545 78.5865 54.5664V53.9776H98.7054C103.858 53.9776 108.029 58.1486 108.029 63.301V81.9478Z" fill="#020203"/>
<path d="M121.597 87.7627H91.4184V105.428H61.24V123.093H31.0616V140.759H121.597V87.7627Z" fill="#FFE066"/>
<path d="M121.597 95.1233C120.959 95.1233 120.321 95.3932 119.855 95.8349C119.388 96.3012 119.143 96.9146 119.143 97.5772C119.143 98.2152 119.413 98.8532 119.855 99.3194C120.296 99.7857 120.934 100.031 121.597 100.031C122.259 100.031 122.873 99.7611 123.339 99.3194C123.805 98.8777 124.051 98.2397 124.051 97.5772C124.051 96.9392 123.781 96.3012 123.339 95.8349C122.897 95.3687 122.235 95.1233 121.597 95.1233Z" fill="#020203"/>
<path d="M121.596 85.3091H91.4181C90.0687 85.3091 88.9646 86.4132 88.9646 87.7626V102.974H83.8367V102.999H60.9453C59.7431 103.146 58.7862 104.177 58.7862 105.428V120.64H31.0613C29.7119 120.64 28.6078 121.744 28.6078 123.093V138.305H10.6971C9.34762 138.305 8.24353 139.409 8.24353 140.759C8.24353 142.108 9.34762 143.212 10.6971 143.212H31.0613C32.4108 143.212 33.5149 142.108 33.5149 140.759V125.547H61.2397C62.5892 125.547 63.6932 124.443 63.6932 123.093V107.882H91.4181C92.7675 107.882 93.8716 106.777 93.8716 105.428V100.03H111.782C113.132 100.03 114.236 98.9262 114.236 97.5767C114.236 96.2273 113.132 95.1232 111.782 95.1232H93.8716V90.2161H121.596C122.946 90.2161 124.05 89.112 124.05 87.7626C124.05 86.4132 122.946 85.3091 121.596 85.3091Z" fill="#020203"/>
</svg>
