<svg width="125" height="104" viewBox="0 0 125 104" fill="none" xmlns="http://www.w3.org/2000/svg">
<path d="M25.297 60.1703L18.6432 94.3531C17.9872 97.7503 20.5878 100.913 24.0553 100.913C26.7028 100.913 28.9754 99.0389 29.4674 96.4383L35.8166 62.8412L25.297 60.1703Z" fill="#14455A"/>
<path d="M37.5038 23.3167L52.6857 38.4986C54.5132 40.3261 54.5132 43.3015 52.6857 45.129C51.772 46.0427 50.5771 46.5113 49.3823 46.5113C48.1874 46.5113 46.9925 46.0427 46.0788 45.129L40.1747 39.2249L37.5038 23.3167Z" fill="#CCE6F4"/>
<path d="M43.1267 49.3695H39.8467V29.4549C39.8467 24.4177 35.7466 20.3176 30.7094 20.3176C28.2259 20.3176 25.9767 21.3016 24.3367 22.9182L3.69579 43.5591C1.86833 45.3866 1.86833 48.3621 3.69579 50.1895C4.60952 51.1033 5.80439 51.5718 6.99927 51.5718C8.19415 51.5718 9.38902 51.1033 10.3028 50.1895L21.5486 38.9436V52.2981C21.5486 57.9679 26.1407 62.56 31.8105 62.56H43.1033V78.4214C43.1033 81.5375 45.6102 84.0444 48.7262 84.0444C51.8423 84.0444 54.3492 81.5375 54.3492 78.4214V60.6154C54.3726 54.4067 49.3354 49.3695 43.1267 49.3695Z" fill="#CCE6F4"/>
<path d="M21.5723 49.3696V52.2748C21.5723 57.9446 26.1643 62.5367 31.8341 62.5367H43.1269V78.4215C43.1269 81.5376 45.6338 84.0445 48.7498 84.0445C51.8659 84.0445 54.3728 81.5376 54.3728 78.4215V60.6155C54.3728 54.4069 49.3356 49.3696 43.1269 49.3696H21.5723Z" fill="#14455A"/>
<path d="M31.4591 17.9747C34.8094 17.9747 37.5506 15.2335 37.5506 11.8832V10.946C37.5506 7.59568 34.8094 4.85449 31.4591 4.85449C28.1087 4.85449 25.3676 7.59568 25.3676 10.946V11.8832C25.3676 15.2335 28.0853 17.9747 31.4591 17.9747Z" fill="#FCD4AB"/>
<path d="M56.0128 81.7014C56.4579 80.694 56.7156 79.5928 56.7156 78.4214V60.6154C56.7156 55.5782 53.951 51.1735 49.8744 48.8306C51.5613 48.7135 53.131 47.9872 54.3259 46.7923C57.0671 44.0511 57.0671 39.5996 54.3259 36.8584L39.1439 21.6765C39.1205 21.653 39.1205 21.653 39.0971 21.6296C38.7222 21.2313 38.3239 20.8565 37.9022 20.505C40.5262 18.537 42.2365 15.3975 42.2365 11.8832V10.946C42.2365 4.99506 37.4102 0.168701 31.4592 0.168701C25.5083 0.168701 20.6819 4.99506 20.6819 10.946V11.8832C20.6819 15.0929 22.0876 17.9513 24.3134 19.9427C23.798 20.2942 23.3059 20.6925 22.8374 21.1142C22.7905 21.161 22.7437 21.2079 22.6968 21.2548L2.05589 41.8722C-0.685297 44.6134 -0.685297 49.0649 2.05589 51.8061C3.39134 53.1415 5.14851 53.8678 7.02283 53.8678C8.89714 53.8678 10.6543 53.1415 11.9898 51.8061L19.2293 44.5666V52.2747C19.2293 55.6484 20.5648 58.7176 22.7437 60.9902L16.3475 93.9079C16.043 95.5011 16.2304 97.1177 16.863 98.5703H24.0557C23.1185 98.5703 22.2282 98.1485 21.6191 97.4222C21.0099 96.696 20.7756 95.7354 20.963 94.7982L26.9609 63.8954C28.4603 64.528 30.1003 64.8794 31.8341 64.8794H33.0524L27.1483 95.9931C26.8671 97.4925 25.5551 98.5703 24.0322 98.5703H31.2249C31.4592 98.0314 31.6467 97.4691 31.7638 96.86L37.8085 64.856H40.7839V78.4214C40.7839 79.5928 41.0417 80.694 41.4868 81.7014H56.0128ZM42.1897 31.3526L51.0224 40.1853C51.9361 41.0991 51.9361 42.5751 51.0224 43.4888C50.5772 43.934 49.9915 44.1683 49.3589 44.1683C48.7264 44.1683 48.1406 43.934 47.6955 43.4888L42.1662 37.9596V31.3526H42.1897ZM42.1897 44.59L44.392 46.7923C44.5091 46.9094 44.6263 47.0266 44.7434 47.1203C44.2046 47.05 43.6657 47.0266 43.1034 47.0266H42.1662V44.59H42.1897ZM25.3677 10.946C25.3677 7.59568 28.1089 4.85449 31.4592 4.85449C34.8096 4.85449 37.5507 7.59568 37.5507 10.946V11.8832C37.5507 15.2335 34.8096 17.9747 31.4592 17.9747C28.1089 17.9747 25.3677 15.2335 25.3677 11.8832V10.946ZM22.4859 36.7647C22.2048 36.6476 21.9002 36.5773 21.5956 36.5773C20.9865 36.5773 20.3773 36.8116 19.9322 37.2567L8.68628 48.5026C8.24113 48.9478 7.65541 49.1821 7.02283 49.1821C6.39025 49.1821 5.80452 48.9478 5.35937 48.5026C4.91422 48.0575 4.67993 47.4717 4.67993 46.8392C4.67993 46.2066 4.91422 45.6209 5.35937 45.1757L25.8831 24.6519C25.9066 24.6285 25.93 24.6051 25.9768 24.5817C27.242 23.3399 28.9289 22.6605 30.7095 22.6605C34.4581 22.6605 37.5039 25.7063 37.5039 29.4549V47.0266H23.9151V38.9202C23.9151 37.983 23.3528 37.1161 22.4859 36.7647ZM52.0298 78.4214C52.0298 80.2254 50.5538 81.7014 48.7498 81.7014C46.9458 81.7014 45.4697 80.2254 45.4697 78.4214V62.5366C45.4697 61.248 44.4154 60.1937 43.1268 60.1937H31.8341C27.4763 60.1937 23.9151 56.6559 23.9151 52.2747V51.7124H43.1268C48.0469 51.7124 52.0298 55.6953 52.0298 60.6154V78.4214Z" fill="#020203"/>
<path d="M121.708 50.3066H92.8902V67.1755H64.0726V84.0443H35.255V100.913H121.708V50.3066Z" fill="#FFE066"/>
<path d="M5.99158 98.5702C5.38242 98.5702 4.77327 98.8279 4.32812 99.2496C3.88297 99.6948 3.64868 100.281 3.64868 100.913C3.64868 101.522 3.9064 102.131 4.32812 102.577C4.74984 103.022 5.35899 103.256 5.99158 103.256C6.62416 103.256 7.20988 102.998 7.65503 102.577C8.10018 102.155 8.33447 101.546 8.33447 100.913C8.33447 100.304 8.07675 99.6948 7.65503 99.2496C7.20988 98.8045 6.60073 98.5702 5.99158 98.5702Z" fill="#020203"/>
<path d="M121.708 57.3353C121.098 57.3353 120.489 57.593 120.044 58.0148C119.599 58.4599 119.365 59.0456 119.365 59.6782C119.365 60.2874 119.622 60.8965 120.044 61.3417C120.489 61.7868 121.075 62.0211 121.708 62.0211C122.34 62.0211 122.926 61.7634 123.371 61.3417C123.816 60.92 124.05 60.3108 124.05 59.6782C124.05 59.0691 123.793 58.4599 123.371 58.0148C122.949 57.5696 122.317 57.3353 121.708 57.3353Z" fill="#020203"/>
<path d="M121.708 47.9637H92.8899C91.6014 47.9637 90.5471 49.018 90.5471 50.3066V64.8326H85.6504V64.856H63.7912C62.6432 64.9966 61.7295 65.9806 61.7295 67.1755V81.7014H35.2547C33.9661 81.7014 32.9118 82.7557 32.9118 84.0443V98.5703H15.8087C14.5201 98.5703 13.4658 99.6246 13.4658 100.913C13.4658 102.202 14.5201 103.256 15.8087 103.256H35.2547C36.5433 103.256 37.5976 102.202 37.5976 100.913V86.3872H64.0723C65.3609 86.3872 66.4152 85.3329 66.4152 84.0443V69.5184H92.8899C94.1785 69.5184 95.2328 68.4641 95.2328 67.1755V62.0211H112.336C113.625 62.0211 114.679 60.9668 114.679 59.6782C114.679 58.3896 113.625 57.3353 112.336 57.3353H95.2328V52.6495H121.708C122.996 52.6495 124.05 51.5952 124.05 50.3066C124.05 48.9946 122.996 47.9637 121.708 47.9637Z" fill="#020203"/>
</svg>
