<svg width="101" height="112" viewBox="0 0 101 112" fill="none" xmlns="http://www.w3.org/2000/svg">
<path d="M98.7672 89.9156C98.7672 89.9156 94.1008 93.7257 86.1044 97.6837H14.327C6.33069 93.7257 1.66431 89.9156 1.66431 89.9156C20.1145 71.4696 34.5623 45.0495 34.5623 45.0495C34.5623 45.0495 34.5623 42.7296 34.5623 37.2839C34.5623 31.8408 30.706 17.317 30.706 17.317C32.2184 13.0616 35.8611 12.1584 39.5927 12.5489C44.8145 13.0975 50.2157 16.1848 50.2157 16.1848C50.2157 16.1848 66.0973 7.11007 69.7272 17.317C69.7272 17.317 65.8692 31.8408 65.8692 37.2839V45.0495C65.8692 45.0495 80.3169 71.4696 98.7672 89.9156Z" fill="#FFE066"/>
<path d="M44.3573 37.2839C43.2738 41.8059 40.4523 51.3523 40.4523 51.3523L38.2434 55.7461L34.0581 97.6837H14.327C6.33069 93.7257 1.66431 89.9156 1.66431 89.9156C20.1145 71.4696 34.5623 45.0495 34.5623 45.0495C34.5623 45.0495 34.5623 42.7296 34.5623 37.2839C34.5623 31.8408 30.706 17.317 30.706 17.317C32.2184 13.0616 35.8611 12.1584 39.5927 12.5489L39.6021 12.5532C31.5562 25.0989 45.9176 30.777 44.3573 37.2839Z" fill="#EABE32"/>
<path d="M65.87 45.0496H34.5623V37.2839H65.87" fill="#FB6572"/>
<path d="M44.0685 45.0496H34.5623V37.2839H44.0685" fill="#EE5D5D"/>
<path d="M38.2433 55.7471C38.2433 55.7471 27.1939 81.387 13.0845 99.2912C13.0845 99.2912 28.5269 110.335 50.2156 110.335C71.9043 110.335 87.3467 99.2912 87.3467 99.2912C73.2374 81.387 62.1879 55.7471 62.1879 55.7471" fill="#FFE066"/>
<path d="M99.9446 88.739C83.0505 71.8491 69.353 47.866 67.5346 44.6181V37.2831C67.5346 35.8228 67.8456 33.4516 68.4583 30.2353C68.6309 29.3312 68.0387 28.4588 67.1347 28.2879C66.2315 28.1153 65.3608 28.7075 65.1881 29.6115C64.7148 32.0844 64.4174 34.0686 64.2841 35.6186H36.1439C35.6509 29.955 33.0908 19.8694 32.4542 17.4188C33.0643 15.996 34.0171 15.0612 35.3535 14.5639C39.6516 12.9703 46.9439 16.2378 49.3903 17.6324C49.9013 17.9229 50.5293 17.9229 51.0395 17.6324C53.4884 16.2378 60.7815 12.9677 65.0813 14.5639C66.4152 15.0612 67.368 15.9977 67.9806 17.4188C67.732 18.369 67.186 20.5095 66.5912 23.0644C66.3827 23.9616 66.9399 24.8563 67.8345 25.0648C68.7309 25.2733 69.6255 24.7161 69.834 23.8215C70.627 20.4206 71.3285 17.7717 71.3371 17.7452C71.4217 17.4188 71.408 17.077 71.2952 16.7599C70.5689 14.7169 69.3794 13.1856 67.7499 12.1799C67.597 9.86675 66.7442 4.29631 62.1889 0.400678C61.8138 0.0810981 61.3182 -0.0590387 60.8319 0.0229926C60.3483 0.103315 59.9245 0.393842 59.6733 0.817671C59.5288 1.05949 56.3655 6.45903 55.9152 11.9329C55.6623 12.0158 55.4068 12.0978 55.147 12.1884C53.0022 12.9275 51.2061 13.7872 50.2166 14.2973C49.2237 13.7872 47.4301 12.9275 45.2836 12.1884C45.0255 12.0978 44.7709 12.0158 44.5154 11.9329C44.0642 6.45903 40.9035 1.05949 40.7591 0.817671C40.5078 0.393842 40.084 0.103315 39.5978 0.0229926C39.1142 -0.0590387 38.6168 0.0810981 38.2434 0.400678C33.6864 4.29631 32.8336 9.86846 32.6824 12.1799C31.0529 13.1856 29.8634 14.7169 29.1371 16.7599C29.0243 17.077 29.0106 17.4188 29.0969 17.7452C29.1354 17.887 32.8977 32.1194 32.8977 37.2831V44.6181C31.0777 47.866 17.3801 71.8491 0.485956 88.739C0.152704 89.0714 -0.0224669 89.5294 0.00231335 89.9994C0.0245301 90.4702 0.245844 90.9077 0.609858 91.2051C0.792719 91.3537 4.81738 94.6128 11.7815 98.2563C11.7789 98.2563 11.7772 98.258 11.7772 98.2606C11.4952 98.6178 11.3705 99.0749 11.4354 99.5261C11.4995 99.9764 11.7456 100.381 12.1147 100.645C12.2429 100.738 15.3174 102.923 20.6349 105.367C20.8613 105.469 21.0963 105.52 21.3296 105.52C21.9602 105.52 22.5635 105.158 22.8438 104.55C23.2274 103.713 22.8617 102.724 22.0269 102.341C19.0806 100.986 16.8521 99.7081 15.5088 98.8818C29.0619 81.0998 39.6644 56.6554 39.7713 56.4041C40.1353 55.5608 39.7465 54.5815 38.9031 54.2175C38.0571 53.8535 37.0779 54.2423 36.7139 55.0882C36.6096 55.3275 26.6616 78.2535 13.8323 95.5673C9.29236 93.2277 5.9624 91.0034 4.18676 89.7285C20.1017 73.3188 32.931 51.3165 35.5373 46.7142H64.8925C67.5013 51.3165 80.3306 73.3188 96.2455 89.7285C94.4742 91.0008 91.1511 93.2234 86.6 95.5673C73.7681 78.2535 63.8201 55.3275 63.7159 55.0882C63.3544 54.2423 62.3726 53.8535 61.5292 54.2175C60.6833 54.5815 60.2953 55.5608 60.6593 56.4041C60.7679 56.6554 71.3704 81.0973 84.9218 98.8801C80.6545 101.499 67.397 108.67 50.2166 108.67C42.8278 108.67 35.3732 107.363 28.0604 104.783C27.1923 104.476 26.2421 104.932 25.9362 105.8C25.632 106.665 26.0874 107.617 26.953 107.924C34.6229 110.628 42.451 112 50.2166 112C72.1856 112 87.6673 101.109 88.3159 100.645C88.6867 100.381 88.9311 99.9764 88.9952 99.5261C89.0593 99.0749 88.9379 98.6178 88.6559 98.2606C88.6534 98.258 88.6508 98.2563 88.6508 98.2563C95.6132 94.6128 99.6379 91.3537 99.8199 91.2051C100.184 90.9077 100.406 90.4702 100.431 89.9994C100.453 89.5294 100.277 89.0714 99.9446 88.739ZM61.5224 4.48943C63.2476 6.67009 63.9577 9.18486 64.2491 10.9408C62.7947 10.7212 61.1652 10.7657 59.3742 11.0741C59.7715 8.57903 60.7542 6.12578 61.5224 4.48943ZM38.9099 4.48943C39.6781 6.12578 40.6591 8.57903 41.059 11.0741C39.2671 10.7657 37.6376 10.7212 36.1832 10.9408C36.4746 9.18486 37.183 6.67009 38.9099 4.48943ZM64.2046 43.3842H36.2277V38.9486H64.2046V43.3842Z" fill="black"/>
</svg>
