<svg width="177" height="28" viewBox="0 0 177 28" fill="none" xmlns="http://www.w3.org/2000/svg">
<path d="M28.5617 12.3465L22.7018 17.1324C22.3497 17.4188 22.1945 17.8843 22.302 18.3259L24.0743 25.5643C24.3368 26.7399 23.4417 27.7126 22.4392 27.7126C22.1408 27.7126 21.8246 27.6231 21.5322 27.4321L15.1232 23.4936C14.7413 23.2609 14.2639 23.2609 13.882 23.4996L7.55055 27.4381C7.25814 27.635 6.94187 27.7186 6.63753 27.7186C5.61114 27.7186 4.68619 26.7459 5.00843 25.5703L6.78075 18.3259C6.88816 17.8843 6.73301 17.4248 6.3869 17.1384L0.604496 12.3585C-0.583016 11.344 0.0972673 9.39268 1.61895 9.30914L9.10804 8.76611C9.55559 8.73627 9.94347 8.44983 10.1106 8.03808L12.9749 1.0801C13.2733 0.358044 13.9297 0 14.5861 0C15.2425 0 15.8989 0.358044 16.1973 1.0801L19.0557 8.03212C19.2228 8.44387 19.6166 8.72433 20.0582 8.76014L27.5473 9.30317C29.0749 9.38672 29.7493 11.3321 28.5617 12.3465Z" fill="#FFE066"/>
<path d="M65.5196 12.3465L59.6597 17.1324C59.3076 17.4188 59.1524 17.8843 59.2598 18.3259L61.0322 25.5643C61.2947 26.7399 60.3996 27.7126 59.3971 27.7126C59.0987 27.7126 58.7824 27.6231 58.49 27.4321L52.0811 23.4936C51.6991 23.2609 51.2218 23.2609 50.8398 23.4996L44.5084 27.4381C44.216 27.635 43.8998 27.7186 43.5954 27.7186C42.569 27.7186 41.6441 26.7459 41.9663 25.5703L43.7386 18.3259C43.846 17.8843 43.6909 17.4248 43.3448 17.1384L37.5624 12.3585C36.3749 11.344 37.0552 9.39268 38.5768 9.30914L46.0659 8.76611C46.5135 8.73627 46.9014 8.44983 47.0684 8.03808L49.9328 1.0801C50.2312 0.358044 50.8876 0 51.544 0C52.2004 0 52.8568 0.358044 53.1552 1.0801L56.0136 8.03212C56.1807 8.44387 56.5745 8.72433 57.0161 8.76014L64.5052 9.30317C66.0328 9.38672 66.7071 11.3321 65.5196 12.3465Z" fill="#FFE066"/>
<path d="M102.478 12.3465L96.6177 17.1324C96.2656 17.4188 96.1104 17.8843 96.2178 18.3259L97.9902 25.5643C98.2527 26.7399 97.3576 27.7126 96.3551 27.7126C96.0567 27.7126 95.7404 27.6231 95.448 27.4321L89.0391 23.4936C88.6572 23.2609 88.1798 23.2609 87.7978 23.4996L81.4664 27.4381C81.174 27.635 80.8578 27.7186 80.5534 27.7186C79.527 27.7186 78.6021 26.7459 78.9243 25.5703L80.6966 18.3259C80.8041 17.8843 80.6489 17.4248 80.3028 17.1384L74.5204 12.3585C73.3329 11.344 74.0132 9.39268 75.5348 9.30914L83.0239 8.76611C83.4715 8.73627 83.8594 8.44983 84.0265 8.03808L86.8908 1.0801C87.1892 0.358044 87.8456 0 88.502 0C89.1584 0 89.8148 0.358044 90.1132 1.0801L92.9716 8.03212C93.1387 8.44387 93.5325 8.72433 93.9741 8.76014L101.463 9.30317C102.991 9.38672 103.665 11.3321 102.478 12.3465Z" fill="#FFE066"/>
<path d="M139.436 12.3465L133.576 17.1324C133.224 17.4188 133.069 17.8843 133.176 18.3259L134.949 25.5643C135.211 26.7399 134.316 27.7126 133.314 27.7126C133.015 27.7126 132.699 27.6231 132.407 27.4321L125.998 23.4936C125.616 23.2609 125.138 23.2609 124.756 23.4996L118.425 27.4381C118.133 27.635 117.816 27.7186 117.512 27.7186C116.486 27.7186 115.561 26.7459 115.883 25.5703L117.655 18.3259C117.763 17.8843 117.607 17.4248 117.261 17.1384L111.479 12.3585C110.291 11.344 110.972 9.39268 112.493 9.30914L119.982 8.76611C120.43 8.73627 120.818 8.44983 120.985 8.03808L123.849 1.0801C124.148 0.358044 124.804 0 125.46 0C126.117 0 126.773 0.358044 127.072 1.0801L129.93 8.03212C130.097 8.44387 130.491 8.72433 130.933 8.76014L138.422 9.30317C139.949 9.38672 140.624 11.3321 139.436 12.3465Z" fill="#FFE066"/>
<path d="M176.394 12.3465L170.534 17.1324C170.182 17.4188 170.027 17.8843 170.134 18.3259L171.907 25.5643C172.169 26.7399 171.274 27.7126 170.272 27.7126C169.973 27.7126 169.657 27.6231 169.365 27.4321L162.956 23.4936C162.574 23.2609 162.096 23.2609 161.714 23.4996L155.383 27.4381C155.091 27.635 154.774 27.7186 154.47 27.7186C153.444 27.7186 152.519 26.7459 152.841 25.5703L154.613 18.3259C154.721 17.8843 154.565 17.4248 154.219 17.1384L148.437 12.3585C147.249 11.344 147.93 9.39268 149.451 9.30914L156.94 8.76611C157.388 8.73627 157.776 8.44983 157.943 8.03808L160.807 1.0801C161.106 0.358044 161.762 0 162.419 0C163.075 0 163.731 0.358044 164.03 1.0801L166.888 8.03212C167.055 8.44387 167.449 8.72433 167.891 8.76014L175.38 9.30317C176.907 9.38672 177.582 11.3321 176.394 12.3465Z" fill="#BDBDBD"/>
</svg>
