<svg width="76" height="112" viewBox="0 0 76 112" fill="none" xmlns="http://www.w3.org/2000/svg">
<path d="M73.6205 28.1393L66.3906 110.337H44.8505L37.6412 39.5656L30.4327 110.337H8.89345L1.66272 28.1393L4.48682 16.1431L5.9745 9.82068H69.307L73.6205 28.1393Z" fill="#515A5E"/>
<path d="M50.4995 110.336H44.8505L37.6411 39.5656C44.1412 39.5656 48.4701 75.151 50.4995 110.336Z" fill="#343C3F"/>
<path d="M15.2516 110.336H8.89332L1.6626 28.1393L4.4867 16.1431L15.114 18.4058C9.91359 23.6062 8.31654 61.5492 15.2516 110.336Z" fill="#343C3F"/>
<path d="M5.97645 9.8208H18.2923C18.2923 17.9787 9.31667 25.4632 1.66467 28.1403L5.97645 9.8208Z" fill="#343C3F"/>
<path d="M73.6214 28.1402C65.9677 25.463 56.9921 17.9777 56.9921 9.82068H69.3079L73.6214 28.1402Z" fill="#343C3F"/>
<path d="M5.97546 1.6637H69.3106V9.82069H5.97546V1.6637Z" fill="#F0C398"/>
<path d="M5.97546 1.6637H20.7437V9.82069H5.97546V1.6637Z" fill="#D89D6C"/>
<path d="M75.2397 27.7582L70.9741 9.64209V1.6637C70.9741 0.745117 70.2298 0 69.3104 0H25.0793C24.1599 0 23.4156 0.745117 23.4156 1.6637C23.4156 2.58228 24.1599 3.32654 25.0793 3.32654H27.0284V8.15784H13.5608V3.32654H18.4254C19.344 3.32654 20.0882 2.58228 20.0882 1.6637C20.0882 0.745117 19.344 0 18.4254 0H5.97545C5.05687 0 4.31175 0.745117 4.31175 1.6637V9.62415L0.0444209 27.7582C0.00340531 27.9308 -0.00941208 28.1094 0.00682328 28.2854L7.23668 110.482C7.31188 111.341 8.03136 112 8.89354 112H30.4327C31.2864 112 32.0016 111.354 32.0879 110.505L37.6412 55.9778L40.0851 79.9565C40.1782 80.8708 40.9917 81.5356 41.9086 81.4434C42.822 81.3502 43.4877 80.5333 43.3945 79.6199L39.2955 39.3972C39.2092 38.5479 38.4949 37.9019 37.6412 37.9019C36.7876 37.9019 36.0732 38.5479 35.9861 39.3972L28.9305 108.673H10.4171L3.43077 29.2467C7.27941 27.6907 11.0836 25.1733 14.0282 22.2065C17.394 18.8142 19.3799 15.139 19.8456 11.4835H39.7962V26.473H33.8276C32.909 26.473 32.1639 27.2173 32.1639 28.1359C32.1639 29.0544 32.909 29.7996 33.8276 29.7996H41.4591C42.3777 29.7996 43.1228 29.0544 43.1228 28.1359V11.4844H55.4386C55.9043 15.1399 57.8901 18.8151 61.2568 22.2074C64.2005 25.1742 68.0056 27.6915 71.8542 29.2476L64.8679 108.673H46.3536L44.0661 86.2225C43.9739 85.3082 43.157 84.6417 42.2435 84.7357C41.3292 84.8289 40.6636 85.6458 40.7567 86.5592L43.1963 110.505C43.2834 111.354 43.9978 112 44.8514 112H66.3906C67.2536 112 67.9723 111.341 68.0475 110.482L75.2782 28.2854C75.2936 28.1085 75.2807 27.9308 75.2397 27.7582ZM67.6476 8.15784H65.0516V3.32654H67.6476V8.15784ZM47.8404 8.15784V3.32654H61.7251V8.15784H47.8404ZM7.63915 3.32654H10.2342V8.15784H7.63915V3.32654ZM4.03319 25.3314L7.29222 11.4844H16.4746C15.5082 17.0104 9.93944 22.3979 4.03319 25.3314ZM30.355 8.15784V3.32654H44.5139V8.15784H30.355ZM58.8087 11.4844H67.9894L71.2501 25.3314C65.3447 22.3979 59.7751 17.0104 58.8087 11.4844Z" fill="black"/>
<path d="M18.8101 25.5939C18.8058 25.5939 18.8016 25.5939 18.7964 25.5939C17.8779 25.6016 17.1396 26.3518 17.1464 27.2704L17.7488 104.441C17.7565 105.356 18.4999 106.091 19.4125 106.091H19.4253C20.3439 106.085 21.0831 105.334 21.0762 104.415L20.473 27.2448C20.4661 26.3304 19.7227 25.5939 18.8101 25.5939Z" fill="black"/>
<path d="M55.8708 106.091C56.7834 106.091 57.5268 105.356 57.5345 104.441L58.1369 27.2704C58.1437 26.3518 57.4046 25.6016 56.4869 25.5939C56.4826 25.5939 56.4775 25.5939 56.4732 25.5939C55.5606 25.5939 54.8172 26.3304 54.8104 27.2448L54.2071 104.415C54.2002 105.334 54.9394 106.085 55.858 106.091H55.8708Z" fill="black"/>
<path d="M42.0231 7.37171C42.129 7.35206 42.2341 7.31873 42.3333 7.27857C42.4332 7.2367 42.5306 7.18543 42.6195 7.12562C42.7127 7.06324 42.7972 6.99488 42.8724 6.91883C43.1826 6.60865 43.3604 6.18055 43.3604 5.74134C43.3604 5.30469 43.1826 4.87402 42.8724 4.56641C42.7972 4.48865 42.7127 4.41943 42.6195 4.35962C42.5306 4.29981 42.4332 4.24683 42.3333 4.20667C42.2341 4.16479 42.129 4.13318 42.0231 4.11182C41.8077 4.06738 41.5864 4.06738 41.3728 4.11182C41.2668 4.13318 41.1626 4.16479 41.0609 4.20667C40.9609 4.24683 40.8627 4.29981 40.7747 4.35962C40.6832 4.41943 40.5969 4.48865 40.5217 4.56641C40.444 4.6416 40.3748 4.72791 40.3149 4.81848C40.2526 4.90991 40.2021 5.00562 40.162 5.10474C40.1201 5.20728 40.0868 5.31153 40.0663 5.41748C40.0449 5.52429 40.0338 5.63282 40.0338 5.74134C40.0338 6.18055 40.2107 6.60865 40.5217 6.91883C40.5969 6.99488 40.6832 7.06324 40.7747 7.12562C40.8627 7.18543 40.9609 7.2367 41.0609 7.27857C41.1626 7.31873 41.2668 7.35206 41.3728 7.37171C41.4796 7.39393 41.5881 7.40504 41.6967 7.40504C41.8052 7.40504 41.9146 7.39393 42.0231 7.37171Z" fill="black"/>
</svg>
