<svg width="114" height="112" viewBox="0 0 114 112" fill="none" xmlns="http://www.w3.org/2000/svg">
<path d="M111.964 89.9609C111.964 89.9609 109.455 92.9741 104.794 93.8161C102.985 94.1404 100.853 94.1378 98.4211 93.5074L84.5032 43.206V103.219C84.5032 103.219 77.7858 110.313 56.8262 110.313C47.7702 110.313 41.3719 108.989 37.026 107.483C31.3144 105.507 29.1466 103.219 29.1466 103.219V43.206L15.2296 93.5074C11.2297 94.5453 8.04743 93.8811 5.77736 92.8596C3.10149 91.6578 1.68811 89.9609 1.68811 89.9609C3.29918 54.4922 16.519 23.8601 16.519 23.8601C24.2588 16.1203 36.38 11.8082 36.38 11.8082H77.2725C77.2725 11.8082 89.3919 16.1203 97.1308 23.8601C97.1308 23.8601 110.351 54.4922 111.964 89.9609Z" fill="#247BA0"/>
<path d="M42.7852 11.8082L41.5401 17.9248C29.7675 22.001 19.8695 26.4007 17.0098 41.3582C14.151 56.3148 5.77736 92.8597 5.77736 92.8597C3.10149 91.6579 1.68811 89.9609 1.68811 89.9609C3.29918 54.4922 16.519 23.8601 16.519 23.8601C24.2588 16.1203 36.38 11.8082 36.38 11.8082H42.7852Z" fill="#14455A"/>
<path d="M37.0262 44.8776V107.483C31.3146 105.507 29.1468 103.219 29.1468 103.219V43.2059C29.1468 37.8715 26.9817 32.8848 26.9817 32.8848C26.9817 32.8848 37.0262 34.2617 37.0262 44.8776Z" fill="#14455A"/>
<path d="M78.7511 8.05884C78.7511 12.8973 66.4989 23.11 66.4989 23.11L56.829 13.5433L56.8264 13.5407L56.8238 13.5433L47.1513 23.11C47.1513 23.11 34.8992 12.8973 34.8992 8.05884C34.8992 3.53951 43.0647 1.90329 54.3977 1.70732H54.4072C55.1971 1.69431 56.0053 1.68738 56.8264 1.68738C69.4029 1.68738 78.7511 3.22215 78.7511 8.05884Z" fill="#247BA0"/>
<path d="M69.0604 8.24955C66.5761 11.4214 62.0299 13.5432 56.829 13.5432H56.8238L47.1513 23.1099C47.1513 23.1099 34.8992 12.8972 34.8992 8.05879C34.8992 3.53946 43.0647 1.90324 54.3977 1.70728H54.4072C64.528 1.70728 69.0604 8.24955 69.0604 8.24955Z" fill="#14455A"/>
<path d="M56.8266 18.1154L61.1933 24.4826C61.6268 25.1138 62.4662 25.3141 63.1373 24.9473L66.4991 23.1091L56.824 13.5432L56.8266 18.1154Z" fill="#14455A"/>
<path d="M104.803 93.8116L104.795 93.816C102.985 94.1403 100.854 94.1377 98.4214 93.5073L84.5035 43.2059C84.5035 37.8715 86.6713 32.8848 86.6713 32.8848L104.803 93.8116Z" fill="#14455A"/>
<path d="M103.497 36.4018C103.209 35.5147 102.258 35.0292 101.371 35.3162C100.484 35.6032 99.9985 36.5553 100.285 37.4423C103.652 47.8319 107.695 62.9411 109.495 79.8071C106.219 82.516 100.842 82.822 97.2255 82.8567L86.1942 42.9857C86.2523 38.1646 88.1981 33.6019 88.218 33.5577C88.5891 32.7027 88.1972 31.7082 87.3422 31.337C86.4873 30.9651 85.4936 31.3578 85.1216 32.2128C85.0271 32.4296 82.8151 37.5845 82.8151 43.2068V43.2085V102.464C81.0991 103.849 74.3565 108.31 58.5137 108.608V17.5857L65.3118 24.3101C65.6396 24.6335 66.0688 24.7974 66.4989 24.7974C66.8821 24.7974 67.2654 24.6682 67.5793 24.4063C67.7076 24.2996 70.7468 21.759 73.8371 18.5733C75.6372 16.7177 76.944 15.1613 77.8969 13.8597C81.0393 15.1274 89.725 18.967 95.7063 24.8242C96.0245 25.5864 96.9263 27.7923 98.1246 31.1185C98.3726 31.8061 99.0212 32.2345 99.7123 32.2345C99.9022 32.2345 100.096 32.2024 100.285 32.1339C101.161 31.8183 101.616 30.8515 101.301 29.974C99.7635 25.707 98.7247 23.2912 98.6813 23.1906C98.5964 22.9955 98.4758 22.8169 98.3249 22.666C92.1538 16.4957 83.4689 12.4923 79.6944 10.9402C80.4375 9.38377 80.4401 8.50193 80.4401 8.05971C80.4401 4.9182 77.909 2.68541 72.918 1.42378C69.1288 0.465633 63.8646 0 56.8255 0C49.7855 0 44.5222 0.465633 40.7329 1.42378C35.7419 2.68541 33.2108 4.9182 33.2108 8.05971C33.2108 8.5028 33.2134 9.38377 33.9566 10.9411C30.1812 12.4932 21.4954 16.4966 15.3251 22.666C15.1743 22.8169 15.0537 22.9955 14.9688 23.1906C14.8326 23.508 11.5819 31.0847 8.08659 43.1392C4.86184 54.2597 0.841957 71.3962 0.00173542 89.8837C-0.0173408 90.3051 0.121395 90.7179 0.391064 91.0413C0.579225 91.2676 4.3858 95.7245 11.2541 95.7236C12.6033 95.7236 14.0722 95.5511 15.6529 95.1418C16.2365 94.9901 16.6952 94.5392 16.8564 93.9574L27.4585 55.6358V86.4474C27.4585 87.3795 28.2146 88.1356 29.1467 88.1356C30.0789 88.1356 30.8341 87.3795 30.8341 86.4474V43.2241C30.8341 43.2181 30.835 43.2129 30.835 43.2068C30.835 37.5854 28.6239 32.4296 28.5294 32.2128C28.1582 31.3587 27.1654 30.9668 26.3105 31.3379C25.4555 31.7082 25.0627 32.701 25.4321 33.5568C25.4529 33.6028 27.3978 38.1629 27.4568 42.9839L16.4246 82.8567C12.8106 82.822 7.438 82.516 4.16209 79.8123C7.22295 51.3081 16.7429 27.7143 17.9447 24.8234C23.9251 18.967 32.6108 15.1283 35.7541 13.8597C36.707 15.1621 38.0137 16.7177 39.8138 18.5733C42.9042 21.759 45.9434 24.2996 46.0717 24.4063C46.7394 24.963 47.7209 24.9214 48.3392 24.3101L55.1381 17.5839V108.608C39.4427 108.305 32.5753 103.824 30.835 102.453V93.1995C30.835 92.2674 30.0789 91.5113 29.1467 91.5113C28.2146 91.5113 27.4585 92.2674 27.4585 93.1995V103.219C27.4585 103.651 27.6241 104.066 27.9215 104.379C28.2163 104.69 35.3873 112 56.8263 112C78.2654 112 85.4346 104.69 85.7294 104.379C86.026 104.066 86.1916 103.651 86.1916 103.219V55.6358L96.7936 93.9574C96.9549 94.5392 97.4136 94.9901 97.9972 95.1418C107.629 97.6391 113.036 91.3118 113.262 91.0413C113.531 90.7179 113.67 90.3051 113.651 89.8837C112.682 68.5981 107.594 49.0511 103.497 36.4018ZM15.4942 86.2193L13.871 92.0862C11.0781 92.6298 8.46378 92.3133 6.08705 91.1401C4.80721 90.5089 3.89936 89.7649 3.40858 89.308C3.50396 87.4047 3.63489 85.5153 3.79357 83.6423C7.45881 85.7416 12.044 86.1439 15.4942 86.2193ZM47.0741 20.813C45.9252 19.8003 44.0748 18.1181 42.2374 16.2235C36.9949 10.8188 36.5873 8.60858 36.5873 8.05971C36.5873 6.65153 38.5591 3.37563 56.8255 3.37563C63.4883 3.37563 68.625 3.82045 72.0908 4.69622C74.36 5.27024 77.0645 6.31943 77.0645 8.05971C77.0645 8.60771 76.6578 10.8128 71.4327 16.2044C69.5918 18.1033 67.731 19.7959 66.5769 20.8122L60.5826 14.8838C64.6277 14.1251 68.1472 12.1524 70.3895 9.29012C70.9644 8.55655 70.8361 7.49522 70.1025 6.9212C69.369 6.34545 68.3076 6.47465 67.7327 7.20821C65.4887 10.0722 61.3145 11.8515 56.8376 11.8541C56.8298 11.8541 56.8229 11.8541 56.8151 11.8541C52.3391 11.8507 48.164 10.0714 45.9165 7.20735C45.3407 6.47378 44.2803 6.34631 43.5467 6.9212C42.8131 7.49696 42.6857 8.55829 43.2605 9.29099C45.5063 12.1524 49.0259 14.1242 53.0692 14.8829L47.0741 20.813ZM99.7791 92.0853L98.1559 86.2193C101.607 86.1439 106.196 85.7416 109.861 83.6406C110.02 85.5144 110.149 87.4064 110.244 89.3132C109.065 90.4187 105.455 93.183 99.7791 92.0853Z" fill="black"/>
<path d="M109.287 87.1515C108.989 85.719 107.044 85.308 106.229 86.5445C105.809 87.1801 105.866 88.0299 106.371 88.6022C106.821 89.1137 107.561 89.2958 108.2 89.0687C108.983 88.7912 109.44 87.9631 109.287 87.1515Z" fill="black"/>
<path d="M4.36403 87.8113C4.5071 88.4798 5.0317 89.0096 5.7063 89.138C6.40692 89.2715 7.13615 88.9333 7.4856 88.3134C8.22437 87.004 6.93325 85.3973 5.4904 85.8794C4.6944 86.1447 4.19581 86.9832 4.36403 87.8113Z" fill="black"/>
<path d="M63.5361 27.5686C63.406 26.8905 62.8476 26.3564 62.1712 26.2376C61.4906 26.1179 60.7908 26.4413 60.4353 27.0318C60.0599 27.657 60.1379 28.4747 60.6209 29.0201C61.0908 29.5516 61.8712 29.7294 62.5276 29.4589C63.2612 29.1562 63.6939 28.3472 63.5361 27.5686Z" fill="black"/>
<path d="M62.818 99.0863C62.1599 98.6423 61.2486 98.7368 60.6884 99.2952C60.228 99.7557 60.0736 100.461 60.2982 101.071C60.5436 101.74 61.2078 102.196 61.9232 102.177C62.6342 102.159 63.2706 101.681 63.4874 101.005C63.7129 100.305 63.4432 99.4877 62.818 99.0863Z" fill="black"/>
<path d="M63.5361 85.993C63.4086 85.3141 62.8476 84.7782 62.1712 84.6594C61.4906 84.5406 60.7908 84.8632 60.4353 85.4546C60.0599 86.0789 60.1379 86.8965 60.6209 87.442C61.0908 87.9735 61.8712 88.1512 62.5276 87.8807C63.2577 87.5798 63.6973 86.77 63.5361 85.993Z" fill="black"/>
<path d="M63.0746 70.5222C61.9838 69.3993 60.0424 70.3661 60.2037 71.8905C60.2782 72.6032 60.8124 73.205 61.513 73.3628C62.2292 73.5232 62.9871 73.1868 63.3486 72.5495C63.7172 71.8974 63.6079 71.052 63.0746 70.5222Z" fill="black"/>
<path d="M63.5358 56.7804C63.411 56.1188 62.8699 55.5864 62.2126 55.4555C61.5042 55.3133 60.7628 55.6566 60.4108 56.2862C60.0744 56.8862 60.1437 57.6484 60.5782 58.1808C61.0516 58.7617 61.8823 58.9568 62.5655 58.6516C63.2748 58.3351 63.6945 57.5478 63.5358 56.7804Z" fill="black"/>
<path d="M63.5358 42.1749C63.4084 41.4977 62.8456 40.9601 62.171 40.8422C61.493 40.7234 60.7871 41.0459 60.4351 41.6373C60.0614 42.2651 60.1368 43.0776 60.6206 43.6256C61.0915 44.158 61.8719 44.334 62.5274 44.0626C63.261 43.7591 63.6945 42.9544 63.5358 42.1749Z" fill="black"/>
<path d="M54.375 8.40919H59.2776C60.2097 8.40919 60.9659 7.65395 60.9659 6.72182C60.9659 5.78968 60.2097 5.03357 59.2776 5.03357H54.375C53.4429 5.03357 52.6868 5.78968 52.6868 6.72182C52.6868 7.65395 53.4429 8.40919 54.375 8.40919Z" fill="black"/>
</svg>
