<svg width="112" height="112" viewBox="0 0 112 112" fill="none" xmlns="http://www.w3.org/2000/svg">
<path d="M80.286 99.3143V100.569C80.286 105.966 69.2443 110.339 55.6237 110.339C42.0013 110.339 30.9596 105.966 30.9596 100.569V99.3143" fill="#64AC6B"/>
<path d="M3.07177 88.7142C2.66589 90.8958 2.08654 94.0514 1.71313 96.0885C1.4696 97.4181 2.11816 98.7494 3.31444 99.3774C4.96191 100.242 7.60314 101.221 11.0801 101.19C12.572 101.177 13.8384 100.088 14.0862 98.6161L15.238 91.7964" fill="#64AC6B"/>
<path d="M108.178 88.7144C108.583 90.8959 109.162 94.0515 109.536 96.0886C109.779 97.4182 109.131 98.7495 107.934 99.3776C106.287 100.242 103.646 101.221 100.169 101.19C98.6775 101.177 97.4111 100.088 97.1625 98.6162L96.0106 91.7965" fill="#64AC6B"/>
<path d="M105.522 90.8385C103.295 91.6272 100.909 92.0348 98.6587 92.2476C96.1662 92.4825 93.8625 90.8983 93.196 88.4852L82.872 51.1713V93.7181C82.872 96.4944 81.3117 99.0442 78.8243 100.278C74.8449 102.252 67.5945 104.6 55.6239 104.6C46.2467 104.6 39.7646 103.159 35.4844 101.585C34.3009 101.151 33.2867 100.706 32.4245 100.278C29.9371 99.0442 28.3768 96.4944 28.3768 93.7181V51.1713L18.0528 88.4852C17.3863 90.8983 15.0826 92.4825 12.59 92.2476C11.3202 92.1279 10.0069 91.9459 8.70207 91.6691L8.69951 91.6674C7.69634 91.452 6.69658 91.182 5.72673 90.8385C3.45378 90.0319 2.03362 87.7657 2.31047 85.3689C5.75578 55.7394 15.9465 32.1281 15.9465 32.1281C23.5651 24.5085 35.4972 20.2643 35.4972 20.2643H75.7515C75.7515 20.2643 87.6836 24.5085 95.3023 32.1281C95.3023 32.1281 105.493 55.7394 108.938 85.3689C109.215 87.7657 107.795 90.0319 105.522 90.8385Z" fill="#A6C48A"/>
<path d="M105.522 90.8385C103.295 91.6272 100.909 92.0348 98.6586 92.2476C96.166 92.4825 93.8623 90.8983 93.1958 88.4852L82.8718 51.1713C82.8718 47.015 83.7468 43.3022 85.7386 40.103L97.6281 85.6808C97.6281 85.6808 99.5558 90.8385 105.522 90.8385Z" fill="#64AC6B"/>
<path d="M43.8003 20.2643L41.6718 24.5085C31.37 27.6522 16.3558 33.931 8.85075 77.4529C7.55193 83.5163 5.87712 88.8441 8.69951 91.6674C7.69634 91.452 6.69658 91.182 5.72673 90.8385C3.45378 90.0319 2.03362 87.7657 2.31047 85.3689C5.75578 55.7394 15.9465 32.128 15.9465 32.128C23.5651 24.5085 35.4972 20.2643 35.4972 20.2643H43.8003Z" fill="#64AC6B"/>
<path d="M75.4429 9.51477V18.933C75.4429 23.2704 66.5707 26.7866 55.6238 26.7866C53.9806 26.7866 52.3827 26.7063 50.8566 26.5559C42.2117 25.7117 35.803 22.6193 35.803 18.933V9.51477C35.803 5.17737 44.6777 1.66113 55.6238 1.66113C66.5707 1.66113 75.4429 5.17737 75.4429 9.51477Z" fill="#A6C48A"/>
<path d="M50.8566 13.689V26.5559C42.2117 25.7117 35.803 22.6193 35.803 18.933V9.51477C35.803 5.17737 44.6777 1.66113 55.6238 1.66113C50.8566 1.66113 44.8503 7.68274 50.8566 13.689Z" fill="#64AC6B"/>
<path d="M55.6212 6.66333C50.772 6.66333 46.5311 8.17407 44.2137 10.4333C46.5345 12.6918 50.7754 14.2025 55.6246 14.2025C60.4739 14.2025 64.7139 12.6918 67.0312 10.4333C64.7104 8.17407 60.4696 6.66333 55.6212 6.66333Z" fill="#64AC6B"/>
<path d="M35.4844 49.7383V101.585C34.3009 101.151 33.2866 100.706 32.4244 100.278C29.937 99.0442 28.3767 96.4944 28.3767 93.7181V51.1713C28.3767 47.6268 27.7393 44.4037 26.3165 41.5454C26.3165 41.5454 35.4844 41.9419 35.4844 49.7383Z" fill="#64AC6B"/>
<path d="M65.8717 9.2431C63.785 11.2777 59.8587 12.5414 55.6246 12.5414C51.3915 12.5414 47.4634 11.2768 45.3724 9.24225C44.7153 8.60224 43.6635 8.61676 43.0234 9.27387C42.3834 9.93183 42.3971 10.9837 43.0551 11.6237C45.7826 14.2795 50.4815 15.8646 55.6246 15.8646C60.7687 15.8646 65.4667 14.2786 68.1917 11.6229C68.8488 10.9829 68.8624 9.93012 68.2216 9.27301C67.5807 8.61591 66.5288 8.60309 65.8717 9.2431Z" fill="black"/>
<path d="M111.17 95.7894C110.829 93.9309 110.318 91.1436 109.923 89.0116C110.496 87.8597 110.746 86.5378 110.589 85.1766C107.155 55.6471 96.9308 31.7076 96.8274 31.4692C96.7446 31.2761 96.6258 31.101 96.4771 30.9531C89.7403 24.2163 79.9572 20.1036 77.1032 18.9971C77.1032 18.9757 77.1049 18.9543 77.1049 18.933V9.51392C77.1049 3.33423 66.0375 0 55.6238 0C45.2101 0 34.1428 3.33423 34.1428 9.51392V18.933C34.1428 18.9552 34.1445 18.9757 34.1445 18.9979C31.2879 20.1053 21.5074 24.2172 14.7714 30.9531C14.6227 31.101 14.504 31.2761 14.4211 31.4692C14.3168 31.7094 11.8465 37.4626 8.9096 46.9005C8.63702 47.7764 9.12665 48.7078 10.0025 48.9812C10.1674 49.0316 10.3332 49.0564 10.4973 49.0564C11.2056 49.0564 11.861 48.6001 12.0832 47.8883C14.0716 41.4976 15.8703 36.762 16.8025 34.4215C23.4907 38.0522 26.654 43.3501 26.7121 50.9568L16.4514 88.0426C15.9993 89.6807 14.439 90.7531 12.7463 90.5933C10.2358 90.3557 8.12091 89.9242 6.28204 89.2722C4.72687 88.7211 3.7724 87.1932 3.96039 85.5603C5.14129 75.4038 7.24505 64.8577 10.2161 54.215C10.4622 53.3306 9.9461 52.4146 9.0617 52.1676C8.17816 51.9207 7.26214 52.4376 7.01519 53.3212C3.99798 64.1313 1.86004 74.8492 0.659483 85.1783C0.502256 86.5387 0.752622 87.8606 1.32599 89.0116C0.931211 91.1444 0.419371 93.9309 0.0792827 95.7894C-0.297548 97.8445 0.692808 99.8773 2.54193 100.848C4.29278 101.767 7.15704 102.852 10.9194 102.852C10.9775 102.852 11.0356 102.852 11.0945 102.851C13.394 102.83 15.3414 101.166 15.725 98.8929L16.7427 92.8662C18.127 91.9852 19.19 90.6104 19.6548 88.9287L26.7155 63.4076V93.7181C26.7155 96.1466 27.6657 98.3931 29.2986 100.041V100.569C29.2986 107.086 40.6164 112 55.6247 112C70.6313 112 81.9482 107.086 81.9482 100.569V100.043C83.5828 98.3948 84.533 96.1475 84.533 93.719V88.2844C84.533 87.3667 83.7896 86.6224 82.8719 86.6224C81.9542 86.6224 81.2099 87.3667 81.2099 88.2844V93.719C81.2099 95.8578 79.9837 97.8488 78.0859 98.7896C74.2706 100.683 67.2765 102.939 55.6247 102.939C43.972 102.939 36.9788 100.683 33.1627 98.7896C31.2648 97.8488 30.0386 95.8578 30.0386 93.719V51.1713C30.0386 42.3691 26.3566 35.9895 18.8063 31.7341C24.8408 26.4875 32.7457 23.1251 35.2545 22.1348C38.3118 26.2568 47.1823 28.4478 55.6238 28.4478C64.0654 28.4478 72.9367 26.256 75.9932 22.1339C78.4994 23.1217 86.3992 26.4773 92.4422 31.7341C84.8919 35.9895 81.2099 42.3691 81.2099 51.1713V81.6356C81.2099 82.5533 81.9542 83.2976 82.8719 83.2976C83.7896 83.2976 84.533 82.5533 84.533 81.6356V63.4084L91.5937 88.9287C92.0585 90.6104 93.1215 91.9861 94.5058 92.8671L95.5235 98.8929C95.908 101.166 97.8554 102.83 100.154 102.852H100.329C104.091 102.852 106.957 101.767 108.707 100.849C110.557 99.8773 111.546 97.8445 111.17 95.7894ZM12.4481 98.3392C12.3327 99.022 11.7508 99.5219 11.0646 99.5278C7.9013 99.5552 5.52667 98.6614 4.08685 97.906C3.53143 97.6146 3.23492 97.0045 3.34772 96.3876C3.57245 95.1622 3.87152 93.5319 4.16205 91.9528C4.48163 92.1271 4.8183 92.2792 5.17206 92.4048C7.2724 93.1482 9.64789 93.6378 12.4344 93.901C12.689 93.9249 12.942 93.9335 13.1932 93.9292L12.4481 98.3392ZM77.7543 102.589C76.7512 103.783 74.92 104.955 72.4513 105.932C67.9832 107.702 62.0077 108.677 55.6238 108.677C49.2399 108.677 43.2636 107.702 38.7955 105.932C36.326 104.954 34.4931 103.782 33.4908 102.588C37.8726 104.416 44.9401 106.262 55.6238 106.262C66.3058 106.262 73.3725 104.417 77.7543 102.589ZM73.7818 18.933C73.7818 21.5187 66.8741 25.1246 55.6238 25.1246C44.3736 25.1246 37.4659 21.5187 37.4659 18.933V9.51392C37.4659 6.92908 44.3736 3.32312 55.6238 3.32312C66.8741 3.32312 73.7818 6.92908 73.7818 9.51392V18.933ZM84.5364 50.9568C84.5954 43.351 87.7579 38.0531 94.4443 34.4224C96.7548 40.2432 104.422 60.915 107.287 85.5594C107.476 87.1941 106.522 88.7211 104.967 89.2722C103.128 89.9242 101.013 90.3557 98.5031 90.5933C96.8086 90.7531 95.2492 89.6807 94.7963 88.0426L84.5364 50.9568ZM107.162 97.906C105.722 98.6614 103.342 99.5586 100.184 99.5278C99.4977 99.5219 98.9158 99.022 98.8005 98.3392L98.0554 93.9275C98.0929 93.9283 98.1288 93.9326 98.1664 93.9326C98.3809 93.9326 98.5971 93.9224 98.815 93.9019C101.601 93.6387 103.976 93.149 106.078 92.4048C106.431 92.2792 106.767 92.1271 107.086 91.9528C107.377 93.5327 107.676 95.1622 107.901 96.3876C108.014 97.0045 107.717 97.6146 107.162 97.906Z" fill="black"/>
</svg>
