<svg width="142" height="148" viewBox="0 0 142 148" fill="none" xmlns="http://www.w3.org/2000/svg">
<path d="M72.6421 45.5644C68.2421 45.5644 63.9409 46.8115 60.2824 49.148C56.624 51.4845 53.7726 54.8054 52.0888 58.6908C50.405 62.5763 49.9644 66.8517 50.8228 70.9764C51.6812 75.1012 53.8 78.89 56.9113 81.8638C60.0225 84.8376 63.9865 86.8627 68.3019 87.6832C72.6174 88.5037 77.0905 88.0826 81.1555 86.4732C85.2206 84.8638 88.6951 82.1384 91.1396 78.6416C93.5841 75.1448 94.8888 71.0336 94.8888 66.8281C94.8811 61.1909 92.5348 55.7866 88.3644 51.8005C84.194 47.8144 78.5399 45.5717 72.6421 45.5644Z" fill="#77BD43"/>
<path d="M72.6421 45.5644C68.2421 45.5644 63.9409 46.8115 60.2824 49.148C56.624 51.4845 53.7726 54.8054 52.0888 58.6908C50.405 62.5763 49.9644 66.8517 50.8228 70.9764C51.6812 75.1012 53.8 78.89 56.9113 81.8638C60.0225 84.8376 63.9865 86.8627 68.3019 87.6832C72.6174 88.5037 77.0905 88.0826 81.1555 86.4732C85.2206 84.8638 88.6951 82.1384 91.1396 78.6416C93.5841 75.1448 94.8888 71.0336 94.8888 66.8281C94.8811 61.1909 92.5348 55.7866 88.3644 51.8005C84.194 47.8144 78.5399 45.5717 72.6421 45.5644ZM53.2438 58.6827C53.2703 58.7616 53.2821 58.8443 53.2786 58.9271C53.2786 59.3827 53.4298 59.605 54.0227 59.6661C54.6156 59.7272 54.8133 58.9605 55.1853 58.9271C55.5574 58.8938 56.0108 58.9271 55.8131 59.2272C55.6155 59.5272 54.9063 60.4218 55.3365 60.5329C55.7666 60.644 56.4991 60.1717 56.72 60.7385C56.9409 61.3052 56.6037 61.7941 56.8363 61.9386C57.0688 62.0831 57.2664 62.5331 57.4524 62.5998C57.6385 62.6665 57.8652 62.2831 57.9989 62.4109C58.1326 62.5387 58.3942 62.672 58.4755 62.6442C58.6115 62.5606 58.7381 62.4637 58.8534 62.3553C58.8534 62.3553 59.7777 61.5608 60.2602 61.7275C60.8184 61.925 61.4088 62.0266 62.0041 62.0275C62.8819 62.0608 63.0156 62.272 63.5853 62.7776C64.1549 63.2832 63.5853 63.2388 64.7479 63.3665C65.9105 63.4943 65.2769 64.9223 66.4918 65.0334C67.3434 65.1178 68.1755 65.3316 68.9566 65.6668C69.66 65.9169 70.8458 66.2947 70.7005 67.0059C70.5552 67.7171 69.5379 68.4783 69.5379 68.9839C69.5379 69.4895 69.6658 71.0397 69.1368 71.3342C68.6078 71.6287 67.3405 72.0065 67.2068 72.5121C67.0731 73.0177 66.9859 74.3901 66.2825 74.9013C65.7357 75.3211 65.2438 75.8024 64.8176 76.3348C64.6142 76.5848 63.9108 76.5459 63.5562 77.046C63.2016 77.5461 62.4575 79.0685 62.6784 79.2685C62.8993 79.4685 63.6027 79.4796 63.1202 79.9408C62.6377 80.402 62.8121 81.1187 62.8993 81.6077C62.9865 82.0966 64.3468 81.9855 64.0619 82.4467C63.7771 82.9078 61.6437 84.0024 61.1554 80.7242C60.6671 77.446 60.6264 76.5682 60.7543 75.0958C60.8822 73.6234 61.1961 70.5174 60.8473 70.2674C60.4985 70.0174 58.9115 70.5174 57.8535 67.117C56.7956 63.7166 57.9872 64.4667 58.2081 64.2167C58.385 63.8687 58.4896 63.4914 58.5162 63.1054C58.2312 63.2046 57.9212 63.2178 57.6281 63.1433C57.3349 63.0688 57.0728 62.9101 56.8769 62.6887C56.0864 61.8997 55.5574 61.2719 54.9005 61.0774C54.2436 60.8829 54.4703 60.3551 53.7786 60.4829C53.3886 60.5196 52.9948 60.4895 52.6159 60.394C52.7555 59.8161 52.988 59.2438 53.2438 58.6827ZM76.4962 46.9146C76.5603 46.9659 76.6206 47.0216 76.6764 47.0812C76.6814 47.2705 76.7167 47.4578 76.781 47.6369C76.8973 47.9369 77.2286 48.3758 77.5076 48.9148C77.7867 49.4538 77.031 49.7316 76.345 49.7927C75.6591 49.8538 76.345 48.9259 76.4613 48.737C76.5775 48.5481 76.3915 48.1091 76.345 47.9536C76.2985 47.798 75.8509 47.5757 75.7637 47.2924C75.7593 47.2009 75.7751 47.1096 75.8102 47.0244C75.8452 46.9391 75.8987 46.862 75.9672 46.7979L76.4962 46.9146ZM92.6624 60.1939L92.2613 60.4662C90.7208 61.5774 90.0872 61.3496 90.0872 61.3496C90.0872 60.0273 87.9945 57.5658 87.1167 57.1269C86.2389 56.688 88.7211 60.3217 89.5814 61.4108C90.4418 62.4998 91.0754 61.9997 91.9067 61.8108C92.738 61.6219 91.3254 63.5777 90.3895 64.4778C89.4536 65.3779 88.32 65.3835 88.8955 67.4837C89.471 69.584 88.5002 69.8118 87.7329 70.2618C86.9656 70.7119 87.3376 71.8565 86.7447 72.1065C86.1517 72.3565 87.2504 73.3511 85.0995 74.3957C82.9487 75.4402 82.4836 74.7124 82.3034 73.8956C82.1232 73.0788 81.1408 72.9511 81.2745 71.8565C81.4082 70.7619 80.5246 69.6729 80.9199 69.1673C81.3152 68.6616 80.9199 66.7725 80.2165 66.0169C79.5132 65.2612 80.2165 64.5056 80.1293 64.1278C80.0421 63.7499 79.4725 64.1278 79.1644 63.7166C78.8563 63.3054 80.7455 62.5331 77.6239 63.3721C74.5023 64.2111 74.5023 63.3721 73.4036 62.4053C72.3049 61.4385 72.7467 61.2941 72.6595 59.4661C72.5723 57.6381 74.1535 57.3214 74.8104 56.3435C75.4672 55.3656 76.1764 54.8877 78.7226 54.5099C81.2687 54.1321 80.3502 55.1378 80.3502 55.51C80.3502 55.8823 82.8092 56.4824 82.8092 56.3157C82.8092 56.149 82.5011 55.4323 83.0766 55.5156C83.3847 55.5989 86.3726 56.0712 86.3726 56.0712C87.3492 55.9379 87.2504 54.7711 87.1516 54.5933C87.0527 54.4155 86.7795 54.3599 85.9192 54.5933C85.0588 54.8266 84.5589 54.0376 84.5124 53.482C84.4659 52.9264 85.9773 52.8097 86.4017 52.7264C86.8125 52.7143 87.2177 52.8208 87.5643 53.032C87.6466 53.0626 87.7358 53.0725 87.8233 53.0609C87.9109 53.0492 87.9938 53.0163 88.0642 52.9653C90.1107 55.0397 91.6774 57.5027 92.6624 60.1939ZM74.7755 48.9592C74.972 48.6238 75.2101 48.3123 75.4847 48.0314C76.159 47.8591 75.8451 48.7592 75.6474 48.9592C75.4498 49.1593 74.7755 49.1315 74.7755 48.9592ZM86.3377 51.7374C86.0878 51.7374 85.9076 51.4318 85.7564 51.1817C85.6053 50.9317 85.2972 51.5207 85.2042 51.6985C85.0828 51.9778 85.0311 52.2802 85.053 52.5819C85.0879 52.8931 84.8554 52.9986 84.681 53.1042C84.5066 53.2098 84.4834 53.0653 84.3264 52.982C84.1695 52.8986 83.7974 53.032 83.6346 53.3598C83.4719 53.6876 83.6928 54.4266 83.6346 54.4377C83.3716 54.3762 83.1393 54.2288 82.9778 54.021C82.7024 53.6171 82.5055 53.1692 82.3965 52.6986C82.1395 52.2535 81.7284 51.9077 81.2338 51.7207C80.7862 51.5707 81.1815 52.2041 81.2338 52.3208C81.2861 52.4375 81.9023 52.8431 81.9372 53.1264C81.9721 53.4098 81.3559 54.4099 81.507 54.0488C81.6582 53.6876 81.199 53.5265 81.0711 53.2542C80.9432 52.982 80.4316 52.6986 79.9956 52.2263C79.5597 51.754 79.3794 52.2263 79.0888 52.0763C78.7981 51.9263 78.5656 52.243 78.2982 52.1819C78.0308 52.1207 78.1238 52.4763 78.1006 52.8097C78.0773 53.1431 77.9494 52.982 77.5193 53.3653C77.0891 53.7487 77.1705 54.0599 76.938 54.2043C76.4867 54.4171 75.9875 54.5202 75.4847 54.5044C74.7638 54.5044 74.8045 54.1877 74.8278 53.8321C74.8623 53.387 74.9825 52.9519 75.1824 52.5486C75.3975 52.1096 76.5659 52.3152 76.8043 52.2541C77.0426 52.193 76.8973 51.8318 76.8973 51.404C76.8973 50.9762 76.3159 50.7539 76.1125 50.6039C75.909 50.4539 76.345 50.4372 76.874 50.3094C77.077 50.2768 77.2703 50.2029 77.4408 50.0927C77.6114 49.9824 77.7551 49.8384 77.8622 49.6704C78.1574 49.287 78.5168 48.9528 78.926 48.6814C79.2225 48.4814 79.5073 48.4092 79.7166 48.2647C79.9259 48.1203 80.3502 48.5147 80.3502 48.5147L81.3152 48.3647C83.2271 49.1948 85.0015 50.288 86.5819 51.6096C86.5121 51.6596 86.4598 51.7374 86.3377 51.7374ZM65.5501 47.7591C65.7179 47.9139 65.8454 48.1042 65.9221 48.3147C66.0558 48.7814 65.5908 49.5038 66.0209 49.726C66.4511 49.9483 66.8813 50.6706 66.5499 50.6706C66.2186 50.6706 64.87 50.515 64.9978 50.3539C65.2232 50.0948 65.3984 49.7994 65.5152 49.4815C65.5152 49.276 65.4745 49.3593 65.0095 49.4815C64.5444 49.6038 63.4516 49.3315 63.2074 49.4815C62.9633 49.6316 63.1667 49.7482 63.3527 49.976C63.5388 50.2038 63.3179 50.2816 63.4051 50.4817C63.4428 50.5787 63.5032 50.6663 63.5818 50.7376C63.6604 50.8088 63.7551 50.8619 63.8585 50.8928C64.0561 50.9317 64.1433 50.6372 64.3293 50.7872C64.5154 50.9373 63.5504 51.4707 63.283 51.6707C63.0156 51.8707 62.7017 51.9152 62.7889 51.6707C62.8761 51.4262 62.7307 51.3095 62.6261 51.3873C62.5215 51.4651 61.7367 51.6151 61.5739 52.0874C61.4112 52.5597 60.7775 52.643 60.5159 53.032C60.2544 53.4209 59.9346 54.421 59.394 54.86C58.8534 55.2989 57.714 55.4156 57.778 56.0879C57.8419 56.7602 57.6152 57.9159 57.5803 57.6659C57.5454 57.4158 57.685 56.7213 56.999 56.5546C56.5067 56.3643 55.961 56.3407 55.4527 56.4879C55.1252 56.5297 54.7943 56.5409 54.4645 56.5213C56.9806 52.453 60.9001 49.349 65.5501 47.7424V47.7591Z" fill="#247BA0"/>
<path d="M20.9744 38.1392L23.1828 38.76L21.2965 43.975L19.0881 43.3542L20.9744 38.1392Z" fill="#388E3C"/>
<path d="M35.3263 42.172L44.1599 44.6504L42.2789 49.8703L33.4401 47.387L35.3263 42.172Z" fill="#388E3C"/>
<path d="M25.3911 39.381L33.1179 41.5515L31.2317 46.7664L23.5049 44.596L25.3911 39.381Z" fill="#388E3C"/>
<path d="M32.9724 76.3573H33.0192L41.8268 52.0208L17.9241 45.3556L6.76262 59.1131L1 99.7004L23.7803 103.256C23.6821 102.568 23.7569 101.866 23.9985 101.21L32.9724 76.3573Z" fill="#388E3C"/>
<path d="M60.3306 93.3235L31.9124 83.8869L25.5158 101.22C25.4157 101.449 25.3657 101.696 25.3689 101.944C25.3722 102.192 25.4286 102.437 25.5348 102.664C25.6409 102.891 25.7945 103.094 25.9861 103.262C26.1776 103.43 26.4031 103.558 26.6486 103.639C27.1741 103.829 27.7438 103.877 28.2958 103.778L57.5506 105L60.3306 93.3235Z" fill="#388E3C"/>
<path d="M134.624 82.0996L119.976 40.9014L98.7075 47.358L114.577 85.6606C114.577 85.6606 95.3507 91.8788 90.9183 93.2496C90.7209 93.3043 90.565 93.3589 90.4507 93.3986C87.7331 94.392 83.124 100.913 89.3855 103.332C90.9807 103.953 93.7659 104.196 97.1019 104.206C106.84 104.206 126.632 99.4728 126.648 99.4629C130.763 98.5788 136.775 99.304 139.077 94.9433C142.668 88.1588 134.624 82.0996 134.624 82.0996ZM110.95 68.6897L103.706 50.04L104.792 49.7122L112.036 68.3718L110.95 68.6897ZM114.068 67.751L106.824 49.0864L107.905 48.7636L115.159 67.4232L114.068 67.751ZM117.513 66.713L110.28 48.0533L111.36 47.7305L118.604 66.3901L117.513 66.713ZM120.958 65.6749L113.714 47.0153L114.795 46.6875L122.039 65.3521L120.958 65.6749ZM124.403 64.6369L117.17 45.9624L118.251 45.6346L125.494 64.2992L124.403 64.6369Z" fill="#388E3C"/>
<path d="M105.368 3.40214L100.203 9.43659C99.5739 8.04097 93.9672 0.243365 92.928 0.0645662L50.2305 0C50.1629 0.148999 53.7535 1.51482 55.7177 2.27968C58.3069 3.37283 60.7899 4.68249 63.1379 6.19338C68.9993 9.77432 75.0893 18.4858 78.8618 23.9491C77.625 24.3663 73.1459 25.4391 73.1459 25.4391L74.9698 35.0147L81.3871 35.1687C81.3871 35.1687 88.4904 34.7316 91.8679 33.2615C92.3869 33.0373 92.8888 32.7784 93.3696 32.4867C91.3847 30.7782 91.8939 25.7768 93.2345 24.0732C96.3523 20.1297 101.6 21.9773 105.742 23.5468C106.235 23.401 106.704 23.1886 107.134 22.916C109.462 21.4807 111.172 18.4461 112.06 16.2111C113.162 13.4397 114.955 9.11376 114.955 9.11376L105.368 3.40214Z" fill="#388E3C"/>
<path d="M63.8862 8.93978C60.3319 6.03927 48.2975 1.02298 48.2975 1.02298C44.4523 3.83409 29.2273 20.8895 29.2273 20.8895C29.2273 20.8895 40.0199 29.0497 43.4078 31.7366C46.0059 33.7928 54.4966 38.4912 54.4966 38.4912C54.4966 38.4912 55.5098 35.8837 55.6242 35.5112C56.3932 33.0279 67.2897 18.1578 70.0853 14.8352C68.132 12.7643 66.0626 10.7963 63.8862 8.93978Z" fill="#388E3C"/>
<path d="M25.8624 140.824L27.6624 140.68V130.528L25.9344 130.096V128.8L29.2464 128.368H29.2944L29.8224 128.8V129.232L29.7504 131.104H29.8224C29.9824 130.832 30.2704 130.48 30.6864 130.048C31.1024 129.616 31.6384 129.224 32.2944 128.872C32.9504 128.504 33.6624 128.32 34.4304 128.32C34.7504 128.32 35.0144 128.36 35.2224 128.44V131.128C35.1104 131.048 34.9264 130.976 34.6704 130.912C34.4304 130.832 34.1584 130.792 33.8544 130.792C32.5264 130.792 31.2944 131.2 30.1584 132.016V140.656L33.2064 140.848V142H25.8624V140.824ZM42.7106 142.264C40.7746 142.264 39.2946 141.632 38.2706 140.368C37.2626 139.104 36.7586 137.416 36.7586 135.304C36.7586 133.912 37.0226 132.688 37.5506 131.632C38.0786 130.576 38.8146 129.76 39.7586 129.184C40.7186 128.608 41.8066 128.32 43.0226 128.32C44.5106 128.32 45.6626 128.736 46.4786 129.568C47.3106 130.384 47.7506 131.56 47.7986 133.096C47.7986 134.072 47.7426 134.816 47.6306 135.328H39.3746C39.4066 136.912 39.7746 138.192 40.4786 139.168C41.1826 140.128 42.1826 140.608 43.4786 140.608C44.1186 140.608 44.7826 140.496 45.4706 140.272C46.1746 140.032 46.7186 139.752 47.1026 139.432L47.5586 140.488C47.0946 140.968 46.4066 141.384 45.4946 141.736C44.5826 142.088 43.6546 142.264 42.7106 142.264ZM45.1586 134.056C45.2066 133.72 45.2306 133.376 45.2306 133.024C45.2146 131.984 44.9906 131.168 44.5586 130.576C44.1426 129.968 43.4786 129.664 42.5666 129.664C41.6386 129.664 40.8946 130 40.3346 130.672C39.7906 131.344 39.4786 132.472 39.3986 134.056H45.1586ZM48.3972 124.168H54.7812V125.368L52.6453 125.656L56.6053 136.912L57.4933 139.84L58.2853 136.864L61.8613 125.656L59.9653 125.368V124.168H65.3173V125.368L63.7812 125.656L58.0933 142.192H56.0053L49.8613 125.656L48.3972 125.368V124.168ZM65.9394 138.4C65.9394 136.896 66.6914 135.792 68.1954 135.088C69.6994 134.368 71.6034 133.984 73.9074 133.936V133.264C73.9074 132.512 73.8274 131.92 73.6674 131.488C73.5074 131.056 73.2274 130.744 72.8274 130.552C72.4434 130.344 71.8914 130.24 71.1714 130.24C70.3554 130.24 69.6194 130.36 68.9634 130.6C68.3234 130.824 67.6834 131.104 67.0434 131.44L66.4434 130.192C66.6514 130.016 67.0354 129.784 67.5954 129.496C68.1554 129.208 68.8034 128.952 69.5394 128.728C70.2754 128.504 71.0114 128.392 71.7474 128.392C72.8834 128.392 73.7794 128.552 74.4354 128.872C75.1074 129.176 75.5874 129.672 75.8754 130.36C76.1634 131.048 76.3074 131.968 76.3074 133.12V140.824H77.7234V141.88C77.4034 141.96 76.9954 142.04 76.4994 142.12C76.0194 142.2 75.5954 142.24 75.2274 142.24C74.7794 142.24 74.4754 142.168 74.3154 142.024C74.1554 141.896 74.0754 141.6 74.0754 141.136V140.344C73.5954 140.824 73.0034 141.264 72.2994 141.664C71.6114 142.064 70.8274 142.264 69.9474 142.264C68.7954 142.264 67.8354 141.936 67.0674 141.28C66.3154 140.608 65.9394 139.648 65.9394 138.4ZM70.9794 140.632C71.3954 140.632 71.8754 140.504 72.4194 140.248C72.9634 139.992 73.4594 139.688 73.9074 139.336V135.208C72.1634 135.208 70.8434 135.48 69.9474 136.024C69.0674 136.552 68.6274 137.248 68.6274 138.112C68.6274 138.976 68.8354 139.616 69.2514 140.032C69.6834 140.432 70.2594 140.632 70.9794 140.632ZM79.3685 140.824L80.8325 140.608V130.528L79.1045 130.096V128.8L82.5365 128.368L82.9685 128.68L83.1125 129.64L83.0885 130.408C83.6485 129.896 84.4085 129.432 85.3685 129.016C86.3445 128.584 87.2165 128.368 87.9845 128.368C88.8485 128.368 89.5445 128.512 90.0725 128.8C90.6005 129.088 91.0005 129.536 91.2725 130.144C91.7845 129.712 92.4965 129.312 93.4085 128.944C94.3365 128.56 95.2005 128.368 96.0005 128.368C96.9925 128.368 97.7685 128.56 98.3285 128.944C98.8885 129.312 99.2805 129.896 99.5045 130.696C99.7445 131.48 99.8645 132.536 99.8645 133.864V140.608L101.593 140.824V142H95.8805V140.824L97.3685 140.608V133.936C97.3685 133.008 97.2965 132.272 97.1525 131.728C97.0245 131.168 96.7685 130.752 96.3845 130.48C96.0165 130.208 95.4805 130.072 94.7765 130.072C94.2485 130.072 93.6885 130.192 93.0965 130.432C92.5045 130.656 92.0005 130.928 91.5845 131.248C91.7285 131.872 91.8005 132.76 91.8005 133.912V140.608L93.5045 140.824V142H87.6965V140.824L89.2805 140.608V133.888C89.2805 132.928 89.2165 132.184 89.0885 131.656C88.9765 131.128 88.7525 130.736 88.4165 130.48C88.0805 130.208 87.5685 130.072 86.8805 130.072C86.3045 130.072 85.6885 130.216 85.0325 130.504C84.3925 130.792 83.8325 131.128 83.3525 131.512V140.608L84.9605 140.824V142H79.3685V140.824ZM116.259 134.872C116.259 136.232 115.979 137.48 115.419 138.616C114.859 139.736 114.059 140.624 113.019 141.28C111.979 141.936 110.763 142.264 109.371 142.264C108.987 142.264 108.571 142.232 108.123 142.168C107.675 142.104 107.315 142.024 107.043 141.928L107.115 143.944V146.368L109.611 146.632V147.808H102.915V146.632L104.643 146.368V130.528L102.891 130.096V128.8L106.299 128.368H106.347L106.851 128.8V130.216C107.331 129.688 107.923 129.24 108.627 128.872C109.347 128.504 110.147 128.32 111.027 128.32C111.971 128.32 112.835 128.552 113.619 129.016C114.419 129.48 115.059 130.2 115.539 131.176C116.019 132.152 116.259 133.384 116.259 134.872ZM110.043 130C109.435 130 108.867 130.128 108.339 130.384C107.811 130.64 107.403 130.92 107.115 131.224V140.272C107.227 140.464 107.507 140.64 107.955 140.8C108.419 140.944 108.923 141.016 109.467 141.016C110.699 141.016 111.691 140.528 112.443 139.552C113.211 138.576 113.595 137.104 113.595 135.136C113.595 133.408 113.259 132.12 112.587 131.272C111.931 130.424 111.083 130 110.043 130Z" fill="#247BA0"/>
</svg>
