<svg width="122" height="159" viewBox="0 0 122 159" fill="none" xmlns="http://www.w3.org/2000/svg">
<path d="M13.1848 143.256C12.9128 143.112 12.5768 142.992 12.1768 142.896C11.7928 142.8 11.4168 142.752 11.0488 142.752C10.2968 142.752 9.60878 142.928 8.98478 143.28C8.37678 143.616 7.89678 144.064 7.54478 144.624C7.19278 145.184 7.01678 145.792 7.01678 146.448V153H4.52078V140.4H7.01678V143.016C7.49678 142.168 8.14478 141.48 8.96078 140.952C9.77678 140.408 10.6328 140.136 11.5288 140.136C11.9768 140.136 12.4088 140.184 12.8248 140.28C13.2568 140.36 13.5928 140.48 13.8328 140.64L13.1848 143.256ZM30.7953 151.344H30.7713C30.3553 151.664 29.8273 151.976 29.1873 152.28C28.5633 152.568 27.8673 152.8 27.0993 152.976C26.3473 153.152 25.5793 153.24 24.7953 153.24C23.2593 153.24 21.9073 152.968 20.7393 152.424C19.5873 151.864 18.6833 151.104 18.0273 150.144C17.3873 149.168 17.0673 148.064 17.0673 146.832C17.0673 145.424 17.4113 144.224 18.0993 143.232C18.7873 142.224 19.6993 141.456 20.8353 140.928C21.9713 140.384 23.2193 140.112 24.5793 140.112C25.8273 140.112 26.9633 140.376 27.9873 140.904C29.0113 141.416 29.8273 142.128 30.4353 143.04C31.0433 143.952 31.3473 145.016 31.3473 146.232L31.3233 147.432H19.5873C19.7793 148.52 20.3793 149.384 21.3873 150.024C22.3953 150.648 23.6513 150.96 25.1553 150.96C26.2753 150.96 27.1873 150.792 27.8913 150.456C28.6113 150.12 29.1953 149.8 29.6433 149.496L30.7953 151.344ZM24.5793 142.392C23.3473 142.392 22.2753 142.624 21.3633 143.088C20.4673 143.552 19.8913 144.344 19.6353 145.464H28.8273V145.152C28.7633 144.608 28.5233 144.128 28.1073 143.712C27.6913 143.296 27.1713 142.976 26.5473 142.752C25.9233 142.512 25.2673 142.392 24.5793 142.392ZM52.1257 136.2L44.9017 153H42.0457L34.7497 136.2H37.7017L41.9737 146.304C42.2137 146.896 42.4777 147.528 42.7657 148.2C43.0697 148.872 43.3497 149.52 43.6057 150.144C43.8297 149.52 44.0777 148.88 44.3497 148.224C44.6217 147.552 44.8777 146.92 45.1177 146.328L49.0777 136.2H52.1257ZM68.6398 140.4V153H66.1438V150.912C65.8558 151.296 65.4478 151.664 64.9198 152.016C64.3918 152.368 63.7838 152.664 63.0958 152.904C62.4078 153.128 61.6798 153.24 60.9118 153.24C59.5838 153.24 58.4158 152.96 57.4078 152.4C56.3998 151.84 55.6078 151.064 55.0318 150.072C54.4718 149.08 54.1918 147.952 54.1918 146.688C54.1918 145.408 54.4878 144.28 55.0798 143.304C55.6718 142.312 56.4878 141.536 57.5278 140.976C58.5838 140.416 59.7998 140.136 61.1758 140.136C62.2798 140.136 63.2638 140.344 64.1278 140.76C65.0078 141.16 65.6798 141.624 66.1438 142.152V140.4H68.6398ZM61.4638 150.96C62.4238 150.96 63.2558 150.776 63.9598 150.408C64.6798 150.024 65.2398 149.512 65.6398 148.872C66.0398 148.232 66.2398 147.504 66.2398 146.688C66.2398 145.872 66.0398 145.144 65.6398 144.504C65.2398 143.864 64.6798 143.36 63.9598 142.992C63.2558 142.624 62.4238 142.44 61.4638 142.44C60.5358 142.44 59.7118 142.624 58.9918 142.992C58.2878 143.36 57.7278 143.864 57.3118 144.504C56.9118 145.144 56.7118 145.872 56.7118 146.688C56.7118 147.504 56.9118 148.232 57.3118 148.872C57.7278 149.512 58.2878 150.024 58.9918 150.408C59.7118 150.776 60.5358 150.96 61.4638 150.96ZM83.0177 140.184C84.1057 140.184 85.0257 140.416 85.7777 140.88C86.5457 141.328 87.0817 141.992 87.3857 142.872C87.6897 142.488 88.1057 142.088 88.6337 141.672C89.1617 141.256 89.7697 140.904 90.4577 140.616C91.1457 140.328 91.8897 140.184 92.6897 140.184C93.9377 140.184 94.9137 140.432 95.6177 140.928C96.3377 141.408 96.8417 142.056 97.1297 142.872C97.4337 143.688 97.5857 144.592 97.5857 145.584V153H95.0897V145.848C95.0897 144.84 94.8657 144.024 94.4177 143.4C93.9697 142.776 93.2017 142.464 92.1137 142.464C91.2817 142.464 90.5377 142.64 89.8817 142.992C89.2257 143.328 88.7057 143.784 88.3217 144.36C87.9537 144.936 87.7697 145.576 87.7697 146.28V153H85.2737V145.8C85.2737 144.824 85.0177 144.024 84.5057 143.4C83.9937 142.776 83.1537 142.464 81.9857 142.464C81.2177 142.464 80.5297 142.648 79.9217 143.016C79.3297 143.368 78.8657 143.816 78.5297 144.36C78.1937 144.888 78.0257 145.416 78.0257 145.944V153H75.5297V140.4H78.0257V142.44C78.5057 141.864 79.1777 141.344 80.0417 140.88C80.9057 140.416 81.8977 140.184 83.0177 140.184ZM112.205 140.184C113.549 140.184 114.733 140.464 115.757 141.024C116.781 141.568 117.581 142.328 118.157 143.304C118.733 144.28 119.021 145.408 119.021 146.688C119.021 147.952 118.733 149.08 118.157 150.072C117.581 151.048 116.781 151.816 115.757 152.376C114.749 152.936 113.589 153.216 112.277 153.216C111.157 153.216 110.149 153.008 109.253 152.592C108.357 152.176 107.669 151.712 107.189 151.2V158.28H104.693V140.376H107.189V142.32C107.461 141.968 107.853 141.632 108.365 141.312C108.877 140.976 109.461 140.704 110.117 140.496C110.773 140.288 111.469 140.184 112.205 140.184ZM111.869 142.464C110.925 142.464 110.093 142.648 109.373 143.016C108.653 143.384 108.085 143.888 107.669 144.528C107.269 145.152 107.069 145.872 107.069 146.688C107.069 147.488 107.269 148.208 107.669 148.848C108.085 149.488 108.653 150 109.373 150.384C110.093 150.752 110.925 150.936 111.869 150.936C112.813 150.936 113.637 150.752 114.341 150.384C115.061 150 115.621 149.488 116.021 148.848C116.437 148.208 116.645 147.488 116.645 146.688C116.645 145.872 116.437 145.152 116.021 144.528C115.621 143.888 115.061 143.384 114.341 143.016C113.637 142.648 112.813 142.464 111.869 142.464Z" fill="#247BA0"/>
<path d="M62.9024 51.6396C60.0218 51.6396 57.2059 53.053 54.8108 55.701C52.4157 58.349 50.5489 62.1127 49.4466 66.5162C48.3443 70.9197 48.0558 75.7652 48.6178 80.4399C49.1798 85.1146 50.5669 89.4086 52.6038 92.7789C54.6406 96.1492 57.2358 98.4444 60.061 99.3743C62.8862 100.304 65.8146 99.8269 68.4759 98.0029C71.1372 96.1789 73.4119 93.0901 75.0122 89.1271C76.6126 85.164 77.4668 80.5048 77.4668 75.7385C77.4617 69.3496 75.9257 63.2248 73.1954 58.7072C70.4651 54.1896 66.7635 51.6479 62.9024 51.6396Z" fill="#77BD43"/>
<path d="M62.9024 51.6396C60.0218 51.6396 57.2059 53.053 54.8108 55.701C52.4157 58.349 50.5489 62.1127 49.4466 66.5162C48.3443 70.9197 48.0558 75.7652 48.6178 80.4399C49.1798 85.1146 50.5669 89.4086 52.6038 92.7789C54.6406 96.1492 57.2358 98.4444 60.061 99.3743C62.8862 100.304 65.8146 99.8269 68.4759 98.0029C71.1372 96.1789 73.4119 93.0901 75.0122 89.1271C76.6126 85.164 77.4668 80.5048 77.4668 75.7385C77.4617 69.3496 75.9257 63.2248 73.1954 58.7072C70.4651 54.1896 66.7635 51.6479 62.9024 51.6396ZM50.2027 66.507C50.2201 66.5964 50.2279 66.6902 50.2256 66.7841C50.2256 67.3004 50.3245 67.5523 50.7127 67.6216C51.1009 67.6908 51.2303 66.8218 51.4738 66.7841C51.7174 66.7463 52.0143 66.7841 51.8849 67.1241C51.7555 67.4641 51.2912 68.478 51.5728 68.6039C51.8544 68.7298 52.3339 68.1946 52.4786 68.8369C52.6232 69.4792 52.4024 70.0333 52.5547 70.1971C52.7069 70.3608 52.8363 70.8708 52.9581 70.9464C53.0799 71.022 53.2283 70.5875 53.3158 70.7323C53.4033 70.8771 53.5746 71.0283 53.6279 70.9968C53.7169 70.9019 53.7998 70.7922 53.8752 70.6693C53.8752 70.6693 54.4804 69.7689 54.7962 69.9578C55.1617 70.1817 55.5482 70.2968 55.9379 70.2978C56.5126 70.3356 56.6001 70.5749 56.9731 71.1479C57.346 71.7209 56.9731 71.6706 57.7342 71.8154C58.4954 71.9602 58.0805 73.5786 58.8759 73.7045C59.4335 73.8001 59.9782 74.0425 60.4895 74.4224C60.95 74.7058 61.7264 75.1339 61.6313 75.94C61.5361 76.746 60.8701 77.6087 60.8701 78.1817C60.8701 78.7548 60.9538 80.5116 60.6075 80.8454C60.2612 81.1791 59.4316 81.6073 59.344 82.1804C59.2565 82.7534 59.1994 84.3088 58.7389 84.8881C58.3809 85.3639 58.0589 85.9093 57.7799 86.5127C57.6467 86.7961 57.1862 86.752 56.9541 87.3188C56.7219 87.8855 56.2348 89.6109 56.3794 89.8376C56.524 90.0643 56.9845 90.0769 56.6686 90.5995C56.3528 91.1222 56.4669 91.9345 56.524 92.4886C56.5811 93.0428 57.4716 92.9169 57.2852 93.4395C57.0987 93.9622 55.702 95.2027 55.3823 91.4874C55.0626 87.7722 55.036 86.7772 55.1197 85.1085C55.2034 83.4398 55.4089 79.9197 55.1806 79.6364C54.9523 79.353 53.9133 79.9197 53.2207 76.0659C52.528 72.2121 53.3082 73.0622 53.4528 72.7789C53.5686 72.3845 53.6371 71.9569 53.6545 71.5194C53.4679 71.6319 53.265 71.6469 53.073 71.5624C52.8811 71.478 52.7095 71.2981 52.5813 71.0472C52.0637 70.153 51.7174 69.4414 51.2874 69.221C50.8573 69.0006 51.0057 68.4024 50.5529 68.5472C50.2976 68.5889 50.0398 68.5548 49.7917 68.4465C49.8831 67.7916 50.0353 67.143 50.2027 66.507ZM65.4255 53.1698C65.4676 53.228 65.507 53.2911 65.5435 53.3587C65.5468 53.5732 65.5699 53.7855 65.612 53.9884C65.6881 54.3285 65.9051 54.8259 66.0877 55.4367C66.2704 56.0476 65.7757 56.3624 65.3266 56.4317C64.8775 56.5009 65.3266 55.4493 65.4027 55.2352C65.4788 55.0211 65.357 54.5237 65.3266 54.3474C65.2961 54.171 65.0031 53.9192 64.946 53.598C64.9431 53.4943 64.9535 53.3908 64.9764 53.2942C64.9994 53.1977 65.0344 53.1102 65.0792 53.0376L65.4255 53.1698ZM76.0092 68.2198L75.7466 68.5283C74.7381 69.7877 74.3233 69.5296 74.3233 69.5296C74.3233 68.0309 72.9532 65.2413 72.3786 64.7438C71.8039 64.2463 73.4289 68.3646 73.9922 69.5988C74.5554 70.8331 74.9702 70.2663 75.5144 70.0522C76.0587 69.8381 75.1339 72.0547 74.5212 73.0748C73.9084 74.0949 73.1663 74.1012 73.5431 76.4815C73.9199 78.8618 73.2843 79.12 72.782 79.6301C72.2796 80.1401 72.5232 81.4373 72.135 81.7207C71.7468 82.004 72.4661 83.1312 71.058 84.3151C69.6499 85.4989 69.3454 84.674 69.2274 83.7483C69.1095 82.8227 68.4663 82.6778 68.5538 81.4373C68.6414 80.1968 68.0629 78.9626 68.3217 78.3895C68.5805 77.8165 68.3217 75.6755 67.8612 74.8191C67.4007 73.9627 67.8612 73.1063 67.8041 72.6781C67.747 72.2499 67.3741 72.6781 67.1724 72.2121C66.9707 71.7461 68.2075 70.8708 66.1638 71.8217C64.1202 72.7726 64.1202 71.8217 63.4009 70.726C62.6816 69.6303 62.9709 69.4666 62.9138 67.3949C62.8567 65.3231 63.8918 64.9642 64.3219 63.8559C64.7519 62.7476 65.2162 62.2061 66.8831 61.7779C68.55 61.3497 67.9487 62.4895 67.9487 62.9114C67.9487 63.3333 69.5585 64.0133 69.5585 63.8244C69.5585 63.6355 69.3568 62.8232 69.7336 62.9177C69.9353 63.0121 71.8914 63.5474 71.8914 63.5474C72.5308 63.3962 72.4661 62.0738 72.4014 61.8723C72.3367 61.6708 72.1578 61.6079 71.5946 61.8723C71.0313 62.1368 70.704 61.2426 70.6736 60.6129C70.6431 59.9832 71.6326 59.851 71.9104 59.7565C72.1794 59.7429 72.4447 59.8635 72.6716 60.1029C72.7255 60.1376 72.7839 60.1488 72.8412 60.1356C72.8985 60.1224 72.9528 60.0851 72.9989 60.0273C74.3387 62.3783 75.3643 65.1697 76.0092 68.2198ZM64.2991 55.4871C64.4277 55.107 64.5836 54.7539 64.7633 54.4355C65.2048 54.2403 64.9993 55.2604 64.8699 55.4871C64.7405 55.7138 64.2991 55.6823 64.2991 55.4871ZM71.8686 58.6357C71.7049 58.6357 71.587 58.2893 71.488 58.0059C71.3891 57.7226 71.1874 58.3901 71.1265 58.5916C71.047 58.9081 71.0131 59.2509 71.0275 59.5928C71.0504 59.9454 70.8981 60.0651 70.784 60.1847C70.6698 60.3044 70.6546 60.1406 70.5518 60.0462C70.4491 59.9517 70.2055 60.1029 70.0989 60.4744C69.9924 60.8459 70.137 61.6834 70.0989 61.696C69.9267 61.6263 69.7746 61.4592 69.6689 61.2237C69.4886 60.7661 69.3597 60.2584 69.2883 59.725C69.1201 59.2206 68.851 58.8287 68.5272 58.6168C68.2341 58.4467 68.4929 59.1646 68.5272 59.2968C68.5614 59.4291 68.9648 59.8888 68.9877 60.2099C69.0105 60.5311 68.6071 61.6645 68.7061 61.2552C68.805 60.8459 68.5043 60.6633 68.4206 60.3548C68.3369 60.0462 68.002 59.725 67.7166 59.1898C67.4311 58.6545 67.3132 59.1898 67.1229 59.0198C66.9326 58.8498 66.7804 59.2087 66.6053 59.1394C66.4302 59.0702 66.4911 59.4732 66.4759 59.851C66.4607 60.2288 66.377 60.0462 66.0953 60.4807C65.8137 60.9152 65.867 61.2678 65.7148 61.4316C65.4194 61.6727 65.0926 61.7895 64.7633 61.7716C64.2914 61.7716 64.3181 61.4127 64.3333 61.0096C64.3559 60.5052 64.4346 60.0121 64.5654 59.555C64.7063 59.0576 65.4712 59.2905 65.6272 59.2213C65.7833 59.152 65.6881 58.7427 65.6881 58.2578C65.6881 57.773 65.3076 57.5211 65.1744 57.3511C65.0412 57.181 65.3266 57.1621 65.6729 57.0173C65.8058 56.9804 65.9324 56.8966 66.044 56.7717C66.1556 56.6467 66.2497 56.4835 66.3199 56.2931C66.5131 55.8585 66.7484 55.4798 67.0163 55.1723C67.2104 54.9456 67.3969 54.8637 67.5339 54.7C67.6709 54.5363 67.9487 54.9834 67.9487 54.9834L68.5805 54.8133C69.8321 55.7541 70.9938 56.9931 72.0284 58.4908C71.9828 58.5475 71.9485 58.6357 71.8686 58.6357ZM58.2594 54.127C58.3693 54.3024 58.4527 54.5181 58.503 54.7567C58.5905 55.2856 58.286 56.1042 58.5677 56.3561C58.8493 56.608 59.1309 57.4266 58.914 57.4266C58.6971 57.4266 57.8141 57.2503 57.8979 57.0677C58.0454 56.7741 58.1601 56.4393 58.2366 56.079C58.2366 55.8461 58.2099 55.9405 57.9055 56.079C57.601 56.2176 56.8856 55.909 56.7257 56.079C56.5659 56.2491 56.6991 56.3813 56.8209 56.6395C56.9426 56.8977 56.798 56.9858 56.8551 57.2125C56.8798 57.3225 56.9194 57.4218 56.9708 57.5025C57.0223 57.5833 57.0842 57.6435 57.1519 57.6785C57.2813 57.7226 57.3384 57.3888 57.4602 57.5589C57.582 57.7289 56.9502 58.3334 56.7752 58.5601C56.6001 58.7868 56.3946 58.8372 56.4517 58.5601C56.5088 58.283 56.4136 58.1508 56.3451 58.2389C56.2766 58.3271 55.7629 58.4971 55.6563 59.0324C55.5497 59.5676 55.1349 59.6621 54.9637 60.1029C54.7924 60.5437 54.5831 61.6771 54.2292 62.1746C53.8752 62.6721 53.1293 62.8043 53.1712 63.5663C53.2131 64.3282 53.0646 65.638 53.0418 65.3546C53.019 65.0712 53.1103 64.2841 52.6612 64.0952C52.3389 63.8795 51.9817 63.8528 51.6489 64.0196C51.4345 64.067 51.2178 64.0797 51.0019 64.0574C52.6491 59.4467 55.2152 55.9288 58.2594 54.1081V54.127Z" fill="#247BA0"/>
<path d="M29.0768 43.2244L30.5225 43.928L29.2877 49.8383L27.8419 49.1347L29.0768 43.2244Z" fill="#388E3C"/>
<path d="M38.4726 47.795L44.2558 50.6037L43.0243 56.5196L37.2377 53.7052L38.4726 47.795Z" fill="#388E3C"/>
<path d="M31.9683 44.6318L37.0268 47.0916L35.792 53.0019L30.7334 50.5421L31.9683 44.6318Z" fill="#388E3C"/>
<path d="M36.9316 86.5383H36.9622L42.7284 58.9569L27.0798 51.403L19.7727 66.9949L16 112.994L30.9137 117.024C30.8494 116.243 30.8984 115.448 31.0566 114.705L36.9316 86.5383Z" fill="#388E3C"/>
<path d="M54.8423 105.767L36.2376 95.0718L32.0499 114.716C31.9843 114.976 31.9516 115.255 31.9537 115.537C31.9559 115.818 31.9928 116.096 32.0623 116.353C32.1318 116.609 32.2323 116.84 32.3578 117.03C32.4832 117.22 32.6308 117.366 32.7915 117.458C33.1355 117.672 33.5085 117.727 33.8699 117.615L53.0223 119L54.8423 105.767Z" fill="#388E3C"/>
<path d="M103.48 93.0462L93.8906 46.3549L79.9668 53.6724L90.356 97.0821C90.356 97.0821 77.7692 104.129 74.8674 105.683C74.7381 105.745 74.6361 105.807 74.5612 105.852C72.7821 106.978 69.7646 114.368 73.8639 117.109C74.9082 117.813 76.7316 118.089 78.9156 118.1C85.2907 118.1 98.2483 112.736 98.2585 112.725C100.953 111.723 104.889 112.544 106.396 107.602C108.746 99.9134 103.48 93.0462 103.48 93.0462ZM87.9815 77.8483L83.2394 56.712L83.9504 56.3405L88.6925 77.4881L87.9815 77.8483ZM90.0227 76.7845L85.2805 55.6313L85.9881 55.2654L90.737 76.4129L90.0227 76.7845ZM92.2781 75.608L87.5427 54.4605L88.2503 54.0946L92.9925 75.2421L92.2781 75.608ZM94.5335 74.4316L89.7913 53.284L90.4989 52.9125L95.2411 74.0657L94.5335 74.4316ZM96.7889 73.2552L92.0536 52.0907L92.7611 51.7192L97.5033 72.8724L96.7889 73.2552Z" fill="#388E3C"/>
<path d="M84.3271 3.85576L80.9456 10.6948C80.534 9.1131 76.8634 0.275813 76.183 0.073175L48.23 0C48.1858 0.168865 50.5365 1.7168 51.8224 2.58364C53.5174 3.82254 55.143 5.30682 56.6802 7.01917C60.5175 11.0776 64.5045 20.9506 66.9742 27.1423C66.1646 27.6151 63.2322 28.8309 63.2322 28.8309L64.4262 39.6833L68.6275 39.8578C68.6275 39.8578 73.2779 39.3625 75.4891 37.6964C75.8288 37.4423 76.1574 37.1489 76.4722 36.8183C75.1727 34.8819 75.5061 29.2137 76.3837 27.283C78.4249 22.8137 81.8607 24.9076 84.572 26.6863C84.8949 26.5211 85.2019 26.2804 85.4837 25.9715C87.0077 24.3447 88.1269 20.9055 88.7087 18.3725C89.4298 15.2317 90.6035 10.3289 90.6035 10.3289L84.3271 3.85576Z" fill="#388E3C"/>
<path d="M57.1701 10.1318C54.8432 6.84453 46.9645 1.15939 46.9645 1.15939C44.4472 4.34532 34.4798 23.6748 34.4798 23.6748C34.4798 23.6748 41.5454 32.923 43.7634 35.9682C45.4643 38.2985 51.023 43.6234 51.023 43.6234C51.023 43.6234 51.6863 40.6682 51.7612 40.2461C52.2646 37.4317 59.3983 20.5789 61.2285 16.8132C59.9498 14.4662 58.595 12.2358 57.1701 10.1318Z" fill="#388E3C"/>
</svg>
