<svg width="143" height="144" viewBox="0 0 143 144" fill="none" xmlns="http://www.w3.org/2000/svg">
<path d="M71.6421 45.5644C67.2421 45.5644 62.9409 46.8115 59.2824 49.148C55.624 51.4845 52.7726 54.8054 51.0888 58.6908C49.405 62.5763 48.9644 66.8517 49.8228 70.9764C50.6812 75.1012 52.8 78.89 55.9113 81.8638C59.0225 84.8376 62.9865 86.8627 67.3019 87.6832C71.6174 88.5037 76.0905 88.0826 80.1555 86.4732C84.2206 84.8638 87.6951 82.1384 90.1396 78.6416C92.5841 75.1448 93.8888 71.0336 93.8888 66.8281C93.8811 61.1909 91.5348 55.7866 87.3644 51.8005C83.194 47.8144 77.5399 45.5717 71.6421 45.5644Z" fill="#77BD43"/>
<path d="M71.6421 45.5644C67.2421 45.5644 62.9409 46.8115 59.2824 49.148C55.624 51.4845 52.7726 54.8054 51.0888 58.6908C49.405 62.5763 48.9644 66.8517 49.8228 70.9764C50.6812 75.1012 52.8 78.89 55.9113 81.8638C59.0225 84.8376 62.9865 86.8627 67.3019 87.6832C71.6174 88.5037 76.0905 88.0826 80.1555 86.4732C84.2206 84.8638 87.6951 82.1384 90.1396 78.6416C92.5841 75.1448 93.8888 71.0336 93.8888 66.8281C93.8811 61.1909 91.5348 55.7866 87.3644 51.8005C83.194 47.8144 77.5399 45.5717 71.6421 45.5644ZM52.2438 58.6827C52.2703 58.7616 52.2821 58.8443 52.2786 58.9271C52.2786 59.3827 52.4298 59.605 53.0227 59.6661C53.6156 59.7272 53.8133 58.9605 54.1853 58.9271C54.5574 58.8938 55.0108 58.9271 54.8131 59.2272C54.6155 59.5272 53.9063 60.4218 54.3365 60.5329C54.7666 60.644 55.4991 60.1717 55.72 60.7385C55.9409 61.3052 55.6037 61.7941 55.8363 61.9386C56.0688 62.0831 56.2664 62.5331 56.4524 62.5998C56.6385 62.6665 56.8652 62.2831 56.9989 62.4109C57.1326 62.5387 57.3942 62.672 57.4755 62.6442C57.6115 62.5606 57.7381 62.4637 57.8534 62.3553C57.8534 62.3553 58.7777 61.5608 59.2602 61.7275C59.8184 61.925 60.4088 62.0266 61.0041 62.0275C61.8819 62.0608 62.0156 62.272 62.5853 62.7776C63.1549 63.2832 62.5853 63.2388 63.7479 63.3665C64.9105 63.4943 64.2769 64.9223 65.4918 65.0334C66.3434 65.1178 67.1755 65.3316 67.9566 65.6668C68.66 65.9169 69.8458 66.2947 69.7005 67.0059C69.5552 67.7171 68.5379 68.4783 68.5379 68.9839C68.5379 69.4895 68.6658 71.0397 68.1368 71.3342C67.6078 71.6287 66.3405 72.0065 66.2068 72.5121C66.0731 73.0177 65.9859 74.3901 65.2825 74.9013C64.7357 75.3211 64.2438 75.8024 63.8176 76.3348C63.6142 76.5848 62.9108 76.5459 62.5562 77.046C62.2016 77.5461 61.4575 79.0685 61.6784 79.2685C61.8993 79.4685 62.6027 79.4796 62.1202 79.9408C61.6377 80.402 61.8121 81.1187 61.8993 81.6077C61.9865 82.0966 63.3468 81.9855 63.0619 82.4467C62.7771 82.9078 60.6437 84.0024 60.1554 80.7242C59.6671 77.446 59.6264 76.5682 59.7543 75.0958C59.8822 73.6234 60.1961 70.5174 59.8473 70.2674C59.4985 70.0174 57.9115 70.5174 56.8535 67.117C55.7956 63.7166 56.9872 64.4667 57.2081 64.2167C57.385 63.8687 57.4896 63.4914 57.5162 63.1054C57.2312 63.2046 56.9212 63.2178 56.6281 63.1433C56.3349 63.0688 56.0728 62.9101 55.8769 62.6887C55.0864 61.8997 54.5574 61.2719 53.9005 61.0774C53.2436 60.8829 53.4703 60.3551 52.7786 60.4829C52.3886 60.5196 51.9948 60.4895 51.6159 60.394C51.7555 59.8161 51.988 59.2438 52.2438 58.6827ZM75.4962 46.9146C75.5603 46.9659 75.6206 47.0216 75.6764 47.0812C75.6814 47.2705 75.7167 47.4578 75.781 47.6369C75.8973 47.9369 76.2286 48.3758 76.5076 48.9148C76.7867 49.4538 76.031 49.7316 75.345 49.7927C74.6591 49.8538 75.345 48.9259 75.4613 48.737C75.5775 48.5481 75.3915 48.1091 75.345 47.9536C75.2985 47.798 74.8509 47.5757 74.7637 47.2924C74.7593 47.2009 74.7751 47.1096 74.8102 47.0244C74.8452 46.9391 74.8987 46.862 74.9672 46.7979L75.4962 46.9146ZM91.6624 60.1939L91.2613 60.4662C89.7208 61.5774 89.0872 61.3496 89.0872 61.3496C89.0872 60.0273 86.9945 57.5658 86.1167 57.1269C85.2389 56.688 87.7211 60.3217 88.5814 61.4108C89.4418 62.4998 90.0754 61.9997 90.9067 61.8108C91.738 61.6219 90.3254 63.5777 89.3895 64.4778C88.4536 65.3779 87.32 65.3835 87.8955 67.4837C88.471 69.584 87.5002 69.8118 86.7329 70.2618C85.9656 70.7119 86.3376 71.8565 85.7447 72.1065C85.1517 72.3565 86.2504 73.3511 84.0995 74.3957C81.9487 75.4402 81.4836 74.7124 81.3034 73.8956C81.1232 73.0788 80.1408 72.9511 80.2745 71.8565C80.4082 70.7619 79.5246 69.6729 79.9199 69.1673C80.3152 68.6616 79.9199 66.7725 79.2165 66.0169C78.5132 65.2612 79.2165 64.5056 79.1293 64.1278C79.0421 63.7499 78.4725 64.1278 78.1644 63.7166C77.8563 63.3054 79.7455 62.5331 76.6239 63.3721C73.5023 64.2111 73.5023 63.3721 72.4036 62.4053C71.3049 61.4385 71.7467 61.2941 71.6595 59.4661C71.5723 57.6381 73.1535 57.3214 73.8104 56.3435C74.4672 55.3656 75.1764 54.8877 77.7226 54.5099C80.2687 54.1321 79.3502 55.1378 79.3502 55.51C79.3502 55.8823 81.8092 56.4824 81.8092 56.3157C81.8092 56.149 81.5011 55.4323 82.0766 55.5156C82.3847 55.5989 85.3726 56.0712 85.3726 56.0712C86.3492 55.9379 86.2504 54.7711 86.1516 54.5933C86.0527 54.4155 85.7795 54.3599 84.9192 54.5933C84.0588 54.8266 83.5589 54.0376 83.5124 53.482C83.4659 52.9264 84.9773 52.8097 85.4017 52.7264C85.8125 52.7143 86.2177 52.8208 86.5643 53.032C86.6466 53.0626 86.7358 53.0725 86.8233 53.0609C86.9109 53.0492 86.9938 53.0163 87.0642 52.9653C89.1107 55.0397 90.6774 57.5027 91.6624 60.1939ZM73.7755 48.9592C73.972 48.6238 74.2101 48.3123 74.4847 48.0314C75.159 47.8591 74.8451 48.7592 74.6474 48.9592C74.4498 49.1593 73.7755 49.1315 73.7755 48.9592ZM85.3377 51.7374C85.0878 51.7374 84.9076 51.4318 84.7564 51.1817C84.6053 50.9317 84.2972 51.5207 84.2042 51.6985C84.0828 51.9778 84.0311 52.2802 84.053 52.5819C84.0879 52.8931 83.8554 52.9986 83.681 53.1042C83.5066 53.2098 83.4834 53.0653 83.3264 52.982C83.1695 52.8986 82.7974 53.032 82.6346 53.3598C82.4719 53.6876 82.6928 54.4266 82.6346 54.4377C82.3716 54.3762 82.1393 54.2288 81.9778 54.021C81.7024 53.6171 81.5055 53.1692 81.3965 52.6986C81.1395 52.2535 80.7284 51.9077 80.2338 51.7207C79.7862 51.5707 80.1815 52.2041 80.2338 52.3208C80.2861 52.4375 80.9023 52.8431 80.9372 53.1264C80.9721 53.4098 80.3559 54.4099 80.507 54.0488C80.6582 53.6876 80.199 53.5265 80.0711 53.2542C79.9432 52.982 79.4316 52.6986 78.9956 52.2263C78.5597 51.754 78.3794 52.2263 78.0888 52.0763C77.7981 51.9263 77.5656 52.243 77.2982 52.1819C77.0308 52.1207 77.1238 52.4763 77.1006 52.8097C77.0773 53.1431 76.9494 52.982 76.5193 53.3653C76.0891 53.7487 76.1705 54.0599 75.938 54.2043C75.4867 54.4171 74.9875 54.5202 74.4847 54.5044C73.7638 54.5044 73.8045 54.1877 73.8278 53.8321C73.8623 53.387 73.9825 52.9519 74.1824 52.5486C74.3975 52.1096 75.5659 52.3152 75.8043 52.2541C76.0426 52.193 75.8973 51.8318 75.8973 51.404C75.8973 50.9762 75.3159 50.7539 75.1125 50.6039C74.909 50.4539 75.345 50.4372 75.874 50.3094C76.077 50.2768 76.2703 50.2029 76.4408 50.0927C76.6114 49.9824 76.7551 49.8384 76.8622 49.6704C77.1574 49.287 77.5168 48.9528 77.926 48.6814C78.2225 48.4814 78.5073 48.4092 78.7166 48.2647C78.9259 48.1203 79.3502 48.5147 79.3502 48.5147L80.3152 48.3647C82.2271 49.1948 84.0015 50.288 85.5819 51.6096C85.5121 51.6596 85.4598 51.7374 85.3377 51.7374ZM64.5501 47.7591C64.7179 47.9139 64.8454 48.1042 64.9221 48.3147C65.0558 48.7814 64.5908 49.5038 65.0209 49.726C65.4511 49.9483 65.8813 50.6706 65.5499 50.6706C65.2186 50.6706 63.87 50.515 63.9978 50.3539C64.2232 50.0948 64.3984 49.7994 64.5152 49.4815C64.5152 49.276 64.4745 49.3593 64.0095 49.4815C63.5444 49.6038 62.4516 49.3315 62.2074 49.4815C61.9633 49.6316 62.1667 49.7482 62.3527 49.976C62.5388 50.2038 62.3179 50.2816 62.4051 50.4817C62.4428 50.5787 62.5032 50.6663 62.5818 50.7376C62.6604 50.8088 62.7551 50.8619 62.8585 50.8928C63.0561 50.9317 63.1433 50.6372 63.3293 50.7872C63.5154 50.9373 62.5504 51.4707 62.283 51.6707C62.0156 51.8707 61.7017 51.9152 61.7889 51.6707C61.8761 51.4262 61.7307 51.3095 61.6261 51.3873C61.5215 51.4651 60.7367 51.6151 60.5739 52.0874C60.4112 52.5597 59.7775 52.643 59.5159 53.032C59.2544 53.4209 58.9346 54.421 58.394 54.86C57.8534 55.2989 56.714 55.4156 56.778 56.0879C56.8419 56.7602 56.6152 57.9159 56.5803 57.6659C56.5454 57.4158 56.685 56.7213 55.999 56.5546C55.5067 56.3643 54.961 56.3407 54.4527 56.4879C54.1252 56.5297 53.7943 56.5409 53.4645 56.5213C55.9806 52.453 59.9001 49.349 64.5501 47.7424V47.7591Z" fill="#247BA0"/>
<path d="M19.9744 38.1392L22.1828 38.76L20.2966 43.975L18.0882 43.3542L19.9744 38.1392Z" fill="#388E3C"/>
<path d="M34.3263 42.172L43.1599 44.6504L41.2789 49.8703L32.4401 47.387L34.3263 42.172Z" fill="#388E3C"/>
<path d="M24.3911 39.381L32.1179 41.5515L30.2317 46.7664L22.5049 44.596L24.3911 39.381Z" fill="#388E3C"/>
<path d="M31.9724 76.3573H32.0192L40.8268 52.0208L16.9241 45.3556L5.76262 59.1131L0 99.7004L22.7803 103.256C22.6821 102.568 22.7569 101.866 22.9985 101.21L31.9724 76.3573Z" fill="#388E3C"/>
<path d="M59.3306 93.3235L30.9124 83.8869L24.5158 101.22C24.4156 101.449 24.3656 101.696 24.3689 101.944C24.3721 102.192 24.4286 102.437 24.5347 102.664C24.6409 102.891 24.7945 103.094 24.986 103.262C25.1776 103.43 25.4031 103.558 25.6486 103.639C26.174 103.829 26.7438 103.877 27.2958 103.778L56.5506 105L59.3306 93.3235Z" fill="#388E3C"/>
<path d="M133.624 82.0996L118.976 40.9014L97.7075 47.358L113.577 85.6606C113.577 85.6606 94.3507 91.8788 89.9183 93.2496C89.7209 93.3043 89.565 93.3589 89.4507 93.3986C86.7331 94.392 82.124 100.913 88.3855 103.332C89.9807 103.953 92.7659 104.196 96.1019 104.206C105.84 104.206 125.632 99.4728 125.648 99.4629C129.763 98.5788 135.775 99.304 138.077 94.9433C141.668 88.1588 133.624 82.0996 133.624 82.0996ZM109.95 68.6897L102.706 50.04L103.792 49.7122L111.036 68.3718L109.95 68.6897ZM113.068 67.751L105.824 49.0864L106.905 48.7636L114.159 67.4232L113.068 67.751ZM116.513 66.713L109.28 48.0533L110.36 47.7305L117.604 66.3901L116.513 66.713ZM119.958 65.6749L112.714 47.0153L113.795 46.6875L121.039 65.3521L119.958 65.6749ZM123.403 64.6369L116.17 45.9624L117.251 45.6346L124.494 64.2992L123.403 64.6369Z" fill="#388E3C"/>
<path d="M104.368 3.40214L99.2027 9.43659C98.5739 8.04097 92.9672 0.243365 91.9279 0.0645662L49.2305 0C49.1629 0.148999 52.7535 1.51482 54.7177 2.27968C57.3069 3.37283 59.7899 4.68249 62.1379 6.19338C67.9993 9.77432 74.0893 18.4858 77.8617 23.9491C76.625 24.3663 72.1459 25.4391 72.1459 25.4391L73.9697 35.0147L80.3871 35.1687C80.3871 35.1687 87.4903 34.7316 90.8679 33.2615C91.3869 33.0373 91.8887 32.7784 92.3696 32.4867C90.3846 30.7782 90.8939 25.7768 92.2345 24.0732C95.3522 20.1297 100.6 21.9773 104.742 23.5468C105.235 23.401 105.704 23.1886 106.134 22.916C108.462 21.4807 110.172 18.4461 111.06 16.2111C112.162 13.4397 113.955 9.11376 113.955 9.11376L104.368 3.40214Z" fill="#388E3C"/>
<path d="M62.8862 8.93978C59.3319 6.03927 47.2975 1.02298 47.2975 1.02298C43.4523 3.83409 28.2273 20.8895 28.2273 20.8895C28.2273 20.8895 39.0199 29.0497 42.4078 31.7366C45.0059 33.7928 53.4966 38.4912 53.4966 38.4912C53.4966 38.4912 54.5098 35.8837 54.6242 35.5112C55.3932 33.0279 66.2897 18.1578 69.0853 14.8352C67.132 12.7643 65.0626 10.7963 62.8862 8.93978Z" fill="#388E3C"/>
<path d="M27.7388 126.456C27.7388 127.56 27.3948 128.568 26.7068 129.48C26.0188 130.376 25.1468 131.016 24.0908 131.4L28.5788 138.024L25.3868 138L21.1868 131.76H16.2908V138H13.6988V121.2H22.3387C23.2828 121.2 24.1628 121.424 24.9788 121.872C25.7948 122.32 26.4588 122.936 26.9708 123.72C27.4828 124.504 27.7388 125.416 27.7388 126.456ZM21.7388 123.696H16.2908V129.264H22.0508C22.6108 129.264 23.1148 129.136 23.5628 128.88C24.0108 128.608 24.3628 128.256 24.6188 127.824C24.8908 127.392 25.0268 126.928 25.0268 126.432C25.0268 125.904 24.8748 125.432 24.5708 125.016C24.2668 124.6 23.8668 124.28 23.3708 124.056C22.8748 123.816 22.3308 123.696 21.7388 123.696ZM34.6284 121.2H47.0844V123.696H37.2204V128.136H45.7644V130.632H37.2204V135.504H47.0844V138H34.6284V121.2ZM68.9031 121.2L61.6791 138H58.8231L51.5271 121.2H54.4791L58.7511 131.304C58.9911 131.896 59.2551 132.528 59.5431 133.2C59.8471 133.872 60.1271 134.52 60.3831 135.144C60.6071 134.52 60.8551 133.88 61.1271 133.224C61.3991 132.552 61.6551 131.92 61.8951 131.328L65.8551 121.2H68.9031ZM84.9941 138L83.1941 133.968H74.5781L72.7781 138H70.0901L77.5301 121.2H80.3861L87.8021 138H84.9941ZM77.5781 127.152L75.6821 131.472H82.0901L80.1461 127.056C79.6981 126.064 79.2741 125.008 78.8741 123.888C78.6661 124.48 78.4501 125.048 78.2261 125.592C78.0181 126.136 77.8021 126.656 77.5781 127.152ZM95.3443 121.2L101.8 130.152L108.28 121.2H110.776V138H108.184V130.968C108.184 129.944 108.2 128.976 108.232 128.064C108.264 127.136 108.336 126.208 108.448 125.28L102.544 133.176H100.96L95.1283 125.304C95.2403 126.216 95.3123 127.136 95.3443 128.064C95.3763 128.976 95.3923 129.944 95.3923 130.968V138H92.8003V121.2H95.3443ZM126.234 121.2C127.194 121.2 128.066 121.432 128.85 121.896C129.65 122.344 130.282 122.96 130.746 123.744C131.226 124.512 131.466 125.384 131.466 126.36C131.466 127.352 131.218 128.256 130.722 129.072C130.226 129.872 129.554 130.512 128.706 130.992C127.874 131.472 126.962 131.712 125.97 131.712H120.33V138H117.738V121.2H126.234ZM125.826 129.216C126.354 129.216 126.842 129.088 127.29 128.832C127.738 128.56 128.09 128.208 128.346 127.776C128.618 127.344 128.754 126.872 128.754 126.36C128.754 125.864 128.618 125.416 128.346 125.016C128.09 124.616 127.738 124.296 127.29 124.056C126.842 123.816 126.354 123.696 125.826 123.696H120.33V129.216H125.826Z" fill="#247BA0"/>
</svg>
