<svg width="139" height="98" viewBox="0 0 139 98" fill="none" xmlns="http://www.w3.org/2000/svg">
<path d="M21.1848 82.256C20.9128 82.112 20.5768 81.992 20.1768 81.896C19.7928 81.8 19.4168 81.752 19.0488 81.752C18.2968 81.752 17.6088 81.928 16.9848 82.28C16.3768 82.616 15.8968 83.064 15.5448 83.624C15.1928 84.184 15.0168 84.792 15.0168 85.448V92H12.5208V79.4H15.0168V82.016C15.4968 81.168 16.1448 80.48 16.9608 79.952C17.7768 79.408 18.6328 79.136 19.5288 79.136C19.9768 79.136 20.4088 79.184 20.8248 79.28C21.2568 79.36 21.5928 79.48 21.8328 79.64L21.1848 82.256ZM38.7953 90.344H38.7713C38.3553 90.664 37.8273 90.976 37.1873 91.28C36.5633 91.568 35.8673 91.8 35.0993 91.976C34.3473 92.152 33.5793 92.24 32.7953 92.24C31.2593 92.24 29.9073 91.968 28.7393 91.424C27.5873 90.864 26.6833 90.104 26.0273 89.144C25.3873 88.168 25.0673 87.064 25.0673 85.832C25.0673 84.424 25.4113 83.224 26.0993 82.232C26.7873 81.224 27.6993 80.456 28.8353 79.928C29.9713 79.384 31.2193 79.112 32.5793 79.112C33.8273 79.112 34.9633 79.376 35.9873 79.904C37.0113 80.416 37.8273 81.128 38.4353 82.04C39.0433 82.952 39.3473 84.016 39.3473 85.232L39.3233 86.432H27.5873C27.7793 87.52 28.3793 88.384 29.3873 89.024C30.3953 89.648 31.6513 89.96 33.1553 89.96C34.2753 89.96 35.1873 89.792 35.8913 89.456C36.6113 89.12 37.1953 88.8 37.6433 88.496L38.7953 90.344ZM32.5793 81.392C31.3473 81.392 30.2753 81.624 29.3633 82.088C28.4673 82.552 27.8913 83.344 27.6353 84.464H36.8273V84.152C36.7633 83.608 36.5233 83.128 36.1073 82.712C35.6913 82.296 35.1713 81.976 34.5473 81.752C33.9233 81.512 33.2673 81.392 32.5793 81.392ZM60.1257 75.2L52.9017 92H50.0457L42.7497 75.2H45.7017L49.9737 85.304C50.2137 85.896 50.4777 86.528 50.7657 87.2C51.0697 87.872 51.3497 88.52 51.6057 89.144C51.8297 88.52 52.0777 87.88 52.3497 87.224C52.6217 86.552 52.8777 85.92 53.1177 85.328L57.0777 75.2H60.1257ZM76.6398 79.4V92H74.1438V89.912C73.8558 90.296 73.4478 90.664 72.9198 91.016C72.3918 91.368 71.7838 91.664 71.0958 91.904C70.4078 92.128 69.6798 92.24 68.9118 92.24C67.5838 92.24 66.4158 91.96 65.4078 91.4C64.3998 90.84 63.6078 90.064 63.0318 89.072C62.4718 88.08 62.1918 86.952 62.1918 85.688C62.1918 84.408 62.4878 83.28 63.0798 82.304C63.6718 81.312 64.4878 80.536 65.5278 79.976C66.5838 79.416 67.7998 79.136 69.1758 79.136C70.2798 79.136 71.2638 79.344 72.1278 79.76C73.0078 80.16 73.6798 80.624 74.1438 81.152V79.4H76.6398ZM69.4638 89.96C70.4238 89.96 71.2558 89.776 71.9598 89.408C72.6798 89.024 73.2398 88.512 73.6398 87.872C74.0398 87.232 74.2398 86.504 74.2398 85.688C74.2398 84.872 74.0398 84.144 73.6398 83.504C73.2398 82.864 72.6798 82.36 71.9598 81.992C71.2558 81.624 70.4238 81.44 69.4638 81.44C68.5358 81.44 67.7118 81.624 66.9918 81.992C66.2878 82.36 65.7278 82.864 65.3118 83.504C64.9118 84.144 64.7118 84.872 64.7118 85.688C64.7118 86.504 64.9118 87.232 65.3118 87.872C65.7278 88.512 66.2878 89.024 66.9918 89.408C67.7118 89.776 68.5358 89.96 69.4638 89.96ZM91.0177 79.184C92.1057 79.184 93.0257 79.416 93.7777 79.88C94.5457 80.328 95.0817 80.992 95.3857 81.872C95.6897 81.488 96.1057 81.088 96.6337 80.672C97.1617 80.256 97.7697 79.904 98.4577 79.616C99.1457 79.328 99.8897 79.184 100.69 79.184C101.938 79.184 102.914 79.432 103.618 79.928C104.338 80.408 104.842 81.056 105.13 81.872C105.434 82.688 105.586 83.592 105.586 84.584V92H103.09V84.848C103.09 83.84 102.866 83.024 102.418 82.4C101.97 81.776 101.202 81.464 100.114 81.464C99.2817 81.464 98.5377 81.64 97.8817 81.992C97.2257 82.328 96.7057 82.784 96.3217 83.36C95.9537 83.936 95.7697 84.576 95.7697 85.28V92H93.2737V84.8C93.2737 83.824 93.0177 83.024 92.5057 82.4C91.9937 81.776 91.1537 81.464 89.9857 81.464C89.2177 81.464 88.5297 81.648 87.9217 82.016C87.3297 82.368 86.8657 82.816 86.5297 83.36C86.1937 83.888 86.0257 84.416 86.0257 84.944V92H83.5297V79.4H86.0257V81.44C86.5057 80.864 87.1777 80.344 88.0417 79.88C88.9057 79.416 89.8977 79.184 91.0177 79.184ZM120.205 79.184C121.549 79.184 122.733 79.464 123.757 80.024C124.781 80.568 125.581 81.328 126.157 82.304C126.733 83.28 127.021 84.408 127.021 85.688C127.021 86.952 126.733 88.08 126.157 89.072C125.581 90.048 124.781 90.816 123.757 91.376C122.749 91.936 121.589 92.216 120.277 92.216C119.157 92.216 118.149 92.008 117.253 91.592C116.357 91.176 115.669 90.712 115.189 90.2V97.28H112.693V79.376H115.189V81.32C115.461 80.968 115.853 80.632 116.365 80.312C116.877 79.976 117.461 79.704 118.117 79.496C118.773 79.288 119.469 79.184 120.205 79.184ZM119.869 81.464C118.925 81.464 118.093 81.648 117.373 82.016C116.653 82.384 116.085 82.888 115.669 83.528C115.269 84.152 115.069 84.872 115.069 85.688C115.069 86.488 115.269 87.208 115.669 87.848C116.085 88.488 116.653 89 117.373 89.384C118.093 89.752 118.925 89.936 119.869 89.936C120.813 89.936 121.637 89.752 122.341 89.384C123.061 89 123.621 88.488 124.021 87.848C124.437 87.208 124.645 86.488 124.645 85.688C124.645 84.872 124.437 84.152 124.021 83.528C123.621 82.888 123.061 82.384 122.341 82.016C121.637 81.648 120.813 81.464 119.869 81.464Z" fill="#247BA0"/>
<path d="M71.6421 25.6028C67.2421 25.6028 62.9409 26.3036 59.2824 27.6165C55.624 28.9294 52.7726 30.7954 51.0888 32.9786C49.405 35.1619 48.9644 37.5643 49.8228 39.882C50.6812 42.1997 52.8 44.3287 55.9112 45.9996C59.0225 47.6706 62.9865 48.8086 67.3019 49.2696C71.6174 49.7306 76.0905 49.494 80.1555 48.5897C84.2206 47.6854 87.695 46.1539 90.1395 44.1891C92.5841 42.2242 93.8888 39.9141 93.8888 37.551C93.8811 34.3834 91.5348 31.3468 87.3644 29.1069C83.194 26.8671 77.5399 25.607 71.6421 25.6028Z" fill="#77BD43"/>
<path d="M71.6421 25.6028C67.2421 25.6028 62.9409 26.3036 59.2824 27.6165C55.624 28.9294 52.7726 30.7954 51.0888 32.9786C49.405 35.1619 48.9644 37.5643 49.8228 39.882C50.6812 42.1997 52.8 44.3287 55.9112 45.9996C59.0225 47.6706 62.9865 48.8086 67.3019 49.2696C71.6174 49.7306 76.0905 49.494 80.1555 48.5897C84.2206 47.6854 87.695 46.1539 90.1395 44.1891C92.5841 42.2242 93.8888 39.9141 93.8888 37.551C93.8811 34.3834 91.5348 31.3468 87.3644 29.1069C83.194 26.8671 77.5399 25.607 71.6421 25.6028ZM52.2437 32.9741C52.2703 33.0184 52.2821 33.0649 52.2786 33.1114C52.2786 33.3674 52.4298 33.4923 53.0227 33.5267C53.6156 33.561 53.8133 33.1302 54.1853 33.1114C54.5574 33.0927 55.0108 33.1114 54.8131 33.28C54.6155 33.4486 53.9063 33.9513 54.3365 34.0137C54.7666 34.0761 55.4991 33.8108 55.72 34.1292C55.9409 34.4477 55.6037 34.7224 55.8362 34.8036C56.0688 34.8848 56.2664 35.1377 56.4524 35.1751C56.6385 35.2126 56.8652 34.9972 56.9989 35.069C57.1326 35.1408 57.3942 35.2157 57.4755 35.2001C57.6115 35.1531 57.7381 35.0987 57.8534 35.0377C57.8534 35.0377 58.7777 34.5913 59.2602 34.685C59.8184 34.796 60.4088 34.853 61.0041 34.8535C61.8819 34.8723 62.0156 34.9909 62.5853 35.275C63.1549 35.5591 62.5853 35.5342 63.7479 35.606C64.9105 35.6778 64.2769 36.4801 65.4918 36.5426C66.3434 36.59 67.1755 36.7101 67.9566 36.8985C68.6599 37.039 69.8458 37.2513 69.7005 37.6509C69.5552 38.0505 68.5379 38.4783 68.5379 38.7624C68.5379 39.0465 68.6658 39.9175 68.1368 40.083C67.6078 40.2485 66.3405 40.4608 66.2068 40.7449C66.0731 41.029 65.9859 41.8002 65.2825 42.0874C64.7357 42.3233 64.2438 42.5937 63.8176 42.8929C63.6142 43.0334 62.9108 43.0115 62.5562 43.2925C62.2016 43.5735 61.4575 44.4289 61.6784 44.5413C61.8993 44.6537 62.6027 44.66 62.1202 44.9191C61.6377 45.1782 61.8121 45.581 61.8993 45.8557C61.9865 46.1305 63.3468 46.068 63.0619 46.3272C62.7771 46.5863 60.6437 47.2013 60.1554 45.3593C59.6671 43.5173 59.6264 43.024 59.7543 42.1967C59.8822 41.3693 60.1961 39.6241 59.8473 39.4836C59.4985 39.3431 57.9115 39.6241 56.8535 37.7134C55.7956 35.8027 56.9872 36.2241 57.2081 36.0836C57.385 35.8881 57.4896 35.6761 57.5162 35.4592C57.2312 35.515 56.9212 35.5224 56.6281 35.4805C56.3349 35.4387 56.0727 35.3495 55.8769 35.2251C55.0864 34.7817 54.5574 34.4289 53.9005 34.3197C53.2436 34.2104 53.4703 33.9138 52.7786 33.9856C52.3886 34.0063 51.9948 33.9894 51.6159 33.9357C51.7554 33.611 51.988 33.2894 52.2437 32.9741ZM75.4961 26.3615C75.5603 26.3904 75.6205 26.4217 75.6764 26.4552C75.6814 26.5615 75.7167 26.6668 75.781 26.7674C75.8972 26.936 76.2286 27.1826 76.5076 27.4855C76.7867 27.7883 76.0309 27.9444 75.345 27.9787C74.6591 28.0131 75.345 27.4917 75.4613 27.3855C75.5775 27.2794 75.3915 27.0328 75.345 26.9453C75.2985 26.8579 74.8509 26.733 74.7637 26.5738C74.7593 26.5224 74.7751 26.4711 74.8102 26.4232C74.8452 26.3753 74.8987 26.332 74.9672 26.2959L75.4961 26.3615ZM91.6624 33.8233L91.2613 33.9762C89.7208 34.6007 89.0872 34.4727 89.0872 34.4727C89.0872 33.7296 86.9945 32.3465 86.1167 32.0999C85.2389 31.8532 87.7211 33.8951 88.5814 34.507C89.4418 35.1189 90.0754 34.8379 90.9067 34.7318C91.7379 34.6256 90.3254 35.7246 89.3895 36.2304C88.4535 36.7362 87.32 36.7393 87.8955 37.9194C88.471 39.0996 87.5002 39.2276 86.7329 39.4805C85.9655 39.7333 86.3376 40.3765 85.7446 40.517C85.1517 40.6575 86.2504 41.2163 84.0995 41.8033C81.9487 42.3902 81.4836 41.9812 81.3034 41.5223C81.1232 41.0633 80.1408 40.9915 80.2745 40.3765C80.4082 39.7614 79.5246 39.1495 79.9199 38.8654C80.3152 38.5813 79.9199 37.5198 79.2165 37.0952C78.5131 36.6706 79.2165 36.246 79.1293 36.0337C79.0421 35.8214 78.4725 36.0337 78.1644 35.8027C77.8563 35.5716 79.7455 35.1377 76.6239 35.6091C73.5023 36.0805 73.5023 35.6091 72.4036 35.0658C71.3049 34.5226 71.7467 34.4414 71.6595 33.4143C71.5723 32.3871 73.1535 32.2091 73.8103 31.6597C74.4672 31.1102 75.1764 30.8417 77.7226 30.6294C80.2687 30.4171 79.3502 30.9822 79.3502 31.1914C79.3502 31.4005 81.8092 31.7377 81.8092 31.6441C81.8092 31.5504 81.5011 31.1476 82.0766 31.1945C82.3847 31.2413 85.3726 31.5067 85.3726 31.5067C86.3492 31.4318 86.2504 30.7761 86.1516 30.6762C86.0527 30.5763 85.7795 30.5451 84.9192 30.6762C84.0588 30.8073 83.5589 30.364 83.5124 30.0518C83.4659 29.7396 84.9773 29.674 85.4017 29.6272C85.8125 29.6204 86.2177 29.6803 86.5643 29.7989C86.6466 29.8161 86.7358 29.8217 86.8233 29.8151C86.9109 29.8086 86.9938 29.7901 87.0642 29.7614C89.1107 30.9271 90.6774 32.311 91.6624 33.8233ZM73.7755 27.5104C73.972 27.322 74.2101 27.1469 74.4847 26.989C75.159 26.8923 74.8451 27.398 74.6474 27.5104C74.4498 27.6228 73.7755 27.6072 73.7755 27.5104ZM85.3377 29.0715C85.0878 29.0715 84.9076 28.8998 84.7564 28.7593C84.6053 28.6188 84.2972 28.9497 84.2042 29.0496C84.0828 29.2065 84.0311 29.3765 84.053 29.546C84.0879 29.7209 83.8554 29.7802 83.681 29.8395C83.5066 29.8988 83.4833 29.8176 83.3264 29.7708C83.1694 29.724 82.7974 29.7989 82.6346 29.9831C82.4719 30.1673 82.6928 30.5825 82.6346 30.5888C82.3716 30.5542 82.1393 30.4714 81.9778 30.3546C81.7024 30.1277 81.5055 29.876 81.3964 29.6116C81.1395 29.3615 80.7284 29.1672 80.2338 29.0621C79.7862 28.9778 80.1815 29.3337 80.2338 29.3993C80.2861 29.4648 80.9023 29.6928 80.9372 29.852C80.9721 30.0112 80.3559 30.5732 80.507 30.3702C80.6582 30.1673 80.1989 30.0768 80.0711 29.9238C79.9432 29.7708 79.4316 29.6116 78.9956 29.3462C78.5597 29.0808 78.3794 29.3462 78.0888 29.2619C77.7981 29.1776 77.5656 29.3556 77.2982 29.3212C77.0308 29.2869 77.1238 29.4867 77.1006 29.674C77.0773 29.8614 76.9494 29.7708 76.5193 29.9862C76.0891 30.2017 76.1705 30.3765 75.9379 30.4577C75.4867 30.5772 74.9875 30.6351 74.4847 30.6263C73.7638 30.6263 73.8045 30.4483 73.8278 30.2485C73.8623 29.9984 73.9825 29.7539 74.1824 29.5273C74.3975 29.2806 75.5659 29.3962 75.8042 29.3618C76.0426 29.3275 75.8973 29.1245 75.8973 28.8841C75.8973 28.6437 75.3159 28.5189 75.1125 28.4346C74.909 28.3503 75.345 28.3409 75.874 28.2691C76.077 28.2508 76.2703 28.2093 76.4408 28.1473C76.6113 28.0854 76.7551 28.0045 76.8622 27.9101C77.1573 27.6946 77.5168 27.5068 77.926 27.3543C78.2225 27.2419 78.5073 27.2013 78.7166 27.1202C78.9259 27.039 79.3502 27.2607 79.3502 27.2607L80.3152 27.1764C82.2271 27.6428 84.0014 28.2571 85.5819 28.9997C85.5121 29.0278 85.4598 29.0715 85.3377 29.0715ZM64.5501 26.8361C64.7179 26.923 64.8454 27.03 64.9221 27.1483C65.0558 27.4105 64.5908 27.8164 65.0209 27.9413C65.4511 28.0662 65.8813 28.472 65.5499 28.472C65.2186 28.472 63.8699 28.3846 63.9978 28.2941C64.2232 28.1485 64.3984 27.9825 64.5152 27.8039C64.5152 27.6884 64.4745 27.7352 64.0095 27.8039C63.5444 27.8726 62.4516 27.7196 62.2074 27.8039C61.9633 27.8882 62.1667 27.9538 62.3527 28.0818C62.5387 28.2098 62.3178 28.2535 62.405 28.3659C62.4427 28.4204 62.5032 28.4696 62.5818 28.5097C62.6604 28.5497 62.7551 28.5796 62.8585 28.5969C63.0561 28.6188 63.1433 28.4533 63.3293 28.5376C63.5153 28.6219 62.5504 28.9216 62.283 29.034C62.0156 29.1464 61.7017 29.1714 61.7889 29.034C61.8761 28.8966 61.7307 28.8311 61.6261 28.8748C61.5215 28.9185 60.7367 29.0028 60.5739 29.2682C60.4112 29.5335 59.7775 29.5804 59.5159 29.7989C59.2543 30.0175 58.9346 30.5794 58.394 30.8261C57.8534 31.0727 56.714 31.1383 56.778 31.516C56.8419 31.8938 56.6152 32.5432 56.5803 32.4027C56.5454 32.2622 56.685 31.872 55.999 31.7783C55.5067 31.6713 54.961 31.6581 54.4527 31.7408C54.1252 31.7643 53.7943 31.7706 53.4645 31.7596C55.9806 29.4736 59.9001 27.7294 64.5501 26.8267V26.8361Z" fill="#247BA0"/>
<path d="M19.9744 21.4306L22.1828 21.7794L20.2966 24.7097L18.0882 24.3609L19.9744 21.4306Z" fill="#388E3C"/>
<path d="M34.3263 23.6967L43.1599 25.0892L41.2789 28.0223L32.4401 26.627L34.3263 23.6967Z" fill="#388E3C"/>
<path d="M24.3911 22.1284L32.1179 23.348L30.2317 26.2783L22.5049 25.0587L24.3911 22.1284Z" fill="#388E3C"/>
<path d="M31.9724 42.9055H32.0192L40.8268 29.2307L16.9241 25.4855L5.76262 33.216L0 56.0221L22.7803 58.0203C22.6821 57.6332 22.7569 57.2391 22.9985 56.8705L31.9724 42.9055Z" fill="#388E3C"/>
<path d="M59.3306 52.4389L30.9124 47.1364L24.5158 56.8762C24.4156 57.005 24.3656 57.1434 24.3689 57.2829C24.3721 57.4224 24.4286 57.5601 24.5347 57.6874C24.6409 57.8148 24.7945 57.9291 24.986 58.0233C25.1776 58.1176 25.4031 58.1897 25.6486 58.2353C26.174 58.3418 26.7438 58.3688 27.2958 58.3135L56.5506 59L59.3306 52.4389Z" fill="#388E3C"/>
<path d="M133.624 46.1321L118.976 22.9827L97.7075 26.6107L113.577 48.1331C113.577 48.1331 94.3507 51.6272 89.9183 52.3974C89.7209 52.4281 89.565 52.4588 89.4507 52.4811C86.7331 53.0393 82.124 56.7036 88.3855 58.0627C89.9807 58.4115 92.7659 58.5483 96.1019 58.5539C105.84 58.5539 125.632 55.8943 125.648 55.8887C129.763 55.3919 135.775 55.7994 138.077 53.3491C141.668 49.5369 133.624 46.1321 133.624 46.1321ZM109.95 38.5971L102.706 28.1177L103.792 27.9335L111.036 38.4185L109.95 38.5971ZM113.068 38.0696L105.824 27.5819L106.905 27.4005L114.159 37.8854L113.068 38.0696ZM116.513 37.4863L109.28 27.0014L110.36 26.82L117.604 37.3049L116.513 37.4863ZM119.958 36.9031L112.714 26.4181L113.795 26.2339L121.039 36.7217L119.958 36.9031ZM123.403 36.3198L116.17 25.8265L117.251 25.6423L124.494 36.13L123.403 36.3198Z" fill="#388E3C"/>
<path d="M104.368 1.91168L99.2027 5.30247C98.5739 4.51826 92.9672 0.136748 91.9279 0.03628L49.2305 0C49.1629 0.0837231 52.7535 0.851185 54.7177 1.28096C57.3069 1.89521 59.7899 2.63111 62.1379 3.48009C67.9993 5.49224 74.0893 10.3873 77.8617 13.4571C76.625 13.6915 72.1459 14.2943 72.1459 14.2943L73.9697 19.6749L80.3871 19.7615C80.3871 19.7615 87.4903 19.5159 90.8679 18.6898C91.3869 18.5638 91.8887 18.4184 92.3696 18.2544C90.3846 17.2944 90.8939 14.4841 92.2345 13.5269C95.3522 11.311 100.6 12.3492 104.742 13.231C105.235 13.1491 105.704 13.0298 106.134 12.8766C108.462 12.0701 110.172 10.3649 111.06 9.10908C112.162 7.55183 113.955 5.12107 113.955 5.12107L104.368 1.91168Z" fill="#388E3C"/>
<path d="M62.8862 5.02332C59.332 3.39351 47.2975 0.574829 47.2975 0.574829C43.4523 2.15441 28.2273 11.7379 28.2273 11.7379C28.2273 11.7379 39.0199 16.3231 42.4078 17.833C45.0059 18.9883 53.4966 21.6284 53.4966 21.6284C53.4966 21.6284 54.5099 20.1632 54.6242 19.9539C55.3932 18.5586 66.2897 10.203 69.0853 8.33596C67.132 7.17233 65.0626 6.06649 62.8862 5.02332Z" fill="#388E3C"/>
</svg>
