<svg width="622" height="230" viewBox="0 0 622 230" fill="none" xmlns="http://www.w3.org/2000/svg">
<rect x="0.5" y="0.5" width="351" height="229" fill="white" stroke="#E4E4E4"/>
<path d="M123.685 171.256C123.413 171.112 123.077 170.992 122.677 170.896C122.293 170.8 121.917 170.752 121.549 170.752C120.797 170.752 120.109 170.928 119.485 171.28C118.877 171.616 118.397 172.064 118.045 172.624C117.693 173.184 117.517 173.792 117.517 174.448V181H115.021V168.4H117.517V171.016C117.997 170.168 118.645 169.48 119.461 168.952C120.277 168.408 121.133 168.136 122.029 168.136C122.477 168.136 122.909 168.184 123.325 168.28C123.757 168.36 124.093 168.48 124.333 168.64L123.685 171.256ZM141.295 179.344H141.271C140.855 179.664 140.327 179.976 139.687 180.28C139.063 180.568 138.367 180.8 137.599 180.976C136.847 181.152 136.079 181.24 135.295 181.24C133.759 181.24 132.407 180.968 131.239 180.424C130.087 179.864 129.183 179.104 128.527 178.144C127.887 177.168 127.567 176.064 127.567 174.832C127.567 173.424 127.911 172.224 128.599 171.232C129.287 170.224 130.199 169.456 131.335 168.928C132.471 168.384 133.719 168.112 135.079 168.112C136.327 168.112 137.463 168.376 138.487 168.904C139.511 169.416 140.327 170.128 140.935 171.04C141.543 171.952 141.847 173.016 141.847 174.232L141.823 175.432H130.087C130.279 176.52 130.879 177.384 131.887 178.024C132.895 178.648 134.151 178.96 135.655 178.96C136.775 178.96 137.687 178.792 138.391 178.456C139.111 178.12 139.695 177.8 140.143 177.496L141.295 179.344ZM135.079 170.392C133.847 170.392 132.775 170.624 131.863 171.088C130.967 171.552 130.391 172.344 130.135 173.464H139.327V173.152C139.263 172.608 139.023 172.128 138.607 171.712C138.191 171.296 137.671 170.976 137.047 170.752C136.423 170.512 135.767 170.392 135.079 170.392ZM162.626 164.2L155.402 181H152.546L145.25 164.2H148.202L152.474 174.304C152.714 174.896 152.978 175.528 153.266 176.2C153.57 176.872 153.85 177.52 154.106 178.144C154.33 177.52 154.578 176.88 154.85 176.224C155.122 175.552 155.378 174.92 155.618 174.328L159.578 164.2H162.626ZM179.14 168.4V181H176.644V178.912C176.356 179.296 175.948 179.664 175.42 180.016C174.892 180.368 174.284 180.664 173.596 180.904C172.908 181.128 172.18 181.24 171.412 181.24C170.084 181.24 168.916 180.96 167.908 180.4C166.9 179.84 166.108 179.064 165.532 178.072C164.972 177.08 164.692 175.952 164.692 174.688C164.692 173.408 164.988 172.28 165.58 171.304C166.172 170.312 166.988 169.536 168.028 168.976C169.084 168.416 170.3 168.136 171.676 168.136C172.78 168.136 173.764 168.344 174.628 168.76C175.508 169.16 176.18 169.624 176.644 170.152V168.4H179.14ZM171.964 178.96C172.924 178.96 173.756 178.776 174.46 178.408C175.18 178.024 175.74 177.512 176.14 176.872C176.54 176.232 176.74 175.504 176.74 174.688C176.74 173.872 176.54 173.144 176.14 172.504C175.74 171.864 175.18 171.36 174.46 170.992C173.756 170.624 172.924 170.44 171.964 170.44C171.036 170.44 170.212 170.624 169.492 170.992C168.788 171.36 168.228 171.864 167.812 172.504C167.412 173.144 167.212 173.872 167.212 174.688C167.212 175.504 167.412 176.232 167.812 176.872C168.228 177.512 168.788 178.024 169.492 178.408C170.212 178.776 171.036 178.96 171.964 178.96ZM193.518 168.184C194.606 168.184 195.526 168.416 196.278 168.88C197.046 169.328 197.582 169.992 197.886 170.872C198.19 170.488 198.606 170.088 199.134 169.672C199.662 169.256 200.27 168.904 200.958 168.616C201.646 168.328 202.39 168.184 203.19 168.184C204.438 168.184 205.414 168.432 206.118 168.928C206.838 169.408 207.342 170.056 207.63 170.872C207.934 171.688 208.086 172.592 208.086 173.584V181H205.59V173.848C205.59 172.84 205.366 172.024 204.918 171.4C204.47 170.776 203.702 170.464 202.614 170.464C201.782 170.464 201.038 170.64 200.382 170.992C199.726 171.328 199.206 171.784 198.822 172.36C198.454 172.936 198.27 173.576 198.27 174.28V181H195.774V173.8C195.774 172.824 195.518 172.024 195.006 171.4C194.494 170.776 193.654 170.464 192.486 170.464C191.718 170.464 191.03 170.648 190.422 171.016C189.83 171.368 189.366 171.816 189.03 172.36C188.694 172.888 188.526 173.416 188.526 173.944V181H186.03V168.4H188.526V170.44C189.006 169.864 189.678 169.344 190.542 168.88C191.406 168.416 192.398 168.184 193.518 168.184ZM222.705 168.184C224.049 168.184 225.233 168.464 226.257 169.024C227.281 169.568 228.081 170.328 228.657 171.304C229.233 172.28 229.521 173.408 229.521 174.688C229.521 175.952 229.233 177.08 228.657 178.072C228.081 179.048 227.281 179.816 226.257 180.376C225.249 180.936 224.089 181.216 222.777 181.216C221.657 181.216 220.649 181.008 219.753 180.592C218.857 180.176 218.169 179.712 217.689 179.2V186.28H215.193V168.376H217.689V170.32C217.961 169.968 218.353 169.632 218.865 169.312C219.377 168.976 219.961 168.704 220.617 168.496C221.273 168.288 221.969 168.184 222.705 168.184ZM222.369 170.464C221.425 170.464 220.593 170.648 219.873 171.016C219.153 171.384 218.585 171.888 218.169 172.528C217.769 173.152 217.569 173.872 217.569 174.688C217.569 175.488 217.769 176.208 218.169 176.848C218.585 177.488 219.153 178 219.873 178.384C220.593 178.752 221.425 178.936 222.369 178.936C223.313 178.936 224.137 178.752 224.841 178.384C225.561 178 226.121 177.488 226.521 176.848C226.937 176.208 227.145 175.488 227.145 174.688C227.145 173.872 226.937 173.152 226.521 172.528C226.121 171.888 225.561 171.384 224.841 171.016C224.137 170.648 223.313 170.464 222.369 170.464Z" fill="black"/>
<path d="M173.642 96.9091C169.242 96.9091 164.941 98.1656 161.282 100.52C157.624 102.874 154.773 106.22 153.089 110.135C151.405 114.05 150.964 118.357 151.823 122.513C152.681 126.669 154.8 130.487 157.911 133.483C161.023 136.479 164.987 138.52 169.302 139.346C173.617 140.173 178.09 139.749 182.156 138.127C186.221 136.506 189.695 133.76 192.14 130.236C194.584 126.713 195.889 122.571 195.889 118.334C195.881 112.654 193.535 107.209 189.364 103.192C185.194 99.1761 179.54 96.9165 173.642 96.9091Z" fill="white"/>
<path d="M173.642 96.9091C169.242 96.9091 164.941 98.1656 161.282 100.52C157.624 102.874 154.773 106.22 153.089 110.135C151.405 114.05 150.964 118.357 151.823 122.513C152.681 126.669 154.8 130.487 157.911 133.483C161.023 136.479 164.987 138.52 169.302 139.346C173.617 140.173 178.09 139.749 182.156 138.127C186.221 136.506 189.695 133.76 192.14 130.236C194.584 126.713 195.889 122.571 195.889 118.334C195.881 112.654 193.535 107.209 189.364 103.192C185.194 99.1761 179.54 96.9165 173.642 96.9091ZM154.244 110.127C154.27 110.206 154.282 110.289 154.279 110.373C154.279 110.832 154.43 111.056 155.023 111.117C155.616 111.179 155.813 110.406 156.185 110.373C156.557 110.339 157.011 110.373 156.813 110.675C156.615 110.977 155.906 111.879 156.336 111.991C156.767 112.103 157.499 111.627 157.72 112.198C157.941 112.769 157.604 113.262 157.836 113.407C158.069 113.553 158.266 114.006 158.452 114.073C158.638 114.141 158.865 113.754 158.999 113.883C159.133 114.012 159.394 114.146 159.476 114.118C159.612 114.034 159.738 113.936 159.853 113.827C159.853 113.827 160.778 113.026 161.26 113.194C161.818 113.393 162.409 113.496 163.004 113.497C163.882 113.53 164.016 113.743 164.585 114.252C165.155 114.762 164.585 114.717 165.748 114.846C166.911 114.975 166.277 116.413 167.492 116.525C168.343 116.61 169.176 116.826 169.957 117.164C170.66 117.415 171.846 117.796 171.7 118.513C171.555 119.229 170.538 119.996 170.538 120.506C170.538 121.015 170.666 122.577 170.137 122.874C169.608 123.17 168.341 123.551 168.207 124.061C168.073 124.57 167.986 125.953 167.283 126.468C166.736 126.891 166.244 127.376 165.818 127.912C165.614 128.164 164.911 128.125 164.556 128.629C164.202 129.133 163.458 130.667 163.678 130.868C163.899 131.07 164.603 131.081 164.12 131.545C163.638 132.01 163.812 132.732 163.899 133.225C163.987 133.718 165.347 133.606 165.062 134.07C164.777 134.535 162.644 135.638 162.155 132.335C161.667 129.032 161.626 128.147 161.754 126.664C161.882 125.18 162.196 122.051 161.847 121.799C161.499 121.547 159.912 122.051 158.854 118.625C157.796 115.199 158.987 115.954 159.208 115.702C159.385 115.352 159.49 114.972 159.516 114.583C159.231 114.683 158.921 114.696 158.628 114.621C158.335 114.546 158.073 114.386 157.877 114.163C157.086 113.368 156.557 112.735 155.9 112.539C155.244 112.343 155.47 111.812 154.779 111.94C154.389 111.977 153.995 111.947 153.616 111.851C153.755 111.269 153.988 110.692 154.244 110.127ZM177.496 98.2694C177.56 98.3212 177.621 98.3773 177.676 98.4374C177.681 98.628 177.717 98.8168 177.781 98.9972C177.897 99.2995 178.229 99.7418 178.508 100.285C178.787 100.828 178.031 101.108 177.345 101.169C176.659 101.231 177.345 100.296 177.461 100.106C177.578 99.9153 177.392 99.4731 177.345 99.3163C177.299 99.1596 176.851 98.9356 176.764 98.6501C176.759 98.558 176.775 98.4659 176.81 98.3801C176.845 98.2942 176.899 98.2164 176.967 98.1519L177.496 98.2694ZM193.662 111.649L193.261 111.924C191.721 113.043 191.087 112.814 191.087 112.814C191.087 111.481 188.994 109.001 188.117 108.559C187.239 108.117 189.721 111.778 190.581 112.875C191.442 113.973 192.075 113.469 192.907 113.278C193.738 113.088 192.325 115.059 191.389 115.966C190.454 116.872 189.32 116.878 189.896 118.994C190.471 121.11 189.5 121.34 188.733 121.793C187.966 122.247 188.338 123.4 187.745 123.652C187.152 123.904 188.25 124.906 186.1 125.958C183.949 127.011 183.484 126.278 183.303 125.455C183.123 124.632 182.141 124.503 182.275 123.4C182.408 122.297 181.525 121.2 181.92 120.69C182.315 120.181 181.92 118.278 181.217 117.516C180.513 116.755 181.217 115.994 181.129 115.613C181.042 115.232 180.472 115.613 180.164 115.199C179.856 114.784 181.746 114.006 178.624 114.851C175.502 115.697 175.502 114.851 174.404 113.877C173.305 112.903 173.747 112.758 173.66 110.916C173.572 109.074 175.153 108.755 175.81 107.77C176.467 106.784 177.176 106.303 179.723 105.922C182.269 105.542 181.35 106.555 181.35 106.93C181.35 107.305 183.809 107.91 183.809 107.742C183.809 107.574 183.501 106.852 184.077 106.936C184.385 107.02 187.373 107.495 187.373 107.495C188.349 107.361 188.25 106.185 188.152 106.006C188.053 105.827 187.78 105.771 186.919 106.006C186.059 106.241 185.559 105.446 185.512 104.887C185.466 104.327 186.977 104.209 187.402 104.125C187.813 104.113 188.218 104.22 188.564 104.433C188.647 104.464 188.736 104.474 188.823 104.462C188.911 104.45 188.994 104.417 189.064 104.366C191.111 106.456 192.677 108.938 193.662 111.649ZM175.775 100.33C175.972 99.9916 176.21 99.6777 176.485 99.3947C177.159 99.2211 176.845 100.128 176.647 100.33C176.45 100.531 175.775 100.503 175.775 100.33ZM187.338 103.129C187.088 103.129 186.908 102.821 186.756 102.569C186.605 102.317 186.297 102.91 186.204 103.09C186.083 103.371 186.031 103.676 186.053 103.98C186.088 104.293 185.855 104.4 185.681 104.506C185.507 104.612 185.483 104.467 185.326 104.383C185.169 104.299 184.797 104.433 184.635 104.763C184.472 105.094 184.693 105.838 184.635 105.849C184.372 105.787 184.139 105.639 183.978 105.43C183.702 105.023 183.506 104.571 183.396 104.097C183.139 103.649 182.728 103.3 182.234 103.112C181.786 102.961 182.182 103.599 182.234 103.717C182.286 103.834 182.902 104.243 182.937 104.528C182.972 104.814 182.356 105.821 182.507 105.458C182.658 105.094 182.199 104.931 182.071 104.657C181.943 104.383 181.432 104.097 180.996 103.621C180.56 103.146 180.379 103.621 180.089 103.47C179.798 103.319 179.566 103.638 179.298 103.577C179.031 103.515 179.124 103.873 179.101 104.209C179.077 104.545 178.949 104.383 178.519 104.769C178.089 105.155 178.17 105.469 177.938 105.614C177.487 105.829 176.988 105.933 176.485 105.917C175.764 105.917 175.805 105.598 175.828 105.239C175.862 104.791 175.982 104.352 176.182 103.946C176.397 103.504 177.566 103.711 177.804 103.649C178.043 103.588 177.897 103.224 177.897 102.793C177.897 102.362 177.316 102.138 177.112 101.987C176.909 101.836 177.345 101.819 177.874 101.69C178.077 101.657 178.27 101.583 178.441 101.472C178.611 101.361 178.755 101.215 178.862 101.046C179.157 100.66 179.517 100.323 179.926 100.05C180.222 99.8481 180.507 99.7754 180.717 99.6298C180.926 99.4843 181.35 99.8817 181.35 99.8817L182.315 99.7306C184.227 100.567 186.001 101.668 187.582 103C187.512 103.05 187.46 103.129 187.338 103.129ZM166.55 99.1204C166.718 99.2763 166.845 99.4681 166.922 99.6802C167.056 100.15 166.591 100.878 167.021 101.102C167.451 101.326 167.881 102.054 167.55 102.054C167.219 102.054 165.87 101.897 165.998 101.735C166.223 101.474 166.398 101.176 166.515 100.856C166.515 100.649 166.475 100.733 166.009 100.856C165.544 100.979 164.452 100.705 164.207 100.856C163.963 101.007 164.167 101.125 164.353 101.354C164.539 101.584 164.318 101.662 164.405 101.864C164.443 101.961 164.503 102.05 164.582 102.121C164.66 102.193 164.755 102.247 164.858 102.278C165.056 102.317 165.143 102.02 165.329 102.171C165.515 102.323 164.55 102.86 164.283 103.062C164.016 103.263 163.702 103.308 163.789 103.062C163.876 102.815 163.731 102.698 163.626 102.776C163.521 102.854 162.737 103.006 162.574 103.481C162.411 103.957 161.778 104.041 161.516 104.433C161.254 104.825 160.935 105.833 160.394 106.275C159.853 106.717 158.714 106.835 158.778 107.512C158.842 108.19 158.615 109.354 158.58 109.102C158.545 108.85 158.685 108.15 157.999 107.982C157.507 107.791 156.961 107.767 156.453 107.915C156.125 107.957 155.794 107.969 155.465 107.949C157.981 103.85 161.9 100.722 166.55 99.1036V99.1204Z" fill="black"/>
<path d="M121.974 89.4277L124.183 90.0533L122.297 95.3076L120.088 94.6821L121.974 89.4277Z" fill="black"/>
<path d="M136.326 93.491L145.16 95.9881L143.279 101.247L134.44 98.7454L136.326 93.491Z" fill="black"/>
<path d="M126.391 90.679L134.118 92.8658L132.232 98.1202L124.505 95.9334L126.391 90.679Z" fill="black"/>
<path d="M133.972 127.935H134.019L142.827 103.414L118.924 96.6987L107.763 110.56L102 151.455L124.78 155.038C124.682 154.343 124.757 153.637 124.999 152.976L133.972 127.935Z" fill="black"/>
<path d="M161.331 145.029L132.912 135.521L126.516 152.986C126.416 153.217 126.366 153.465 126.369 153.715C126.372 153.965 126.429 154.212 126.535 154.441C126.641 154.669 126.794 154.874 126.986 155.043C127.178 155.212 127.403 155.341 127.649 155.423C128.174 155.614 128.744 155.663 129.296 155.563L158.551 156.794L161.331 145.029Z" fill="black"/>
<path d="M235.624 133.721L220.976 92.2108L199.708 98.7163L215.577 137.309C215.577 137.309 196.351 143.574 191.918 144.955C191.721 145.01 191.565 145.065 191.451 145.105C188.733 146.106 184.124 152.677 190.385 155.114C191.981 155.739 194.766 155.984 198.102 155.994C207.84 155.994 227.632 151.225 227.648 151.215C231.763 150.325 237.775 151.055 240.077 146.661C243.668 139.826 235.624 133.721 235.624 133.721ZM211.95 120.209L204.706 101.419L205.792 101.088L213.036 119.889L211.95 120.209ZM215.068 119.264L207.824 100.458L208.905 100.132L216.159 118.933L215.068 119.264ZM218.513 118.218L211.28 99.4169L212.36 99.0916L219.604 117.892L218.513 118.218ZM221.958 117.172L214.714 98.371L215.795 98.0407L223.039 116.846L221.958 117.172ZM225.403 116.126L218.17 97.3101L219.251 96.9798L226.494 115.786L225.403 116.126Z" fill="black"/>
<path d="M206.368 54.4279L201.203 60.508C200.574 59.1018 194.967 51.2452 193.928 51.0651L151.23 51C151.163 51.1501 154.754 52.5263 156.718 53.2969C159.307 54.3983 161.79 55.7179 164.138 57.2402C169.999 60.8483 176.089 69.6256 179.862 75.1302C178.625 75.5506 174.146 76.6315 174.146 76.6315L175.97 86.2796L182.387 86.4347C182.387 86.4347 189.49 85.9944 192.868 84.5131C193.387 84.2872 193.889 84.0264 194.37 83.7325C192.385 82.011 192.894 76.9718 194.235 75.2553C197.352 71.282 202.6 73.1436 206.742 74.7249C207.235 74.578 207.704 74.364 208.134 74.0894C210.462 72.6432 212.172 69.5856 213.06 67.3337C214.162 64.5414 215.955 60.1827 215.955 60.1827L206.368 54.4279Z" fill="black"/>
<path d="M164.886 60.0074C161.332 57.085 149.297 52.0308 149.297 52.0308C145.452 54.8631 130.227 72.0475 130.227 72.0475C130.227 72.0475 141.02 80.2694 144.408 82.9767C147.006 85.0484 155.497 89.7824 155.497 89.7824C155.497 89.7824 156.51 87.1552 156.624 86.7799C157.393 84.2778 168.29 69.2952 171.085 65.9474C169.132 63.8609 167.063 61.878 164.886 60.0074Z" fill="black"/>
<rect x="0.5" y="0.5" width="621" height="229" fill="white" stroke="#E4E4E4"/>
<path d="M293.87 119.512C293.326 119.224 292.654 118.984 291.854 118.792C291.086 118.6 290.334 118.504 289.598 118.504C288.094 118.504 286.718 118.856 285.47 119.56C284.254 120.232 283.294 121.128 282.59 122.248C281.886 123.368 281.534 124.584 281.534 125.896V139H276.542V113.8H281.534V119.032C282.494 117.336 283.79 115.96 285.422 114.904C287.054 113.816 288.766 113.272 290.558 113.272C291.454 113.272 292.318 113.368 293.15 113.56C294.014 113.72 294.686 113.96 295.166 114.28L293.87 119.512ZM329.091 135.688H329.043C328.211 136.328 327.155 136.952 325.875 137.56C324.627 138.136 323.235 138.6 321.699 138.952C320.195 139.304 318.659 139.48 317.091 139.48C314.019 139.48 311.315 138.936 308.979 137.848C306.675 136.728 304.867 135.208 303.555 133.288C302.275 131.336 301.635 129.128 301.635 126.664C301.635 123.848 302.323 121.448 303.699 119.464C305.075 117.448 306.899 115.912 309.171 114.856C311.443 113.768 313.939 113.224 316.659 113.224C319.155 113.224 321.427 113.752 323.475 114.808C325.523 115.832 327.155 117.256 328.371 119.08C329.587 120.904 330.195 123.032 330.195 125.464L330.147 127.864H306.675C307.059 130.04 308.259 131.768 310.275 133.048C312.291 134.296 314.803 134.92 317.811 134.92C320.051 134.92 321.875 134.584 323.283 133.912C324.723 133.24 325.891 132.6 326.787 131.992L329.091 135.688ZM316.659 117.784C314.195 117.784 312.051 118.248 310.227 119.176C308.435 120.104 307.283 121.688 306.771 123.928H325.155V123.304C325.027 122.216 324.547 121.256 323.715 120.424C322.883 119.592 321.843 118.952 320.595 118.504C319.347 118.024 318.035 117.784 316.659 117.784ZM371.751 105.4L357.303 139H351.591L336.999 105.4H342.903L351.447 125.608C351.927 126.792 352.455 128.056 353.031 129.4C353.639 130.744 354.199 132.04 354.711 133.288C355.159 132.04 355.655 130.76 356.199 129.448C356.743 128.104 357.255 126.84 357.735 125.656L365.655 105.4H371.751ZM404.78 113.8V139H399.788V134.824C399.212 135.592 398.396 136.328 397.34 137.032C396.284 137.736 395.068 138.328 393.692 138.808C392.316 139.256 390.86 139.48 389.324 139.48C386.668 139.48 384.332 138.92 382.316 137.8C380.3 136.68 378.716 135.128 377.564 133.144C376.444 131.16 375.884 128.904 375.884 126.376C375.884 123.816 376.476 121.56 377.66 119.608C378.844 117.624 380.476 116.072 382.556 114.952C384.668 113.832 387.1 113.272 389.852 113.272C392.06 113.272 394.028 113.688 395.756 114.52C397.516 115.32 398.86 116.248 399.788 117.304V113.8H404.78ZM390.428 134.92C392.348 134.92 394.012 134.552 395.42 133.816C396.86 133.048 397.98 132.024 398.78 130.744C399.58 129.464 399.98 128.008 399.98 126.376C399.98 124.744 399.58 123.288 398.78 122.008C397.98 120.728 396.86 119.72 395.42 118.984C394.012 118.248 392.348 117.88 390.428 117.88C388.572 117.88 386.924 118.248 385.484 118.984C384.076 119.72 382.956 120.728 382.124 122.008C381.324 123.288 380.924 124.744 380.924 126.376C380.924 128.008 381.324 129.464 382.124 130.744C382.956 132.024 384.076 133.048 385.484 133.816C386.924 134.552 388.572 134.92 390.428 134.92ZM433.535 113.368C435.711 113.368 437.551 113.832 439.055 114.76C440.591 115.656 441.663 116.984 442.271 118.744C442.879 117.976 443.711 117.176 444.767 116.344C445.823 115.512 447.039 114.808 448.415 114.232C449.791 113.656 451.279 113.368 452.879 113.368C455.375 113.368 457.327 113.864 458.735 114.856C460.175 115.816 461.183 117.112 461.759 118.744C462.367 120.376 462.671 122.184 462.671 124.168V139H457.679V124.696C457.679 122.68 457.231 121.048 456.335 119.8C455.439 118.552 453.903 117.928 451.727 117.928C450.063 117.928 448.575 118.28 447.263 118.984C445.951 119.656 444.911 120.568 444.143 121.72C443.407 122.872 443.039 124.152 443.039 125.56V139H438.047V124.6C438.047 122.648 437.535 121.048 436.511 119.8C435.487 118.552 433.807 117.928 431.471 117.928C429.935 117.928 428.559 118.296 427.343 119.032C426.159 119.736 425.231 120.632 424.559 121.72C423.887 122.776 423.551 123.832 423.551 124.888V139H418.559V113.8H423.551V117.88C424.511 116.728 425.855 115.688 427.583 114.76C429.311 113.832 431.295 113.368 433.535 113.368ZM491.909 113.368C494.597 113.368 496.965 113.928 499.013 115.048C501.061 116.136 502.661 117.656 503.813 119.608C504.965 121.56 505.541 123.816 505.541 126.376C505.541 128.904 504.965 131.16 503.813 133.144C502.661 135.096 501.061 136.632 499.013 137.752C496.997 138.872 494.677 139.432 492.053 139.432C489.813 139.432 487.797 139.016 486.005 138.184C484.213 137.352 482.837 136.424 481.877 135.4V149.56H476.885V113.752H481.877V117.64C482.421 116.936 483.205 116.264 484.229 115.624C485.253 114.952 486.421 114.408 487.733 113.992C489.045 113.576 490.437 113.368 491.909 113.368ZM491.237 117.928C489.349 117.928 487.685 118.296 486.245 119.032C484.805 119.768 483.669 120.776 482.837 122.056C482.037 123.304 481.637 124.744 481.637 126.376C481.637 127.976 482.037 129.416 482.837 130.696C483.669 131.976 484.805 133 486.245 133.768C487.685 134.504 489.349 134.872 491.237 134.872C493.125 134.872 494.773 134.504 496.181 133.768C497.621 133 498.741 131.976 499.541 130.696C500.373 129.416 500.789 127.976 500.789 126.376C500.789 124.744 500.373 123.304 499.541 122.056C498.741 120.776 497.621 119.768 496.181 119.032C494.773 118.296 493.125 117.928 491.237 117.928Z" fill="black"/>
<path d="M171.642 107.909C167.242 107.909 162.941 109.166 159.282 111.52C155.624 113.874 152.773 117.22 151.089 121.135C149.405 125.05 148.964 129.357 149.823 133.513C150.681 137.669 152.8 141.487 155.911 144.483C159.023 147.479 162.987 149.52 167.302 150.346C171.617 151.173 176.09 150.749 180.156 149.127C184.221 147.506 187.695 144.76 190.14 141.236C192.584 137.713 193.889 133.571 193.889 129.334C193.881 123.654 191.535 118.209 187.364 114.192C183.194 110.176 177.54 107.916 171.642 107.909Z" fill="white"/>
<path d="M171.642 107.909C167.242 107.909 162.941 109.166 159.282 111.52C155.624 113.874 152.773 117.22 151.089 121.135C149.405 125.05 148.964 129.357 149.823 133.513C150.681 137.669 152.8 141.487 155.911 144.483C159.023 147.479 162.987 149.52 167.302 150.346C171.617 151.173 176.09 150.749 180.156 149.127C184.221 147.506 187.695 144.76 190.14 141.236C192.584 137.713 193.889 133.571 193.889 129.334C193.881 123.654 191.535 118.209 187.364 114.192C183.194 110.176 177.54 107.916 171.642 107.909ZM152.244 121.127C152.27 121.206 152.282 121.289 152.279 121.373C152.279 121.832 152.43 122.056 153.023 122.117C153.616 122.179 153.813 121.406 154.185 121.373C154.557 121.339 155.011 121.373 154.813 121.675C154.615 121.977 153.906 122.879 154.336 122.991C154.767 123.103 155.499 122.627 155.72 123.198C155.941 123.769 155.604 124.262 155.836 124.407C156.069 124.553 156.266 125.006 156.452 125.073C156.638 125.141 156.865 124.754 156.999 124.883C157.133 125.012 157.394 125.146 157.476 125.118C157.612 125.034 157.738 124.936 157.853 124.827C157.853 124.827 158.778 124.026 159.26 124.194C159.818 124.393 160.409 124.496 161.004 124.497C161.882 124.53 162.016 124.743 162.585 125.252C163.155 125.762 162.585 125.717 163.748 125.846C164.911 125.975 164.277 127.413 165.492 127.525C166.343 127.61 167.176 127.826 167.957 128.164C168.66 128.415 169.846 128.796 169.7 129.513C169.555 130.229 168.538 130.996 168.538 131.506C168.538 132.015 168.666 133.577 168.137 133.874C167.608 134.17 166.341 134.551 166.207 135.061C166.073 135.57 165.986 136.953 165.283 137.468C164.736 137.891 164.244 138.376 163.818 138.912C163.614 139.164 162.911 139.125 162.556 139.629C162.202 140.133 161.458 141.667 161.678 141.868C161.899 142.07 162.603 142.081 162.12 142.545C161.638 143.01 161.812 143.732 161.899 144.225C161.987 144.718 163.347 144.606 163.062 145.07C162.777 145.535 160.644 146.638 160.155 143.335C159.667 140.032 159.626 139.147 159.754 137.664C159.882 136.18 160.196 133.051 159.847 132.799C159.499 132.547 157.912 133.051 156.854 129.625C155.796 126.199 156.987 126.954 157.208 126.702C157.385 126.352 157.49 125.972 157.516 125.583C157.231 125.683 156.921 125.696 156.628 125.621C156.335 125.546 156.073 125.386 155.877 125.163C155.086 124.368 154.557 123.735 153.9 123.539C153.244 123.343 153.47 122.812 152.779 122.94C152.389 122.977 151.995 122.947 151.616 122.851C151.755 122.269 151.988 121.692 152.244 121.127ZM175.496 109.269C175.56 109.321 175.621 109.377 175.676 109.437C175.681 109.628 175.717 109.817 175.781 109.997C175.897 110.3 176.229 110.742 176.508 111.285C176.787 111.828 176.031 112.108 175.345 112.169C174.659 112.231 175.345 111.296 175.461 111.106C175.578 110.915 175.392 110.473 175.345 110.316C175.299 110.16 174.851 109.936 174.764 109.65C174.759 109.558 174.775 109.466 174.81 109.38C174.845 109.294 174.899 109.216 174.967 109.152L175.496 109.269ZM191.662 122.649L191.261 122.924C189.721 124.043 189.087 123.814 189.087 123.814C189.087 122.481 186.994 120.001 186.117 119.559C185.239 119.117 187.721 122.778 188.581 123.875C189.442 124.973 190.075 124.469 190.907 124.278C191.738 124.088 190.325 126.059 189.389 126.966C188.454 127.872 187.32 127.878 187.896 129.994C188.471 132.11 187.5 132.34 186.733 132.793C185.966 133.247 186.338 134.4 185.745 134.652C185.152 134.904 186.25 135.906 184.1 136.958C181.949 138.011 181.484 137.278 181.303 136.455C181.123 135.632 180.141 135.503 180.275 134.4C180.408 133.297 179.525 132.2 179.92 131.69C180.315 131.181 179.92 129.278 179.217 128.516C178.513 127.755 179.217 126.994 179.129 126.613C179.042 126.232 178.472 126.613 178.164 126.199C177.856 125.784 179.746 125.006 176.624 125.851C173.502 126.697 173.502 125.851 172.404 124.877C171.305 123.903 171.747 123.758 171.66 121.916C171.572 120.074 173.153 119.755 173.81 118.77C174.467 117.784 175.176 117.303 177.723 116.922C180.269 116.542 179.35 117.555 179.35 117.93C179.35 118.305 181.809 118.91 181.809 118.742C181.809 118.574 181.501 117.852 182.077 117.936C182.385 118.02 185.373 118.495 185.373 118.495C186.349 118.361 186.25 117.185 186.152 117.006C186.053 116.827 185.78 116.771 184.919 117.006C184.059 117.241 183.559 116.446 183.512 115.887C183.466 115.327 184.977 115.209 185.402 115.125C185.813 115.113 186.218 115.22 186.564 115.433C186.647 115.464 186.736 115.474 186.823 115.462C186.911 115.45 186.994 115.417 187.064 115.366C189.111 117.456 190.677 119.938 191.662 122.649ZM173.775 111.33C173.972 110.992 174.21 110.678 174.485 110.395C175.159 110.221 174.845 111.128 174.647 111.33C174.45 111.531 173.775 111.503 173.775 111.33ZM185.338 114.129C185.088 114.129 184.908 113.821 184.756 113.569C184.605 113.317 184.297 113.91 184.204 114.09C184.083 114.371 184.031 114.676 184.053 114.98C184.088 115.293 183.855 115.4 183.681 115.506C183.507 115.612 183.483 115.467 183.326 115.383C183.169 115.299 182.797 115.433 182.635 115.763C182.472 116.094 182.693 116.838 182.635 116.849C182.372 116.787 182.139 116.639 181.978 116.43C181.702 116.023 181.506 115.571 181.396 115.097C181.139 114.649 180.728 114.3 180.234 114.112C179.786 113.961 180.182 114.599 180.234 114.717C180.286 114.834 180.902 115.243 180.937 115.528C180.972 115.814 180.356 116.821 180.507 116.458C180.658 116.094 180.199 115.931 180.071 115.657C179.943 115.383 179.432 115.097 178.996 114.621C178.56 114.146 178.379 114.621 178.089 114.47C177.798 114.319 177.566 114.638 177.298 114.577C177.031 114.515 177.124 114.873 177.101 115.209C177.077 115.545 176.949 115.383 176.519 115.769C176.089 116.155 176.17 116.469 175.938 116.614C175.487 116.829 174.988 116.933 174.485 116.917C173.764 116.917 173.805 116.598 173.828 116.239C173.862 115.791 173.982 115.352 174.182 114.946C174.397 114.504 175.566 114.711 175.804 114.649C176.043 114.588 175.897 114.224 175.897 113.793C175.897 113.362 175.316 113.138 175.112 112.987C174.909 112.836 175.345 112.819 175.874 112.69C176.077 112.657 176.27 112.583 176.441 112.472C176.611 112.361 176.755 112.215 176.862 112.046C177.157 111.66 177.517 111.323 177.926 111.05C178.222 110.848 178.507 110.775 178.717 110.63C178.926 110.484 179.35 110.882 179.35 110.882L180.315 110.731C182.227 111.567 184.001 112.668 185.582 114C185.512 114.05 185.46 114.129 185.338 114.129ZM164.55 110.12C164.718 110.276 164.845 110.468 164.922 110.68C165.056 111.15 164.591 111.878 165.021 112.102C165.451 112.326 165.881 113.054 165.55 113.054C165.219 113.054 163.87 112.897 163.998 112.735C164.223 112.474 164.398 112.176 164.515 111.856C164.515 111.649 164.475 111.733 164.009 111.856C163.544 111.979 162.452 111.705 162.207 111.856C161.963 112.007 162.167 112.125 162.353 112.354C162.539 112.584 162.318 112.662 162.405 112.864C162.443 112.961 162.503 113.05 162.582 113.121C162.66 113.193 162.755 113.247 162.858 113.278C163.056 113.317 163.143 113.02 163.329 113.171C163.515 113.323 162.55 113.86 162.283 114.062C162.016 114.263 161.702 114.308 161.789 114.062C161.876 113.815 161.731 113.698 161.626 113.776C161.521 113.854 160.737 114.006 160.574 114.481C160.411 114.957 159.778 115.041 159.516 115.433C159.254 115.825 158.935 116.833 158.394 117.275C157.853 117.717 156.714 117.835 156.778 118.512C156.842 119.19 156.615 120.354 156.58 120.102C156.545 119.85 156.685 119.15 155.999 118.982C155.507 118.791 154.961 118.767 154.453 118.915C154.125 118.957 153.794 118.969 153.465 118.949C155.981 114.85 159.9 111.722 164.55 110.104V110.12Z" fill="black"/>
<path d="M119.974 100.428L122.183 101.053L120.297 106.308L118.088 105.682L119.974 100.428Z" fill="black"/>
<path d="M134.326 104.491L143.16 106.988L141.279 112.247L132.44 109.745L134.326 104.491Z" fill="black"/>
<path d="M124.391 101.679L132.118 103.866L130.232 109.12L122.505 106.933L124.391 101.679Z" fill="black"/>
<path d="M131.972 138.935H132.019L140.827 114.414L116.924 107.699L105.763 121.56L100 162.455L122.78 166.038C122.682 165.343 122.757 164.637 122.999 163.976L131.972 138.935Z" fill="black"/>
<path d="M159.331 156.029L130.912 146.521L124.516 163.986C124.416 164.217 124.366 164.465 124.369 164.715C124.372 164.965 124.429 165.212 124.535 165.441C124.641 165.669 124.794 165.874 124.986 166.043C125.178 166.212 125.403 166.341 125.649 166.423C126.174 166.614 126.744 166.663 127.296 166.563L156.551 167.794L159.331 156.029Z" fill="black"/>
<path d="M233.624 144.721L218.976 103.211L197.708 109.716L213.577 148.309C213.577 148.309 194.351 154.574 189.918 155.955C189.721 156.01 189.565 156.065 189.451 156.105C186.733 157.106 182.124 163.677 188.385 166.114C189.981 166.739 192.766 166.984 196.102 166.994C205.84 166.994 225.632 162.225 225.648 162.215C229.763 161.325 235.775 162.055 238.077 157.661C241.668 150.826 233.624 144.721 233.624 144.721ZM209.95 131.209L202.706 112.419L203.792 112.088L211.036 130.889L209.95 131.209ZM213.068 130.264L205.824 111.458L206.905 111.132L214.159 129.933L213.068 130.264ZM216.513 129.218L209.28 110.417L210.36 110.092L217.604 128.892L216.513 129.218ZM219.958 128.172L212.714 109.371L213.795 109.041L221.039 127.846L219.958 128.172ZM223.403 127.126L216.17 108.31L217.251 107.98L224.494 126.786L223.403 127.126Z" fill="black"/>
<path d="M204.368 65.4279L199.203 71.508C198.574 70.1018 192.967 62.2452 191.928 62.0651L149.23 62C149.163 62.1501 152.754 63.5263 154.718 64.2969C157.307 65.3983 159.79 66.7179 162.138 68.2402C167.999 71.8483 174.089 80.6256 177.862 86.1302C176.625 86.5506 172.146 87.6315 172.146 87.6315L173.97 97.2796L180.387 97.4347C180.387 97.4347 187.49 96.9944 190.868 95.5131C191.387 95.2872 191.889 95.0264 192.37 94.7325C190.385 93.011 190.894 87.9718 192.235 86.2553C195.352 82.282 200.6 84.1436 204.742 85.7249C205.235 85.578 205.704 85.364 206.134 85.0894C208.462 83.6432 210.172 80.5856 211.06 78.3337C212.162 75.5414 213.955 71.1827 213.955 71.1827L204.368 65.4279Z" fill="black"/>
<path d="M162.886 71.0074C159.332 68.085 147.297 63.0308 147.297 63.0308C143.452 65.8631 128.227 83.0475 128.227 83.0475C128.227 83.0475 139.02 91.2694 142.408 93.9767C145.006 96.0484 153.497 100.782 153.497 100.782C153.497 100.782 154.51 98.1552 154.624 97.7799C155.393 95.2778 166.29 80.2952 169.085 76.9474C167.132 74.8609 165.063 72.878 162.886 71.0074Z" fill="black"/>
<path d="M3.76 6.28V11.78H11V13.06H3.76V19H2.28V5H11.88V6.28H3.76ZM16.4163 6.28V11.78H23.6563V13.06H16.4163V19H14.9363V5H24.5363V6.28H16.4163ZM29.0725 6.28V11.78H36.3125V13.06H29.0725V19H27.5925V5H37.1925V6.28H29.0725ZM41.7288 6.28V11.78H48.9688V13.06H41.7288V19H40.2488V5H49.8488V6.28H41.7288ZM54.385 6.28V11.78H61.625V13.06H54.385V19H52.905V5H62.505V6.28H54.385ZM67.0413 6.28V11.78H74.2813V13.06H67.0413V19H65.5613V5H75.1613V6.28H67.0413Z" fill="black"/>
</svg>
