<svg width="352" height="230" viewBox="0 0 352 230" fill="none" xmlns="http://www.w3.org/2000/svg">
<rect width="352" height="230" fill="#CCE6F4"/>
<path d="M8.36 19.12C6.97333 19.12 5.72 18.8133 4.6 18.2C3.49333 17.5867 2.62 16.74 1.98 15.66C1.35333 14.5667 1.04 13.3467 1.04 12C1.04 10.6533 1.35333 9.44 1.98 8.36C2.62 7.26667 3.5 6.41333 4.62 5.8C5.74 5.18667 6.99333 4.88 8.38 4.88C9.42 4.88 10.38 5.05333 11.26 5.4C12.14 5.74667 12.8867 6.25333 13.5 6.92L12.56 7.86C11.4667 6.75333 10.0867 6.2 8.42 6.2C7.31333 6.2 6.30667 6.45333 5.4 6.96C4.49333 7.46667 3.78 8.16 3.26 9.04C2.75333 9.92 2.5 10.9067 2.5 12C2.5 13.0933 2.75333 14.08 3.26 14.96C3.78 15.84 4.49333 16.5333 5.4 17.04C6.30667 17.5467 7.31333 17.8 8.42 17.8C10.1 17.8 11.48 17.24 12.56 16.12L13.5 17.06C12.8867 17.7267 12.1333 18.24 11.24 18.6C10.36 18.9467 9.4 19.12 8.36 19.12ZM22.442 19.12C21.0554 19.12 19.802 18.8133 18.682 18.2C17.5754 17.5867 16.702 16.74 16.062 15.66C15.4354 14.5667 15.122 13.3467 15.122 12C15.122 10.6533 15.4354 9.44 16.062 8.36C16.702 7.26667 17.582 6.41333 18.702 5.8C19.822 5.18667 21.0754 4.88 22.462 4.88C23.502 4.88 24.462 5.05333 25.342 5.4C26.222 5.74667 26.9687 6.25333 27.582 6.92L26.642 7.86C25.5487 6.75333 24.1687 6.2 22.502 6.2C21.3954 6.2 20.3887 6.45333 19.482 6.96C18.5754 7.46667 17.862 8.16 17.342 9.04C16.8354 9.92 16.582 10.9067 16.582 12C16.582 13.0933 16.8354 14.08 17.342 14.96C17.862 15.84 18.5754 16.5333 19.482 17.04C20.3887 17.5467 21.3954 17.8 22.502 17.8C24.182 17.8 25.562 17.24 26.642 16.12L27.582 17.06C26.9687 17.7267 26.2154 18.24 25.322 18.6C24.442 18.9467 23.482 19.12 22.442 19.12ZM40.637 17.72V19H30.737V5H40.337V6.28H32.217V11.26H39.457V12.52H32.217V17.72H40.637ZM48.3634 10.62C49.2834 10.62 50.0968 10.7933 50.8034 11.14C51.5234 11.4867 52.0834 11.98 52.4834 12.62C52.8834 13.2467 53.0834 13.98 53.0834 14.82C53.0834 15.6733 52.8768 16.4267 52.4634 17.08C52.0501 17.7333 51.4768 18.24 50.7434 18.6C50.0234 18.9467 49.2101 19.12 48.3034 19.12C46.4501 19.12 45.0301 18.5133 44.0434 17.3C43.0568 16.0733 42.5634 14.3467 42.5634 12.12C42.5634 10.56 42.8301 9.24 43.3634 8.16C43.8968 7.08 44.6434 6.26667 45.6034 5.72C46.5634 5.16 47.6834 4.88 48.9634 4.88C50.3501 4.88 51.4568 5.13333 52.2834 5.64L51.7034 6.8C51.0368 6.36 50.1301 6.14 48.9834 6.14C47.4368 6.14 46.2234 6.63333 45.3434 7.62C44.4634 8.59333 44.0234 10.0133 44.0234 11.88C44.0234 12.2133 44.0434 12.5933 44.0834 13.02C44.4301 12.26 44.9834 11.6733 45.7434 11.26C46.5034 10.8333 47.3768 10.62 48.3634 10.62ZM48.2434 17.9C49.2568 17.9 50.0768 17.6267 50.7034 17.08C51.3434 16.52 51.6634 15.78 51.6634 14.86C51.6634 13.94 51.3434 13.2067 50.7034 12.66C50.0768 12.1133 49.2234 11.84 48.1434 11.84C47.4368 11.84 46.8101 11.9733 46.2634 12.24C45.7301 12.5067 45.3101 12.8733 45.0034 13.34C44.6968 13.8067 44.5434 14.3267 44.5434 14.9C44.5434 15.4333 44.6834 15.9267 44.9634 16.38C45.2568 16.8333 45.6834 17.2 46.2434 17.48C46.8034 17.76 47.4701 17.9 48.2434 17.9ZM57.4709 6.28V11.78H64.7109V13.06H57.4709V19H55.9909V5H65.5909V6.28H57.4709ZM78.3111 15.32H75.5111V19H74.0711V15.32H66.1711V14.28L73.5911 5H75.1911L68.0311 14.04H74.1111V10.8H75.5111V14.04H78.3111V15.32Z" fill="black"/>
<path d="M127.685 167.256C127.413 167.112 127.077 166.992 126.677 166.896C126.293 166.8 125.917 166.752 125.549 166.752C124.797 166.752 124.109 166.928 123.485 167.28C122.877 167.616 122.397 168.064 122.045 168.624C121.693 169.184 121.517 169.792 121.517 170.448V177H119.021V164.4H121.517V167.016C121.997 166.168 122.645 165.48 123.461 164.952C124.277 164.408 125.133 164.136 126.029 164.136C126.477 164.136 126.909 164.184 127.325 164.28C127.757 164.36 128.093 164.48 128.333 164.64L127.685 167.256ZM145.295 175.344H145.271C144.855 175.664 144.327 175.976 143.687 176.28C143.063 176.568 142.367 176.8 141.599 176.976C140.847 177.152 140.079 177.24 139.295 177.24C137.759 177.24 136.407 176.968 135.239 176.424C134.087 175.864 133.183 175.104 132.527 174.144C131.887 173.168 131.567 172.064 131.567 170.832C131.567 169.424 131.911 168.224 132.599 167.232C133.287 166.224 134.199 165.456 135.335 164.928C136.471 164.384 137.719 164.112 139.079 164.112C140.327 164.112 141.463 164.376 142.487 164.904C143.511 165.416 144.327 166.128 144.935 167.04C145.543 167.952 145.847 169.016 145.847 170.232L145.823 171.432H134.087C134.279 172.52 134.879 173.384 135.887 174.024C136.895 174.648 138.151 174.96 139.655 174.96C140.775 174.96 141.687 174.792 142.391 174.456C143.111 174.12 143.695 173.8 144.143 173.496L145.295 175.344ZM139.079 166.392C137.847 166.392 136.775 166.624 135.863 167.088C134.967 167.552 134.391 168.344 134.135 169.464H143.327V169.152C143.263 168.608 143.023 168.128 142.607 167.712C142.191 167.296 141.671 166.976 141.047 166.752C140.423 166.512 139.767 166.392 139.079 166.392ZM166.626 160.2L159.402 177H156.546L149.25 160.2H152.202L156.474 170.304C156.714 170.896 156.978 171.528 157.266 172.2C157.57 172.872 157.85 173.52 158.106 174.144C158.33 173.52 158.578 172.88 158.85 172.224C159.122 171.552 159.378 170.92 159.618 170.328L163.578 160.2H166.626ZM183.14 164.4V177H180.644V174.912C180.356 175.296 179.948 175.664 179.42 176.016C178.892 176.368 178.284 176.664 177.596 176.904C176.908 177.128 176.18 177.24 175.412 177.24C174.084 177.24 172.916 176.96 171.908 176.4C170.9 175.84 170.108 175.064 169.532 174.072C168.972 173.08 168.692 171.952 168.692 170.688C168.692 169.408 168.988 168.28 169.58 167.304C170.172 166.312 170.988 165.536 172.028 164.976C173.084 164.416 174.3 164.136 175.676 164.136C176.78 164.136 177.764 164.344 178.628 164.76C179.508 165.16 180.18 165.624 180.644 166.152V164.4H183.14ZM175.964 174.96C176.924 174.96 177.756 174.776 178.46 174.408C179.18 174.024 179.74 173.512 180.14 172.872C180.54 172.232 180.74 171.504 180.74 170.688C180.74 169.872 180.54 169.144 180.14 168.504C179.74 167.864 179.18 167.36 178.46 166.992C177.756 166.624 176.924 166.44 175.964 166.44C175.036 166.44 174.212 166.624 173.492 166.992C172.788 167.36 172.228 167.864 171.812 168.504C171.412 169.144 171.212 169.872 171.212 170.688C171.212 171.504 171.412 172.232 171.812 172.872C172.228 173.512 172.788 174.024 173.492 174.408C174.212 174.776 175.036 174.96 175.964 174.96ZM197.518 164.184C198.606 164.184 199.526 164.416 200.278 164.88C201.046 165.328 201.582 165.992 201.886 166.872C202.19 166.488 202.606 166.088 203.134 165.672C203.662 165.256 204.27 164.904 204.958 164.616C205.646 164.328 206.39 164.184 207.19 164.184C208.438 164.184 209.414 164.432 210.118 164.928C210.838 165.408 211.342 166.056 211.63 166.872C211.934 167.688 212.086 168.592 212.086 169.584V177H209.59V169.848C209.59 168.84 209.366 168.024 208.918 167.4C208.47 166.776 207.702 166.464 206.614 166.464C205.782 166.464 205.038 166.64 204.382 166.992C203.726 167.328 203.206 167.784 202.822 168.36C202.454 168.936 202.27 169.576 202.27 170.28V177H199.774V169.8C199.774 168.824 199.518 168.024 199.006 167.4C198.494 166.776 197.654 166.464 196.486 166.464C195.718 166.464 195.03 166.648 194.422 167.016C193.83 167.368 193.366 167.816 193.03 168.36C192.694 168.888 192.526 169.416 192.526 169.944V177H190.03V164.4H192.526V166.44C193.006 165.864 193.678 165.344 194.542 164.88C195.406 164.416 196.398 164.184 197.518 164.184ZM226.705 164.184C228.049 164.184 229.233 164.464 230.257 165.024C231.281 165.568 232.081 166.328 232.657 167.304C233.233 168.28 233.521 169.408 233.521 170.688C233.521 171.952 233.233 173.08 232.657 174.072C232.081 175.048 231.281 175.816 230.257 176.376C229.249 176.936 228.089 177.216 226.777 177.216C225.657 177.216 224.649 177.008 223.753 176.592C222.857 176.176 222.169 175.712 221.689 175.2V182.28H219.193V164.376H221.689V166.32C221.961 165.968 222.353 165.632 222.865 165.312C223.377 164.976 223.961 164.704 224.617 164.496C225.273 164.288 225.969 164.184 226.705 164.184ZM226.369 166.464C225.425 166.464 224.593 166.648 223.873 167.016C223.153 167.384 222.585 167.888 222.169 168.528C221.769 169.152 221.569 169.872 221.569 170.688C221.569 171.488 221.769 172.208 222.169 172.848C222.585 173.488 223.153 174 223.873 174.384C224.593 174.752 225.425 174.936 226.369 174.936C227.313 174.936 228.137 174.752 228.841 174.384C229.561 174 230.121 173.488 230.521 172.848C230.937 172.208 231.145 171.488 231.145 170.688C231.145 169.872 230.937 169.152 230.521 168.528C230.121 167.888 229.561 167.384 228.841 167.016C228.137 166.648 227.313 166.464 226.369 166.464Z" fill="#247BA0"/>
<path d="M178.642 91.9091C174.242 91.9091 169.941 93.1656 166.282 95.5197C162.624 97.8739 159.773 101.22 158.089 105.135C156.405 109.05 155.964 113.357 156.823 117.513C157.681 121.669 159.8 125.487 162.911 128.483C166.023 131.479 169.986 133.52 174.302 134.346C178.617 135.173 183.09 134.749 187.156 133.127C191.221 131.506 194.695 128.76 197.14 125.236C199.584 121.713 200.889 117.571 200.889 113.334C200.881 107.654 198.535 102.209 194.364 98.1923C190.194 94.1761 184.54 91.9165 178.642 91.9091Z" fill="#77BD43"/>
<path d="M178.642 91.9091C174.242 91.9091 169.941 93.1656 166.282 95.5197C162.624 97.8739 159.773 101.22 158.089 105.135C156.405 109.05 155.964 113.357 156.823 117.513C157.681 121.669 159.8 125.487 162.911 128.483C166.023 131.479 169.986 133.52 174.302 134.346C178.617 135.173 183.09 134.749 187.156 133.127C191.221 131.506 194.695 128.76 197.14 125.236C199.584 121.713 200.889 117.571 200.889 113.334C200.881 107.654 198.535 102.209 194.364 98.1923C190.194 94.1761 184.54 91.9165 178.642 91.9091ZM159.244 105.127C159.27 105.206 159.282 105.289 159.279 105.373C159.279 105.832 159.43 106.056 160.023 106.117C160.616 106.179 160.813 105.406 161.185 105.373C161.557 105.339 162.011 105.373 161.813 105.675C161.615 105.977 160.906 106.879 161.336 106.991C161.767 107.103 162.499 106.627 162.72 107.198C162.941 107.769 162.604 108.262 162.836 108.407C163.069 108.553 163.266 109.006 163.452 109.073C163.638 109.141 163.865 108.754 163.999 108.883C164.133 109.012 164.394 109.146 164.476 109.118C164.612 109.034 164.738 108.936 164.853 108.827C164.853 108.827 165.778 108.026 166.26 108.194C166.818 108.393 167.409 108.496 168.004 108.497C168.882 108.53 169.016 108.743 169.585 109.252C170.155 109.762 169.585 109.717 170.748 109.846C171.91 109.975 171.277 111.413 172.492 111.525C173.343 111.61 174.176 111.826 174.957 112.164C175.66 112.415 176.846 112.796 176.7 113.513C176.555 114.229 175.538 114.996 175.538 115.506C175.538 116.015 175.666 117.577 175.137 117.874C174.608 118.17 173.341 118.551 173.207 119.061C173.073 119.57 172.986 120.953 172.283 121.468C171.736 121.891 171.244 122.376 170.818 122.912C170.614 123.164 169.911 123.125 169.556 123.629C169.202 124.133 168.458 125.667 168.678 125.868C168.899 126.07 169.603 126.081 169.12 126.545C168.638 127.01 168.812 127.732 168.899 128.225C168.987 128.718 170.347 128.606 170.062 129.07C169.777 129.535 167.644 130.638 167.155 127.335C166.667 124.032 166.626 123.147 166.754 121.664C166.882 120.18 167.196 117.051 166.847 116.799C166.498 116.547 164.912 117.051 163.854 113.625C162.796 110.199 163.987 110.954 164.208 110.702C164.385 110.352 164.49 109.972 164.516 109.583C164.231 109.683 163.921 109.696 163.628 109.621C163.335 109.546 163.073 109.386 162.877 109.163C162.086 108.368 161.557 107.735 160.9 107.539C160.244 107.343 160.47 106.812 159.779 106.94C159.389 106.977 158.995 106.947 158.616 106.851C158.755 106.269 158.988 105.692 159.244 105.127ZM182.496 93.2694C182.56 93.3212 182.621 93.3773 182.676 93.4374C182.681 93.628 182.717 93.8168 182.781 93.9972C182.897 94.2995 183.229 94.7418 183.508 95.2848C183.787 95.8278 183.031 96.1078 182.345 96.1693C181.659 96.2309 182.345 95.296 182.461 95.1057C182.578 94.9153 182.392 94.4731 182.345 94.3163C182.298 94.1596 181.851 93.9356 181.764 93.6501C181.759 93.558 181.775 93.4659 181.81 93.3801C181.845 93.2942 181.899 93.2164 181.967 93.1519L182.496 93.2694ZM198.662 106.649L198.261 106.924C196.721 108.043 196.087 107.814 196.087 107.814C196.087 106.481 193.994 104.001 193.117 103.559C192.239 103.117 194.721 106.778 195.581 107.875C196.442 108.973 197.075 108.469 197.907 108.278C198.738 108.088 197.325 110.059 196.389 110.966C195.454 111.872 194.32 111.878 194.895 113.994C195.471 116.11 194.5 116.34 193.733 116.793C192.966 117.247 193.338 118.4 192.745 118.652C192.152 118.904 193.25 119.906 191.1 120.958C188.949 122.011 188.484 121.278 188.303 120.455C188.123 119.632 187.141 119.503 187.275 118.4C187.408 117.297 186.525 116.2 186.92 115.69C187.315 115.181 186.92 113.278 186.217 112.516C185.513 111.755 186.217 110.994 186.129 110.613C186.042 110.232 185.472 110.613 185.164 110.199C184.856 109.784 186.746 109.006 183.624 109.851C180.502 110.697 180.502 109.851 179.404 108.877C178.305 107.903 178.747 107.758 178.66 105.916C178.572 104.074 180.153 103.755 180.81 102.77C181.467 101.784 182.176 101.303 184.723 100.922C187.269 100.542 186.35 101.555 186.35 101.93C186.35 102.305 188.809 102.91 188.809 102.742C188.809 102.574 188.501 101.852 189.077 101.936C189.385 102.02 192.373 102.495 192.373 102.495C193.349 102.361 193.25 101.185 193.152 101.006C193.053 100.827 192.78 100.771 191.919 101.006C191.059 101.241 190.559 100.446 190.512 99.8866C190.466 99.3268 191.977 99.2092 192.402 99.1252C192.813 99.1131 193.218 99.2204 193.564 99.4331C193.647 99.464 193.736 99.474 193.823 99.4622C193.911 99.4505 193.994 99.4173 194.064 99.3659C196.111 101.456 197.677 103.938 198.662 106.649ZM180.775 95.3296C180.972 94.9916 181.21 94.6777 181.485 94.3947C182.159 94.2211 181.845 95.1281 181.647 95.3296C181.45 95.5311 180.775 95.5031 180.775 95.3296ZM192.338 98.1287C192.088 98.1287 191.908 97.8208 191.756 97.5689C191.605 97.317 191.297 97.9104 191.204 98.0895C191.083 98.3709 191.031 98.6757 191.053 98.9797C191.088 99.2932 190.855 99.3995 190.681 99.5059C190.507 99.6123 190.483 99.4667 190.326 99.3827C190.169 99.2988 189.797 99.4331 189.635 99.7634C189.472 100.094 189.693 100.838 189.635 100.849C189.372 100.787 189.139 100.639 188.978 100.43C188.702 100.023 188.506 99.5714 188.396 99.0972C188.139 98.6487 187.728 98.3004 187.234 98.1119C186.786 97.9608 187.182 98.599 187.234 98.7165C187.286 98.8341 187.902 99.2428 187.937 99.5283C187.972 99.8138 187.356 100.821 187.507 100.458C187.658 100.094 187.199 99.9314 187.071 99.6571C186.943 99.3827 186.432 99.0972 185.996 98.6214C185.56 98.1455 185.379 98.6214 185.089 98.4702C184.798 98.3191 184.566 98.6382 184.298 98.5766C184.031 98.515 184.124 98.8733 184.101 99.2092C184.077 99.5451 183.949 99.3827 183.519 99.769C183.089 100.155 183.17 100.469 182.938 100.614C182.487 100.829 181.988 100.933 181.485 100.917C180.764 100.917 180.805 100.598 180.828 100.239C180.862 99.7908 180.982 99.3524 181.182 98.9461C181.397 98.5038 182.566 98.7109 182.804 98.6494C183.043 98.5878 182.897 98.2239 182.897 97.7928C182.897 97.3618 182.316 97.1378 182.112 96.9867C181.909 96.8355 182.345 96.8187 182.874 96.69C183.077 96.6572 183.27 96.5827 183.441 96.4716C183.611 96.3605 183.755 96.2154 183.862 96.0462C184.157 95.6598 184.517 95.3231 184.926 95.0497C185.222 94.8481 185.507 94.7754 185.717 94.6298C185.926 94.4843 186.35 94.8817 186.35 94.8817L187.315 94.7306C189.227 95.5669 191.001 96.6684 192.582 98C192.512 98.0503 192.46 98.1287 192.338 98.1287ZM171.55 94.1204C171.718 94.2763 171.845 94.4681 171.922 94.6802C172.056 95.1504 171.591 95.8782 172.021 96.1022C172.451 96.3261 172.881 97.0539 172.55 97.0539C172.219 97.0539 170.87 96.8971 170.998 96.7348C171.223 96.4737 171.398 96.1761 171.515 95.8558C171.515 95.6487 171.475 95.7327 171.009 95.8558C170.544 95.979 169.452 95.7047 169.207 95.8558C168.963 96.007 169.167 96.1245 169.353 96.3541C169.539 96.5836 169.318 96.662 169.405 96.8635C169.443 96.9613 169.503 97.0495 169.582 97.1214C169.66 97.1932 169.755 97.2467 169.858 97.2778C170.056 97.317 170.143 97.0203 170.329 97.1714C170.515 97.3226 169.55 97.86 169.283 98.0615C169.016 98.2631 168.702 98.3079 168.789 98.0615C168.876 97.8152 168.731 97.6977 168.626 97.776C168.521 97.8544 167.737 98.0056 167.574 98.4814C167.411 98.9573 166.778 99.0412 166.516 99.4331C166.254 99.825 165.935 100.833 165.394 101.275C164.853 101.717 163.714 101.835 163.778 102.512C163.842 103.19 163.615 104.354 163.58 104.102C163.545 103.85 163.685 103.15 162.999 102.982C162.507 102.791 161.961 102.767 161.453 102.915C161.125 102.957 160.794 102.969 160.464 102.949C162.981 98.8498 166.9 95.7223 171.55 94.1036V94.1204Z" fill="#237CA1"/>
<path d="M126.974 84.4277L129.183 85.0533L127.297 90.3076L125.088 89.6821L126.974 84.4277Z" fill="#247BA0"/>
<path d="M141.326 88.491L150.16 90.9881L148.279 96.2474L139.44 93.7454L141.326 88.491Z" fill="#247BA0"/>
<path d="M131.391 85.679L139.118 87.8658L137.232 93.1202L129.505 90.9334L131.391 85.679Z" fill="#247BA0"/>
<path d="M138.972 122.935H139.019L147.827 98.4144L123.924 91.6987L112.763 105.56L107 146.455L129.78 150.038C129.682 149.343 129.757 148.637 129.999 147.976L138.972 122.935Z" fill="#247BA0"/>
<path d="M166.331 140.029L137.912 130.521L131.516 147.986C131.416 148.217 131.366 148.465 131.369 148.715C131.372 148.965 131.429 149.212 131.535 149.441C131.641 149.669 131.794 149.874 131.986 150.043C132.178 150.212 132.403 150.341 132.649 150.423C133.174 150.614 133.744 150.663 134.296 150.563L163.551 151.794L166.331 140.029Z" fill="#247BA0"/>
<path d="M240.624 128.721L225.976 87.2108L204.708 93.7163L220.577 132.309C220.577 132.309 201.351 138.574 196.918 139.955C196.721 140.01 196.565 140.065 196.451 140.105C193.733 141.106 189.124 147.677 195.385 150.114C196.981 150.739 199.766 150.984 203.102 150.994C212.84 150.994 232.632 146.225 232.648 146.215C236.763 145.325 242.775 146.055 245.077 141.661C248.668 134.826 240.624 128.721 240.624 128.721ZM216.95 115.209L209.706 96.4185L210.792 96.0883L218.036 114.889L216.95 115.209ZM220.068 114.264L212.824 95.4577L213.905 95.1325L221.159 113.933L220.068 114.264ZM223.513 113.218L216.28 94.4169L217.36 94.0916L224.604 112.892L223.513 113.218ZM226.958 112.172L219.714 93.371L220.795 93.0407L228.039 111.846L226.958 112.172ZM230.403 111.126L223.17 92.3101L224.251 91.9798L231.494 110.786L230.403 111.126Z" fill="#247BA0"/>
<path d="M211.368 49.4279L206.203 55.508C205.574 54.1018 199.967 46.2452 198.928 46.0651L156.23 46C156.163 46.1501 159.754 47.5263 161.718 48.2969C164.307 49.3983 166.79 50.7179 169.138 52.2402C174.999 55.8483 181.089 64.6256 184.862 70.1302C183.625 70.5506 179.146 71.6315 179.146 71.6315L180.97 81.2796L187.387 81.4347C187.387 81.4347 194.49 80.9944 197.868 79.5131C198.387 79.2872 198.889 79.0264 199.37 78.7325C197.385 77.011 197.894 71.9718 199.235 70.2553C202.352 66.282 207.6 68.1436 211.742 69.7249C212.235 69.578 212.704 69.364 213.134 69.0894C215.462 67.6432 217.172 64.5856 218.06 62.3337C219.162 59.5414 220.955 55.1827 220.955 55.1827L211.368 49.4279Z" fill="#247BA0"/>
<path d="M169.886 55.0074C166.332 52.085 154.297 47.0308 154.297 47.0308C150.452 49.8631 135.227 67.0475 135.227 67.0475C135.227 67.0475 146.02 75.2694 149.408 77.9767C152.006 80.0484 160.497 84.7824 160.497 84.7824C160.497 84.7824 161.51 82.1552 161.624 81.7799C162.393 79.2778 173.29 64.2952 176.085 60.9474C174.132 58.8609 172.063 56.878 169.886 55.0074Z" fill="#247BA0"/>
</svg>
