<svg width="622" height="230" viewBox="0 0 622 230" fill="none" xmlns="http://www.w3.org/2000/svg">
<rect x="0.5" y="0.5" width="351" height="229" fill="white" stroke="#E4E4E4"/>
<path d="M173.642 96.9091C169.242 96.9091 164.941 98.1656 161.282 100.52C157.624 102.874 154.773 106.22 153.089 110.135C151.405 114.05 150.964 118.357 151.823 122.513C152.681 126.669 154.8 130.487 157.911 133.483C161.023 136.479 164.987 138.52 169.302 139.346C173.617 140.173 178.09 139.749 182.156 138.127C186.221 136.506 189.695 133.76 192.14 130.236C194.584 126.713 195.889 122.571 195.889 118.334C195.881 112.654 193.535 107.209 189.364 103.192C185.194 99.1761 179.54 96.9165 173.642 96.9091Z" fill="white"/>
<path d="M173.642 96.9091C169.242 96.9091 164.941 98.1656 161.282 100.52C157.624 102.874 154.773 106.22 153.089 110.135C151.405 114.05 150.964 118.357 151.823 122.513C152.681 126.669 154.8 130.487 157.911 133.483C161.023 136.479 164.987 138.52 169.302 139.346C173.617 140.173 178.09 139.749 182.156 138.127C186.221 136.506 189.695 133.76 192.14 130.236C194.584 126.713 195.889 122.571 195.889 118.334C195.881 112.654 193.535 107.209 189.364 103.192C185.194 99.1761 179.54 96.9165 173.642 96.9091ZM154.244 110.127C154.27 110.206 154.282 110.289 154.279 110.373C154.279 110.832 154.43 111.056 155.023 111.117C155.616 111.179 155.813 110.406 156.185 110.373C156.557 110.339 157.011 110.373 156.813 110.675C156.615 110.977 155.906 111.879 156.336 111.991C156.767 112.103 157.499 111.627 157.72 112.198C157.941 112.769 157.604 113.262 157.836 113.407C158.069 113.553 158.266 114.006 158.452 114.073C158.638 114.141 158.865 113.754 158.999 113.883C159.133 114.012 159.394 114.146 159.476 114.118C159.612 114.034 159.738 113.936 159.853 113.827C159.853 113.827 160.778 113.026 161.26 113.194C161.818 113.393 162.409 113.496 163.004 113.497C163.882 113.53 164.016 113.743 164.585 114.252C165.155 114.762 164.585 114.717 165.748 114.846C166.911 114.975 166.277 116.413 167.492 116.525C168.343 116.61 169.176 116.826 169.957 117.164C170.66 117.415 171.846 117.796 171.7 118.513C171.555 119.229 170.538 119.996 170.538 120.506C170.538 121.015 170.666 122.577 170.137 122.874C169.608 123.17 168.341 123.551 168.207 124.061C168.073 124.57 167.986 125.953 167.283 126.468C166.736 126.891 166.244 127.376 165.818 127.912C165.614 128.164 164.911 128.125 164.556 128.629C164.202 129.133 163.458 130.667 163.678 130.868C163.899 131.07 164.603 131.081 164.12 131.545C163.638 132.01 163.812 132.732 163.899 133.225C163.987 133.718 165.347 133.606 165.062 134.07C164.777 134.535 162.644 135.638 162.155 132.335C161.667 129.032 161.626 128.147 161.754 126.664C161.882 125.18 162.196 122.051 161.847 121.799C161.499 121.547 159.912 122.051 158.854 118.625C157.796 115.199 158.987 115.954 159.208 115.702C159.385 115.352 159.49 114.972 159.516 114.583C159.231 114.683 158.921 114.696 158.628 114.621C158.335 114.546 158.073 114.386 157.877 114.163C157.086 113.368 156.557 112.735 155.9 112.539C155.244 112.343 155.47 111.812 154.779 111.94C154.389 111.977 153.995 111.947 153.616 111.851C153.755 111.269 153.988 110.692 154.244 110.127ZM177.496 98.2694C177.56 98.3212 177.621 98.3773 177.676 98.4374C177.681 98.628 177.717 98.8168 177.781 98.9972C177.897 99.2995 178.229 99.7418 178.508 100.285C178.787 100.828 178.031 101.108 177.345 101.169C176.659 101.231 177.345 100.296 177.461 100.106C177.578 99.9153 177.392 99.4731 177.345 99.3163C177.299 99.1596 176.851 98.9356 176.764 98.6501C176.759 98.558 176.775 98.4659 176.81 98.3801C176.845 98.2942 176.899 98.2164 176.967 98.1519L177.496 98.2694ZM193.662 111.649L193.261 111.924C191.721 113.043 191.087 112.814 191.087 112.814C191.087 111.481 188.994 109.001 188.117 108.559C187.239 108.117 189.721 111.778 190.581 112.875C191.442 113.973 192.075 113.469 192.907 113.278C193.738 113.088 192.325 115.059 191.389 115.966C190.454 116.872 189.32 116.878 189.896 118.994C190.471 121.11 189.5 121.34 188.733 121.793C187.966 122.247 188.338 123.4 187.745 123.652C187.152 123.904 188.25 124.906 186.1 125.958C183.949 127.011 183.484 126.278 183.303 125.455C183.123 124.632 182.141 124.503 182.275 123.4C182.408 122.297 181.525 121.2 181.92 120.69C182.315 120.181 181.92 118.278 181.217 117.516C180.513 116.755 181.217 115.994 181.129 115.613C181.042 115.232 180.472 115.613 180.164 115.199C179.856 114.784 181.746 114.006 178.624 114.851C175.502 115.697 175.502 114.851 174.404 113.877C173.305 112.903 173.747 112.758 173.66 110.916C173.572 109.074 175.153 108.755 175.81 107.77C176.467 106.784 177.176 106.303 179.723 105.922C182.269 105.542 181.35 106.555 181.35 106.93C181.35 107.305 183.809 107.91 183.809 107.742C183.809 107.574 183.501 106.852 184.077 106.936C184.385 107.02 187.373 107.495 187.373 107.495C188.349 107.361 188.25 106.185 188.152 106.006C188.053 105.827 187.78 105.771 186.919 106.006C186.059 106.241 185.559 105.446 185.512 104.887C185.466 104.327 186.977 104.209 187.402 104.125C187.813 104.113 188.218 104.22 188.564 104.433C188.647 104.464 188.736 104.474 188.823 104.462C188.911 104.45 188.994 104.417 189.064 104.366C191.111 106.456 192.677 108.938 193.662 111.649ZM175.775 100.33C175.972 99.9916 176.21 99.6777 176.485 99.3947C177.159 99.2211 176.845 100.128 176.647 100.33C176.45 100.531 175.775 100.503 175.775 100.33ZM187.338 103.129C187.088 103.129 186.908 102.821 186.756 102.569C186.605 102.317 186.297 102.91 186.204 103.09C186.083 103.371 186.031 103.676 186.053 103.98C186.088 104.293 185.855 104.4 185.681 104.506C185.507 104.612 185.483 104.467 185.326 104.383C185.169 104.299 184.797 104.433 184.635 104.763C184.472 105.094 184.693 105.838 184.635 105.849C184.372 105.787 184.139 105.639 183.978 105.43C183.702 105.023 183.506 104.571 183.396 104.097C183.139 103.649 182.728 103.3 182.234 103.112C181.786 102.961 182.182 103.599 182.234 103.717C182.286 103.834 182.902 104.243 182.937 104.528C182.972 104.814 182.356 105.821 182.507 105.458C182.658 105.094 182.199 104.931 182.071 104.657C181.943 104.383 181.432 104.097 180.996 103.621C180.56 103.146 180.379 103.621 180.089 103.47C179.798 103.319 179.566 103.638 179.298 103.577C179.031 103.515 179.124 103.873 179.101 104.209C179.077 104.545 178.949 104.383 178.519 104.769C178.089 105.155 178.17 105.469 177.938 105.614C177.487 105.829 176.988 105.933 176.485 105.917C175.764 105.917 175.805 105.598 175.828 105.239C175.862 104.791 175.982 104.352 176.182 103.946C176.397 103.504 177.566 103.711 177.804 103.649C178.043 103.588 177.897 103.224 177.897 102.793C177.897 102.362 177.316 102.138 177.112 101.987C176.909 101.836 177.345 101.819 177.874 101.69C178.077 101.657 178.27 101.583 178.441 101.472C178.611 101.361 178.755 101.215 178.862 101.046C179.157 100.66 179.517 100.323 179.926 100.05C180.222 99.8481 180.507 99.7754 180.717 99.6298C180.926 99.4843 181.35 99.8817 181.35 99.8817L182.315 99.7306C184.227 100.567 186.001 101.668 187.582 103C187.512 103.05 187.46 103.129 187.338 103.129ZM166.55 99.1204C166.718 99.2763 166.845 99.4681 166.922 99.6802C167.056 100.15 166.591 100.878 167.021 101.102C167.451 101.326 167.881 102.054 167.55 102.054C167.219 102.054 165.87 101.897 165.998 101.735C166.223 101.474 166.398 101.176 166.515 100.856C166.515 100.649 166.475 100.733 166.009 100.856C165.544 100.979 164.452 100.705 164.207 100.856C163.963 101.007 164.167 101.125 164.353 101.354C164.539 101.584 164.318 101.662 164.405 101.864C164.443 101.961 164.503 102.05 164.582 102.121C164.66 102.193 164.755 102.247 164.858 102.278C165.056 102.317 165.143 102.02 165.329 102.171C165.515 102.323 164.55 102.86 164.283 103.062C164.016 103.263 163.702 103.308 163.789 103.062C163.876 102.815 163.731 102.698 163.626 102.776C163.521 102.854 162.737 103.006 162.574 103.481C162.411 103.957 161.778 104.041 161.516 104.433C161.254 104.825 160.935 105.833 160.394 106.275C159.853 106.717 158.714 106.835 158.778 107.512C158.842 108.19 158.615 109.354 158.58 109.102C158.545 108.85 158.685 108.15 157.999 107.982C157.507 107.791 156.961 107.767 156.453 107.915C156.125 107.957 155.794 107.969 155.465 107.949C157.981 103.85 161.9 100.722 166.55 99.1036V99.1204Z" fill="black"/>
<path d="M121.974 89.4277L124.183 90.0533L122.297 95.3076L120.088 94.6821L121.974 89.4277Z" fill="black"/>
<path d="M136.326 93.491L145.16 95.9881L143.279 101.248L134.44 98.7454L136.326 93.491Z" fill="black"/>
<path d="M126.391 90.679L134.118 92.8658L132.232 98.1202L124.505 95.9334L126.391 90.679Z" fill="black"/>
<path d="M133.972 127.935H134.019L142.827 103.414L118.924 96.6987L107.763 110.56L102 151.455L124.78 155.038C124.682 154.343 124.757 153.637 124.999 152.976L133.972 127.935Z" fill="black"/>
<path d="M161.331 145.029L132.912 135.521L126.516 152.986C126.416 153.217 126.366 153.465 126.369 153.715C126.372 153.965 126.429 154.212 126.535 154.441C126.641 154.669 126.794 154.874 126.986 155.043C127.178 155.212 127.403 155.341 127.649 155.423C128.174 155.614 128.744 155.662 129.296 155.563L158.551 156.794L161.331 145.029Z" fill="black"/>
<path d="M235.624 133.721L220.976 92.2108L199.708 98.7163L215.577 137.309C215.577 137.309 196.351 143.574 191.918 144.955C191.721 145.01 191.565 145.065 191.451 145.105C188.733 146.106 184.124 152.677 190.385 155.114C191.981 155.739 194.766 155.984 198.102 155.994C207.84 155.994 227.632 151.225 227.648 151.215C231.763 150.325 237.775 151.055 240.077 146.661C243.668 139.826 235.624 133.721 235.624 133.721ZM211.95 120.209L204.706 101.419L205.792 101.088L213.036 119.889L211.95 120.209ZM215.068 119.264L207.824 100.458L208.905 100.132L216.159 118.933L215.068 119.264ZM218.513 118.218L211.28 99.4169L212.36 99.0916L219.604 117.892L218.513 118.218ZM221.958 117.172L214.714 98.371L215.795 98.0407L223.039 116.846L221.958 117.172ZM225.403 116.126L218.17 97.3101L219.251 96.9798L226.494 115.786L225.403 116.126Z" fill="black"/>
<path d="M206.368 54.4279L201.203 60.508C200.574 59.1018 194.967 51.2452 193.928 51.0651L151.23 51C151.163 51.1501 154.754 52.5263 156.718 53.2969C159.307 54.3983 161.79 55.7179 164.138 57.2402C169.999 60.8483 176.089 69.6256 179.862 75.1302C178.625 75.5506 174.146 76.6315 174.146 76.6315L175.97 86.2796L182.387 86.4347C182.387 86.4347 189.49 85.9944 192.868 84.5131C193.387 84.2872 193.889 84.0264 194.37 83.7325C192.385 82.011 192.894 76.9718 194.235 75.2553C197.352 71.282 202.6 73.1436 206.742 74.7249C207.235 74.578 207.704 74.364 208.134 74.0894C210.462 72.6432 212.172 69.5856 213.06 67.3337C214.162 64.5414 215.955 60.1827 215.955 60.1827L206.368 54.4279Z" fill="black"/>
<path d="M164.886 60.0074C161.332 57.085 149.297 52.0308 149.297 52.0308C145.452 54.8631 130.227 72.0475 130.227 72.0475C130.227 72.0475 141.02 80.2694 144.408 82.9767C147.006 85.0484 155.497 89.7824 155.497 89.7824C155.497 89.7824 156.51 87.1552 156.624 86.7799C157.393 84.2778 168.29 69.2952 171.085 65.9474C169.132 63.8609 167.063 61.878 164.886 60.0074Z" fill="black"/>
<rect x="0.5" y="0.5" width="621" height="229" fill="#247BA0" stroke="#E4E4E4"/>
<path d="M162.642 107.909C158.242 107.909 153.941 109.166 150.282 111.52C146.624 113.874 143.773 117.22 142.089 121.135C140.405 125.05 139.964 129.357 140.823 133.513C141.681 137.669 143.8 141.487 146.911 144.483C150.023 147.479 153.987 149.52 158.302 150.346C162.617 151.173 167.09 150.749 171.156 149.127C175.221 147.506 178.695 144.76 181.14 141.236C183.584 137.713 184.889 133.571 184.889 129.334C184.881 123.654 182.535 118.209 178.364 114.192C174.194 110.176 168.54 107.916 162.642 107.909Z" fill="#77BD43"/>
<path d="M162.642 107.909C158.242 107.909 153.941 109.166 150.282 111.52C146.624 113.874 143.773 117.22 142.089 121.135C140.405 125.05 139.964 129.357 140.823 133.513C141.681 137.669 143.8 141.487 146.911 144.483C150.023 147.479 153.987 149.52 158.302 150.346C162.617 151.173 167.09 150.749 171.156 149.127C175.221 147.506 178.695 144.76 181.14 141.236C183.584 137.713 184.889 133.571 184.889 129.334C184.881 123.654 182.535 118.209 178.364 114.192C174.194 110.176 168.54 107.916 162.642 107.909ZM143.244 121.127C143.27 121.206 143.282 121.289 143.279 121.373C143.279 121.832 143.43 122.056 144.023 122.117C144.616 122.179 144.813 121.406 145.185 121.373C145.557 121.339 146.011 121.373 145.813 121.675C145.615 121.977 144.906 122.879 145.336 122.991C145.767 123.103 146.499 122.627 146.72 123.198C146.941 123.769 146.604 124.262 146.836 124.407C147.069 124.553 147.266 125.006 147.452 125.073C147.638 125.141 147.865 124.754 147.999 124.883C148.133 125.012 148.394 125.146 148.476 125.118C148.612 125.034 148.738 124.936 148.853 124.827C148.853 124.827 149.778 124.026 150.26 124.194C150.818 124.393 151.409 124.496 152.004 124.497C152.882 124.53 153.016 124.743 153.585 125.252C154.155 125.762 153.585 125.717 154.748 125.846C155.911 125.975 155.277 127.413 156.492 127.525C157.343 127.61 158.176 127.826 158.957 128.164C159.66 128.415 160.846 128.796 160.7 129.513C160.555 130.229 159.538 130.996 159.538 131.506C159.538 132.015 159.666 133.577 159.137 133.874C158.608 134.17 157.341 134.551 157.207 135.061C157.073 135.57 156.986 136.953 156.283 137.468C155.736 137.891 155.244 138.376 154.818 138.912C154.614 139.164 153.911 139.125 153.556 139.629C153.202 140.133 152.458 141.667 152.678 141.868C152.899 142.07 153.603 142.081 153.12 142.545C152.638 143.01 152.812 143.732 152.899 144.225C152.987 144.718 154.347 144.606 154.062 145.07C153.777 145.535 151.644 146.638 151.155 143.335C150.667 140.032 150.626 139.147 150.754 137.664C150.882 136.18 151.196 133.051 150.847 132.799C150.499 132.547 148.912 133.051 147.854 129.625C146.796 126.199 147.987 126.954 148.208 126.702C148.385 126.352 148.49 125.972 148.516 125.583C148.231 125.683 147.921 125.696 147.628 125.621C147.335 125.546 147.073 125.386 146.877 125.163C146.086 124.368 145.557 123.735 144.9 123.539C144.244 123.343 144.47 122.812 143.779 122.94C143.389 122.977 142.995 122.947 142.616 122.851C142.755 122.269 142.988 121.692 143.244 121.127ZM166.496 109.269C166.56 109.321 166.621 109.377 166.676 109.437C166.681 109.628 166.717 109.817 166.781 109.997C166.897 110.3 167.229 110.742 167.508 111.285C167.787 111.828 167.031 112.108 166.345 112.169C165.659 112.231 166.345 111.296 166.461 111.106C166.578 110.915 166.392 110.473 166.345 110.316C166.299 110.16 165.851 109.936 165.764 109.65C165.759 109.558 165.775 109.466 165.81 109.38C165.845 109.294 165.899 109.216 165.967 109.152L166.496 109.269ZM182.662 122.649L182.261 122.924C180.721 124.043 180.087 123.814 180.087 123.814C180.087 122.481 177.994 120.001 177.117 119.559C176.239 119.117 178.721 122.778 179.581 123.875C180.442 124.973 181.075 124.469 181.907 124.278C182.738 124.088 181.325 126.059 180.389 126.966C179.454 127.872 178.32 127.878 178.896 129.994C179.471 132.11 178.5 132.34 177.733 132.793C176.966 133.247 177.338 134.4 176.745 134.652C176.152 134.904 177.25 135.906 175.1 136.958C172.949 138.011 172.484 137.278 172.303 136.455C172.123 135.632 171.141 135.503 171.275 134.4C171.408 133.297 170.525 132.2 170.92 131.69C171.315 131.181 170.92 129.278 170.217 128.516C169.513 127.755 170.217 126.994 170.129 126.613C170.042 126.232 169.472 126.613 169.164 126.199C168.856 125.784 170.746 125.006 167.624 125.851C164.502 126.697 164.502 125.851 163.404 124.877C162.305 123.903 162.747 123.758 162.66 121.916C162.572 120.074 164.153 119.755 164.81 118.77C165.467 117.784 166.176 117.303 168.723 116.922C171.269 116.542 170.35 117.555 170.35 117.93C170.35 118.305 172.809 118.91 172.809 118.742C172.809 118.574 172.501 117.852 173.077 117.936C173.385 118.02 176.373 118.495 176.373 118.495C177.349 118.361 177.25 117.185 177.152 117.006C177.053 116.827 176.78 116.771 175.919 117.006C175.059 117.241 174.559 116.446 174.512 115.887C174.466 115.327 175.977 115.209 176.402 115.125C176.813 115.113 177.218 115.22 177.564 115.433C177.647 115.464 177.736 115.474 177.823 115.462C177.911 115.45 177.994 115.417 178.064 115.366C180.111 117.456 181.677 119.938 182.662 122.649ZM164.775 111.33C164.972 110.992 165.21 110.678 165.485 110.395C166.159 110.221 165.845 111.128 165.647 111.33C165.45 111.531 164.775 111.503 164.775 111.33ZM176.338 114.129C176.088 114.129 175.908 113.821 175.756 113.569C175.605 113.317 175.297 113.91 175.204 114.09C175.083 114.371 175.031 114.676 175.053 114.98C175.088 115.293 174.855 115.4 174.681 115.506C174.507 115.612 174.483 115.467 174.326 115.383C174.169 115.299 173.797 115.433 173.635 115.763C173.472 116.094 173.693 116.838 173.635 116.849C173.372 116.787 173.139 116.639 172.978 116.43C172.702 116.023 172.506 115.571 172.396 115.097C172.139 114.649 171.728 114.3 171.234 114.112C170.786 113.961 171.182 114.599 171.234 114.717C171.286 114.834 171.902 115.243 171.937 115.528C171.972 115.814 171.356 116.821 171.507 116.458C171.658 116.094 171.199 115.931 171.071 115.657C170.943 115.383 170.432 115.097 169.996 114.621C169.56 114.146 169.379 114.621 169.089 114.47C168.798 114.319 168.566 114.638 168.298 114.577C168.031 114.515 168.124 114.873 168.101 115.209C168.077 115.545 167.949 115.383 167.519 115.769C167.089 116.155 167.17 116.469 166.938 116.614C166.487 116.829 165.988 116.933 165.485 116.917C164.764 116.917 164.805 116.598 164.828 116.239C164.862 115.791 164.982 115.352 165.182 114.946C165.397 114.504 166.566 114.711 166.804 114.649C167.043 114.588 166.897 114.224 166.897 113.793C166.897 113.362 166.316 113.138 166.112 112.987C165.909 112.836 166.345 112.819 166.874 112.69C167.077 112.657 167.27 112.583 167.441 112.472C167.611 112.361 167.755 112.215 167.862 112.046C168.157 111.66 168.517 111.323 168.926 111.05C169.222 110.848 169.507 110.775 169.717 110.63C169.926 110.484 170.35 110.882 170.35 110.882L171.315 110.731C173.227 111.567 175.001 112.668 176.582 114C176.512 114.05 176.46 114.129 176.338 114.129ZM155.55 110.12C155.718 110.276 155.845 110.468 155.922 110.68C156.056 111.15 155.591 111.878 156.021 112.102C156.451 112.326 156.881 113.054 156.55 113.054C156.219 113.054 154.87 112.897 154.998 112.735C155.223 112.474 155.398 112.176 155.515 111.856C155.515 111.649 155.475 111.733 155.009 111.856C154.544 111.979 153.452 111.705 153.207 111.856C152.963 112.007 153.167 112.125 153.353 112.354C153.539 112.584 153.318 112.662 153.405 112.864C153.443 112.961 153.503 113.05 153.582 113.121C153.66 113.193 153.755 113.247 153.858 113.278C154.056 113.317 154.143 113.02 154.329 113.171C154.515 113.323 153.55 113.86 153.283 114.062C153.016 114.263 152.702 114.308 152.789 114.062C152.876 113.815 152.731 113.698 152.626 113.776C152.521 113.854 151.737 114.006 151.574 114.481C151.411 114.957 150.778 115.041 150.516 115.433C150.254 115.825 149.935 116.833 149.394 117.275C148.853 117.717 147.714 117.835 147.778 118.512C147.842 119.19 147.615 120.354 147.58 120.102C147.545 119.85 147.685 119.15 146.999 118.982C146.507 118.791 145.961 118.767 145.453 118.915C145.125 118.957 144.794 118.969 144.465 118.949C146.981 114.85 150.9 111.722 155.55 110.104V110.12Z" fill="#134459"/>
<path d="M110.974 100.428L113.183 101.053L111.297 106.308L109.088 105.682L110.974 100.428Z" fill="#CCE6F4"/>
<path d="M125.326 104.491L134.16 106.988L132.279 112.248L123.44 109.745L125.326 104.491Z" fill="#CCE6F4"/>
<path d="M115.391 101.679L123.118 103.866L121.232 109.12L113.505 106.933L115.391 101.679Z" fill="#CCE6F4"/>
<path d="M122.972 138.935H123.019L131.827 114.414L107.924 107.699L96.7626 121.56L91 162.455L113.78 166.038C113.682 165.343 113.757 164.637 113.999 163.976L122.972 138.935Z" fill="#CCE6F4"/>
<path d="M150.331 156.029L121.912 146.521L115.516 163.986C115.416 164.217 115.366 164.465 115.369 164.715C115.372 164.965 115.429 165.212 115.535 165.441C115.641 165.669 115.794 165.874 115.986 166.043C116.178 166.212 116.403 166.341 116.649 166.423C117.174 166.614 117.744 166.662 118.296 166.563L147.551 167.794L150.331 156.029Z" fill="#CCE6F4"/>
<path d="M224.624 144.721L209.976 103.211L188.708 109.716L204.577 148.309C204.577 148.309 185.351 154.574 180.918 155.955C180.721 156.01 180.565 156.065 180.451 156.105C177.733 157.106 173.124 163.677 179.385 166.114C180.981 166.739 183.766 166.984 187.102 166.994C196.84 166.994 216.632 162.225 216.648 162.215C220.763 161.325 226.775 162.055 229.077 157.661C232.668 150.826 224.624 144.721 224.624 144.721ZM200.95 131.209L193.706 112.419L194.792 112.088L202.036 130.889L200.95 131.209ZM204.068 130.264L196.824 111.458L197.905 111.132L205.159 129.933L204.068 130.264ZM207.513 129.218L200.28 110.417L201.36 110.092L208.604 128.892L207.513 129.218ZM210.958 128.172L203.714 109.371L204.795 109.041L212.039 127.846L210.958 128.172ZM214.403 127.126L207.17 108.31L208.251 107.98L215.494 126.786L214.403 127.126Z" fill="#CCE6F4"/>
<path d="M195.368 65.4279L190.203 71.508C189.574 70.1018 183.967 62.2452 182.928 62.0651L140.23 62C140.163 62.1501 143.754 63.5263 145.718 64.2969C148.307 65.3983 150.79 66.7179 153.138 68.2402C158.999 71.8483 165.089 80.6256 168.862 86.1302C167.625 86.5506 163.146 87.6315 163.146 87.6315L164.97 97.2796L171.387 97.4347C171.387 97.4347 178.49 96.9944 181.868 95.5131C182.387 95.2872 182.889 95.0264 183.37 94.7325C181.385 93.011 181.894 87.9718 183.235 86.2553C186.352 82.282 191.6 84.1436 195.742 85.7249C196.235 85.578 196.704 85.364 197.134 85.0894C199.462 83.6432 201.172 80.5856 202.06 78.3337C203.162 75.5414 204.955 71.1827 204.955 71.1827L195.368 65.4279Z" fill="#CCE6F4"/>
<path d="M153.886 71.0074C150.332 68.085 138.297 63.0308 138.297 63.0308C134.452 65.8631 119.227 83.0475 119.227 83.0475C119.227 83.0475 130.02 91.2694 133.408 93.9767C136.006 96.0484 144.497 100.782 144.497 100.782C144.497 100.782 145.51 98.1552 145.624 97.7799C146.393 95.2778 157.29 80.2952 160.085 76.9474C158.132 74.8609 156.063 72.878 153.886 71.0074Z" fill="#CCE6F4"/>
<path d="M293.87 119.512C293.326 119.224 292.654 118.984 291.854 118.792C291.086 118.6 290.334 118.504 289.598 118.504C288.094 118.504 286.718 118.856 285.47 119.56C284.254 120.232 283.294 121.128 282.59 122.248C281.886 123.368 281.534 124.584 281.534 125.896V139H276.542V113.8H281.534V119.032C282.494 117.336 283.79 115.96 285.422 114.904C287.054 113.816 288.766 113.272 290.558 113.272C291.454 113.272 292.318 113.368 293.15 113.56C294.014 113.72 294.686 113.96 295.166 114.28L293.87 119.512ZM329.091 135.688H329.043C328.211 136.328 327.155 136.952 325.875 137.56C324.627 138.136 323.235 138.6 321.699 138.952C320.195 139.304 318.659 139.48 317.091 139.48C314.019 139.48 311.315 138.936 308.979 137.848C306.675 136.728 304.867 135.208 303.555 133.288C302.275 131.336 301.635 129.128 301.635 126.664C301.635 123.848 302.323 121.448 303.699 119.464C305.075 117.448 306.899 115.912 309.171 114.856C311.443 113.768 313.939 113.224 316.659 113.224C319.155 113.224 321.427 113.752 323.475 114.808C325.523 115.832 327.155 117.256 328.371 119.08C329.587 120.904 330.195 123.032 330.195 125.464L330.147 127.864H306.675C307.059 130.04 308.259 131.768 310.275 133.048C312.291 134.296 314.803 134.92 317.811 134.92C320.051 134.92 321.875 134.584 323.283 133.912C324.723 133.24 325.891 132.6 326.787 131.992L329.091 135.688ZM316.659 117.784C314.195 117.784 312.051 118.248 310.227 119.176C308.435 120.104 307.283 121.688 306.771 123.928H325.155V123.304C325.027 122.216 324.547 121.256 323.715 120.424C322.883 119.592 321.843 118.952 320.595 118.504C319.347 118.024 318.035 117.784 316.659 117.784ZM371.751 105.4L357.303 139H351.591L336.999 105.4H342.903L351.447 125.608C351.927 126.792 352.455 128.056 353.031 129.4C353.639 130.744 354.199 132.04 354.711 133.288C355.159 132.04 355.655 130.76 356.199 129.448C356.743 128.104 357.255 126.84 357.735 125.656L365.655 105.4H371.751ZM404.78 113.8V139H399.788V134.824C399.212 135.592 398.396 136.328 397.34 137.032C396.284 137.736 395.068 138.328 393.692 138.808C392.316 139.256 390.86 139.48 389.324 139.48C386.668 139.48 384.332 138.92 382.316 137.8C380.3 136.68 378.716 135.128 377.564 133.144C376.444 131.16 375.884 128.904 375.884 126.376C375.884 123.816 376.476 121.56 377.66 119.608C378.844 117.624 380.476 116.072 382.556 114.952C384.668 113.832 387.1 113.272 389.852 113.272C392.06 113.272 394.028 113.688 395.756 114.52C397.516 115.32 398.86 116.248 399.788 117.304V113.8H404.78ZM390.428 134.92C392.348 134.92 394.012 134.552 395.42 133.816C396.86 133.048 397.98 132.024 398.78 130.744C399.58 129.464 399.98 128.008 399.98 126.376C399.98 124.744 399.58 123.288 398.78 122.008C397.98 120.728 396.86 119.72 395.42 118.984C394.012 118.248 392.348 117.88 390.428 117.88C388.572 117.88 386.924 118.248 385.484 118.984C384.076 119.72 382.956 120.728 382.124 122.008C381.324 123.288 380.924 124.744 380.924 126.376C380.924 128.008 381.324 129.464 382.124 130.744C382.956 132.024 384.076 133.048 385.484 133.816C386.924 134.552 388.572 134.92 390.428 134.92ZM433.535 113.368C435.711 113.368 437.551 113.832 439.055 114.76C440.591 115.656 441.663 116.984 442.271 118.744C442.879 117.976 443.711 117.176 444.767 116.344C445.823 115.512 447.039 114.808 448.415 114.232C449.791 113.656 451.279 113.368 452.879 113.368C455.375 113.368 457.327 113.864 458.735 114.856C460.175 115.816 461.183 117.112 461.759 118.744C462.367 120.376 462.671 122.184 462.671 124.168V139H457.679V124.696C457.679 122.68 457.231 121.048 456.335 119.8C455.439 118.552 453.903 117.928 451.727 117.928C450.063 117.928 448.575 118.28 447.263 118.984C445.951 119.656 444.911 120.568 444.143 121.72C443.407 122.872 443.039 124.152 443.039 125.56V139H438.047V124.6C438.047 122.648 437.535 121.048 436.511 119.8C435.487 118.552 433.807 117.928 431.471 117.928C429.935 117.928 428.559 118.296 427.343 119.032C426.159 119.736 425.231 120.632 424.559 121.72C423.887 122.776 423.551 123.832 423.551 124.888V139H418.559V113.8H423.551V117.88C424.511 116.728 425.855 115.688 427.583 114.76C429.311 113.832 431.295 113.368 433.535 113.368ZM491.909 113.368C494.597 113.368 496.965 113.928 499.013 115.048C501.061 116.136 502.661 117.656 503.813 119.608C504.965 121.56 505.541 123.816 505.541 126.376C505.541 128.904 504.965 131.16 503.813 133.144C502.661 135.096 501.061 136.632 499.013 137.752C496.997 138.872 494.677 139.432 492.053 139.432C489.813 139.432 487.797 139.016 486.005 138.184C484.213 137.352 482.837 136.424 481.877 135.4V149.56H476.885V113.752H481.877V117.64C482.421 116.936 483.205 116.264 484.229 115.624C485.253 114.952 486.421 114.408 487.733 113.992C489.045 113.576 490.437 113.368 491.909 113.368ZM491.237 117.928C489.349 117.928 487.685 118.296 486.245 119.032C484.805 119.768 483.669 120.776 482.837 122.056C482.037 123.304 481.637 124.744 481.637 126.376C481.637 127.976 482.037 129.416 482.837 130.696C483.669 131.976 484.805 133 486.245 133.768C487.685 134.504 489.349 134.872 491.237 134.872C493.125 134.872 494.773 134.504 496.181 133.768C497.621 133 498.741 131.976 499.541 130.696C500.373 129.416 500.789 127.976 500.789 126.376C500.789 124.744 500.373 123.304 499.541 122.056C498.741 120.776 497.621 119.768 496.181 119.032C494.773 118.296 493.125 117.928 491.237 117.928Z" fill="#CCE6F4"/>
</svg>
