<svg width="352" height="230" viewBox="0 0 352 230" fill="none" xmlns="http://www.w3.org/2000/svg">
<rect width="352" height="230" fill="#247BA0"/>
<path d="M10.6 17.72V19H0.78V17.98L6.6 12.28C7.33333 11.56 7.82667 10.94 8.08 10.42C8.34667 9.88667 8.48 9.35333 8.48 8.82C8.48 7.99333 8.19333 7.35333 7.62 6.9C7.06 6.43333 6.25333 6.2 5.2 6.2C3.56 6.2 2.28667 6.72 1.38 7.76L0.36 6.88C0.906667 6.24 1.6 5.74667 2.44 5.4C3.29333 5.05333 4.25333 4.88 5.32 4.88C6.74667 4.88 7.87333 5.22 8.7 5.9C9.54 6.56667 9.96 7.48667 9.96 8.66C9.96 9.38 9.8 10.0733 9.48 10.74C9.16 11.4067 8.55333 12.1733 7.66 13.04L2.9 17.72H10.6ZM23.8384 15.32H21.0384V19H19.5984V15.32H11.6984V14.28L19.1184 5H20.7184L13.5584 14.04H19.6384V10.8H21.0384V14.04H23.8384V15.32ZM34.045 5V6.02L28.185 19H26.625L32.385 6.28H25.185V8.9H23.765V5H34.045ZM46.0023 11.78C46.9223 11.98 47.629 12.38 48.1223 12.98C48.629 13.5667 48.8823 14.3267 48.8823 15.26C48.8823 16.46 48.4357 17.3867 47.5423 18.04C46.6623 18.68 45.3557 19 43.6223 19H37.1823V5H43.2223C44.7823 5 45.989 5.31333 46.8423 5.94C47.709 6.56667 48.1423 7.45333 48.1423 8.6C48.1423 9.37333 47.949 10.0333 47.5623 10.58C47.189 11.1133 46.669 11.5133 46.0023 11.78ZM38.6623 6.22V11.3H43.1223C44.2557 11.3 45.129 11.0867 45.7423 10.66C46.3557 10.22 46.6623 9.58667 46.6623 8.76C46.6623 7.93333 46.3557 7.30667 45.7423 6.88C45.129 6.44 44.2557 6.22 43.1223 6.22H38.6623ZM43.6023 17.78C44.8557 17.78 45.8023 17.5667 46.4423 17.14C47.0823 16.7133 47.4023 16.0467 47.4023 15.14C47.4023 13.3933 46.1357 12.52 43.6023 12.52H38.6623V17.78H43.6023ZM61.0405 15.26H53.2405L51.5605 19H50.0205L56.4205 5H57.8805L64.2805 19H62.7205L61.0405 15.26ZM60.5005 14.06L57.1405 6.54L53.7805 14.06H60.5005ZM70.7997 19.12C69.7197 19.12 68.753 18.8333 67.8997 18.26C67.0597 17.6867 66.3997 16.8667 65.9197 15.8C65.453 14.72 65.2197 13.4533 65.2197 12C65.2197 10.5467 65.453 9.28667 65.9197 8.22C66.3997 7.14 67.0597 6.31333 67.8997 5.74C68.753 5.16667 69.7197 4.88 70.7997 4.88C71.8797 4.88 72.8397 5.16667 73.6797 5.74C74.533 6.31333 75.1997 7.14 75.6797 8.22C76.1597 9.28667 76.3997 10.5467 76.3997 12C76.3997 13.4533 76.1597 14.72 75.6797 15.8C75.1997 16.8667 74.533 17.6867 73.6797 18.26C72.8397 18.8333 71.8797 19.12 70.7997 19.12ZM70.7997 17.8C71.613 17.8 72.3264 17.5733 72.9397 17.12C73.5664 16.6667 74.053 16.0067 74.3997 15.14C74.7464 14.2733 74.9197 13.2267 74.9197 12C74.9197 10.7733 74.7464 9.72667 74.3997 8.86C74.053 7.99333 73.5664 7.33333 72.9397 6.88C72.3264 6.42667 71.613 6.2 70.7997 6.2C69.9864 6.2 69.2664 6.42667 68.6397 6.88C68.0264 7.33333 67.5464 7.99333 67.1997 8.86C66.853 9.72667 66.6797 10.7733 66.6797 12C66.6797 13.2267 66.853 14.2733 67.1997 15.14C67.5464 16.0067 68.0264 16.6667 68.6397 17.12C69.2664 17.5733 69.9864 17.8 70.7997 17.8Z" fill="white"/>
<path d="M123.685 175.256C123.413 175.112 123.077 174.992 122.677 174.896C122.293 174.8 121.917 174.752 121.549 174.752C120.797 174.752 120.109 174.928 119.485 175.28C118.877 175.616 118.397 176.064 118.045 176.624C117.693 177.184 117.517 177.792 117.517 178.448V185H115.021V172.4H117.517V175.016C117.997 174.168 118.645 173.48 119.461 172.952C120.277 172.408 121.133 172.136 122.029 172.136C122.477 172.136 122.909 172.184 123.325 172.28C123.757 172.36 124.093 172.48 124.333 172.64L123.685 175.256ZM141.295 183.344H141.271C140.855 183.664 140.327 183.976 139.687 184.28C139.063 184.568 138.367 184.8 137.599 184.976C136.847 185.152 136.079 185.24 135.295 185.24C133.759 185.24 132.407 184.968 131.239 184.424C130.087 183.864 129.183 183.104 128.527 182.144C127.887 181.168 127.567 180.064 127.567 178.832C127.567 177.424 127.911 176.224 128.599 175.232C129.287 174.224 130.199 173.456 131.335 172.928C132.471 172.384 133.719 172.112 135.079 172.112C136.327 172.112 137.463 172.376 138.487 172.904C139.511 173.416 140.327 174.128 140.935 175.04C141.543 175.952 141.847 177.016 141.847 178.232L141.823 179.432H130.087C130.279 180.52 130.879 181.384 131.887 182.024C132.895 182.648 134.151 182.96 135.655 182.96C136.775 182.96 137.687 182.792 138.391 182.456C139.111 182.12 139.695 181.8 140.143 181.496L141.295 183.344ZM135.079 174.392C133.847 174.392 132.775 174.624 131.863 175.088C130.967 175.552 130.391 176.344 130.135 177.464H139.327V177.152C139.263 176.608 139.023 176.128 138.607 175.712C138.191 175.296 137.671 174.976 137.047 174.752C136.423 174.512 135.767 174.392 135.079 174.392ZM162.626 168.2L155.402 185H152.546L145.25 168.2H148.202L152.474 178.304C152.714 178.896 152.978 179.528 153.266 180.2C153.57 180.872 153.85 181.52 154.106 182.144C154.33 181.52 154.578 180.88 154.85 180.224C155.122 179.552 155.378 178.92 155.618 178.328L159.578 168.2H162.626ZM179.14 172.4V185H176.644V182.912C176.356 183.296 175.948 183.664 175.42 184.016C174.892 184.368 174.284 184.664 173.596 184.904C172.908 185.128 172.18 185.24 171.412 185.24C170.084 185.24 168.916 184.96 167.908 184.4C166.9 183.84 166.108 183.064 165.532 182.072C164.972 181.08 164.692 179.952 164.692 178.688C164.692 177.408 164.988 176.28 165.58 175.304C166.172 174.312 166.988 173.536 168.028 172.976C169.084 172.416 170.3 172.136 171.676 172.136C172.78 172.136 173.764 172.344 174.628 172.76C175.508 173.16 176.18 173.624 176.644 174.152V172.4H179.14ZM171.964 182.96C172.924 182.96 173.756 182.776 174.46 182.408C175.18 182.024 175.74 181.512 176.14 180.872C176.54 180.232 176.74 179.504 176.74 178.688C176.74 177.872 176.54 177.144 176.14 176.504C175.74 175.864 175.18 175.36 174.46 174.992C173.756 174.624 172.924 174.44 171.964 174.44C171.036 174.44 170.212 174.624 169.492 174.992C168.788 175.36 168.228 175.864 167.812 176.504C167.412 177.144 167.212 177.872 167.212 178.688C167.212 179.504 167.412 180.232 167.812 180.872C168.228 181.512 168.788 182.024 169.492 182.408C170.212 182.776 171.036 182.96 171.964 182.96ZM193.518 172.184C194.606 172.184 195.526 172.416 196.278 172.88C197.046 173.328 197.582 173.992 197.886 174.872C198.19 174.488 198.606 174.088 199.134 173.672C199.662 173.256 200.27 172.904 200.958 172.616C201.646 172.328 202.39 172.184 203.19 172.184C204.438 172.184 205.414 172.432 206.118 172.928C206.838 173.408 207.342 174.056 207.63 174.872C207.934 175.688 208.086 176.592 208.086 177.584V185H205.59V177.848C205.59 176.84 205.366 176.024 204.918 175.4C204.47 174.776 203.702 174.464 202.614 174.464C201.782 174.464 201.038 174.64 200.382 174.992C199.726 175.328 199.206 175.784 198.822 176.36C198.454 176.936 198.27 177.576 198.27 178.28V185H195.774V177.8C195.774 176.824 195.518 176.024 195.006 175.4C194.494 174.776 193.654 174.464 192.486 174.464C191.718 174.464 191.03 174.648 190.422 175.016C189.83 175.368 189.366 175.816 189.03 176.36C188.694 176.888 188.526 177.416 188.526 177.944V185H186.03V172.4H188.526V174.44C189.006 173.864 189.678 173.344 190.542 172.88C191.406 172.416 192.398 172.184 193.518 172.184ZM222.705 172.184C224.049 172.184 225.233 172.464 226.257 173.024C227.281 173.568 228.081 174.328 228.657 175.304C229.233 176.28 229.521 177.408 229.521 178.688C229.521 179.952 229.233 181.08 228.657 182.072C228.081 183.048 227.281 183.816 226.257 184.376C225.249 184.936 224.089 185.216 222.777 185.216C221.657 185.216 220.649 185.008 219.753 184.592C218.857 184.176 218.169 183.712 217.689 183.2V190.28H215.193V172.376H217.689V174.32C217.961 173.968 218.353 173.632 218.865 173.312C219.377 172.976 219.961 172.704 220.617 172.496C221.273 172.288 221.969 172.184 222.705 172.184ZM222.369 174.464C221.425 174.464 220.593 174.648 219.873 175.016C219.153 175.384 218.585 175.888 218.169 176.528C217.769 177.152 217.569 177.872 217.569 178.688C217.569 179.488 217.769 180.208 218.169 180.848C218.585 181.488 219.153 182 219.873 182.384C220.593 182.752 221.425 182.936 222.369 182.936C223.313 182.936 224.137 182.752 224.841 182.384C225.561 182 226.121 181.488 226.521 180.848C226.937 180.208 227.145 179.488 227.145 178.688C227.145 177.872 226.937 177.152 226.521 176.528C226.121 175.888 225.561 175.384 224.841 175.016C224.137 174.648 223.313 174.464 222.369 174.464Z" fill="white"/>
<path d="M174.642 93.9091C170.242 93.9091 165.941 95.1656 162.282 97.5197C158.624 99.8739 155.773 103.22 154.089 107.135C152.405 111.05 151.964 115.357 152.823 119.513C153.681 123.669 155.8 127.487 158.911 130.483C162.023 133.479 165.986 135.52 170.302 136.346C174.617 137.173 179.09 136.749 183.156 135.127C187.221 133.506 190.695 130.76 193.14 127.236C195.584 123.713 196.889 119.571 196.889 115.334C196.881 109.654 194.535 104.209 190.364 100.192C186.194 96.1761 180.54 93.9165 174.642 93.9091Z" fill="#77BD43"/>
<path d="M174.642 93.9091C170.242 93.9091 165.941 95.1656 162.282 97.5197C158.624 99.8739 155.773 103.22 154.089 107.135C152.405 111.05 151.964 115.357 152.823 119.513C153.681 123.669 155.8 127.487 158.911 130.483C162.023 133.479 165.986 135.52 170.302 136.346C174.617 137.173 179.09 136.749 183.156 135.127C187.221 133.506 190.695 130.76 193.14 127.236C195.584 123.713 196.889 119.571 196.889 115.334C196.881 109.654 194.535 104.209 190.364 100.192C186.194 96.1761 180.54 93.9165 174.642 93.9091ZM155.244 107.127C155.27 107.206 155.282 107.289 155.279 107.373C155.279 107.832 155.43 108.056 156.023 108.117C156.616 108.179 156.813 107.406 157.185 107.373C157.557 107.339 158.011 107.373 157.813 107.675C157.615 107.977 156.906 108.879 157.336 108.991C157.767 109.103 158.499 108.627 158.72 109.198C158.941 109.769 158.604 110.262 158.836 110.407C159.069 110.553 159.266 111.006 159.452 111.073C159.638 111.141 159.865 110.754 159.999 110.883C160.133 111.012 160.394 111.146 160.476 111.118C160.612 111.034 160.738 110.936 160.853 110.827C160.853 110.827 161.778 110.026 162.26 110.194C162.818 110.393 163.409 110.496 164.004 110.497C164.882 110.53 165.016 110.743 165.585 111.252C166.155 111.762 165.585 111.717 166.748 111.846C167.91 111.975 167.277 113.413 168.492 113.525C169.343 113.61 170.176 113.826 170.957 114.164C171.66 114.415 172.846 114.796 172.7 115.513C172.555 116.229 171.538 116.996 171.538 117.506C171.538 118.015 171.666 119.577 171.137 119.874C170.608 120.17 169.341 120.551 169.207 121.061C169.073 121.57 168.986 122.953 168.283 123.468C167.736 123.891 167.244 124.376 166.818 124.912C166.614 125.164 165.911 125.125 165.556 125.629C165.202 126.133 164.458 127.667 164.678 127.868C164.899 128.07 165.603 128.081 165.12 128.545C164.638 129.01 164.812 129.732 164.899 130.225C164.987 130.718 166.347 130.606 166.062 131.07C165.777 131.535 163.644 132.638 163.155 129.335C162.667 126.032 162.626 125.147 162.754 123.664C162.882 122.18 163.196 119.051 162.847 118.799C162.498 118.547 160.912 119.051 159.854 115.625C158.796 112.199 159.987 112.954 160.208 112.702C160.385 112.352 160.49 111.972 160.516 111.583C160.231 111.683 159.921 111.696 159.628 111.621C159.335 111.546 159.073 111.386 158.877 111.163C158.086 110.368 157.557 109.735 156.9 109.539C156.244 109.343 156.47 108.812 155.779 108.94C155.389 108.977 154.995 108.947 154.616 108.851C154.755 108.269 154.988 107.692 155.244 107.127ZM178.496 95.2694C178.56 95.3212 178.621 95.3773 178.676 95.4374C178.681 95.628 178.717 95.8168 178.781 95.9972C178.897 96.2995 179.229 96.7418 179.508 97.2848C179.787 97.8278 179.031 98.1078 178.345 98.1693C177.659 98.2309 178.345 97.296 178.461 97.1057C178.578 96.9153 178.392 96.4731 178.345 96.3163C178.298 96.1596 177.851 95.9356 177.764 95.6501C177.759 95.558 177.775 95.4659 177.81 95.3801C177.845 95.2942 177.899 95.2164 177.967 95.1519L178.496 95.2694ZM194.662 108.649L194.261 108.924C192.721 110.043 192.087 109.814 192.087 109.814C192.087 108.481 189.994 106.001 189.117 105.559C188.239 105.117 190.721 108.778 191.581 109.875C192.442 110.973 193.075 110.469 193.907 110.278C194.738 110.088 193.325 112.059 192.389 112.966C191.454 113.872 190.32 113.878 190.895 115.994C191.471 118.11 190.5 118.34 189.733 118.793C188.966 119.247 189.338 120.4 188.745 120.652C188.152 120.904 189.25 121.906 187.1 122.958C184.949 124.011 184.484 123.278 184.303 122.455C184.123 121.632 183.141 121.503 183.275 120.4C183.408 119.297 182.525 118.2 182.92 117.69C183.315 117.181 182.92 115.278 182.217 114.516C181.513 113.755 182.217 112.994 182.129 112.613C182.042 112.232 181.472 112.613 181.164 112.199C180.856 111.784 182.746 111.006 179.624 111.851C176.502 112.697 176.502 111.851 175.404 110.877C174.305 109.903 174.747 109.758 174.66 107.916C174.572 106.074 176.153 105.755 176.81 104.77C177.467 103.784 178.176 103.303 180.723 102.922C183.269 102.542 182.35 103.555 182.35 103.93C182.35 104.305 184.809 104.91 184.809 104.742C184.809 104.574 184.501 103.852 185.077 103.936C185.385 104.02 188.373 104.495 188.373 104.495C189.349 104.361 189.25 103.185 189.152 103.006C189.053 102.827 188.78 102.771 187.919 103.006C187.059 103.241 186.559 102.446 186.512 101.887C186.466 101.327 187.977 101.209 188.402 101.125C188.813 101.113 189.218 101.22 189.564 101.433C189.647 101.464 189.736 101.474 189.823 101.462C189.911 101.45 189.994 101.417 190.064 101.366C192.111 103.456 193.677 105.938 194.662 108.649ZM176.775 97.3296C176.972 96.9916 177.21 96.6777 177.485 96.3947C178.159 96.2211 177.845 97.1281 177.647 97.3296C177.45 97.5311 176.775 97.5031 176.775 97.3296ZM188.338 100.129C188.088 100.129 187.908 99.8208 187.756 99.5689C187.605 99.317 187.297 99.9104 187.204 100.09C187.083 100.371 187.031 100.676 187.053 100.98C187.088 101.293 186.855 101.4 186.681 101.506C186.507 101.612 186.483 101.467 186.326 101.383C186.169 101.299 185.797 101.433 185.635 101.763C185.472 102.094 185.693 102.838 185.635 102.849C185.372 102.787 185.139 102.639 184.978 102.43C184.702 102.023 184.506 101.571 184.396 101.097C184.139 100.649 183.728 100.3 183.234 100.112C182.786 99.9608 183.182 100.599 183.234 100.717C183.286 100.834 183.902 101.243 183.937 101.528C183.972 101.814 183.356 102.821 183.507 102.458C183.658 102.094 183.199 101.931 183.071 101.657C182.943 101.383 182.432 101.097 181.996 100.621C181.56 100.146 181.379 100.621 181.089 100.47C180.798 100.319 180.566 100.638 180.298 100.577C180.031 100.515 180.124 100.873 180.101 101.209C180.077 101.545 179.949 101.383 179.519 101.769C179.089 102.155 179.17 102.469 178.938 102.614C178.487 102.829 177.988 102.933 177.485 102.917C176.764 102.917 176.805 102.598 176.828 102.239C176.862 101.791 176.982 101.352 177.182 100.946C177.397 100.504 178.566 100.711 178.804 100.649C179.043 100.588 178.897 100.224 178.897 99.7928C178.897 99.3618 178.316 99.1378 178.112 98.9867C177.909 98.8355 178.345 98.8187 178.874 98.69C179.077 98.6572 179.27 98.5827 179.441 98.4716C179.611 98.3605 179.755 98.2154 179.862 98.0462C180.157 97.6598 180.517 97.3231 180.926 97.0497C181.222 96.8481 181.507 96.7754 181.717 96.6298C181.926 96.4843 182.35 96.8817 182.35 96.8817L183.315 96.7306C185.227 97.5669 187.001 98.6684 188.582 100C188.512 100.05 188.46 100.129 188.338 100.129ZM167.55 96.1204C167.718 96.2763 167.845 96.4681 167.922 96.6802C168.056 97.1504 167.591 97.8782 168.021 98.1022C168.451 98.3261 168.881 99.0539 168.55 99.0539C168.219 99.0539 166.87 98.8971 166.998 98.7348C167.223 98.4737 167.398 98.1761 167.515 97.8558C167.515 97.6487 167.475 97.7327 167.009 97.8558C166.544 97.979 165.452 97.7047 165.207 97.8558C164.963 98.007 165.167 98.1245 165.353 98.3541C165.539 98.5836 165.318 98.662 165.405 98.8635C165.443 98.9613 165.503 99.0495 165.582 99.1214C165.66 99.1932 165.755 99.2467 165.858 99.2778C166.056 99.317 166.143 99.0203 166.329 99.1714C166.515 99.3226 165.55 99.86 165.283 100.062C165.016 100.263 164.702 100.308 164.789 100.062C164.876 99.8152 164.731 99.6977 164.626 99.776C164.521 99.8544 163.737 100.006 163.574 100.481C163.411 100.957 162.778 101.041 162.516 101.433C162.254 101.825 161.935 102.833 161.394 103.275C160.853 103.717 159.714 103.835 159.778 104.512C159.842 105.19 159.615 106.354 159.58 106.102C159.545 105.85 159.685 105.15 158.999 104.982C158.507 104.791 157.961 104.767 157.453 104.915C157.125 104.957 156.794 104.969 156.464 104.949C158.981 100.85 162.9 97.7223 167.55 96.1036V96.1204Z" fill="#134459"/>
<path d="M122.974 86.4277L125.183 87.0533L123.297 92.3076L121.088 91.6821L122.974 86.4277Z" fill="#CCE6F4"/>
<path d="M137.326 90.491L146.16 92.9881L144.279 98.2475L135.44 95.7454L137.326 90.491Z" fill="#CCE6F4"/>
<path d="M127.391 87.679L135.118 89.8658L133.232 95.1202L125.505 92.9334L127.391 87.679Z" fill="#CCE6F4"/>
<path d="M134.972 124.935H135.019L143.827 100.414L119.924 93.6987L108.763 107.56L103 148.455L125.78 152.038C125.682 151.343 125.757 150.637 125.999 149.976L134.972 124.935Z" fill="#CCE6F4"/>
<path d="M162.331 142.029L133.912 132.521L127.516 149.986C127.416 150.217 127.366 150.465 127.369 150.715C127.372 150.965 127.429 151.212 127.535 151.441C127.641 151.669 127.794 151.874 127.986 152.043C128.178 152.212 128.403 152.341 128.649 152.423C129.174 152.614 129.744 152.662 130.296 152.563L159.551 153.794L162.331 142.029Z" fill="#CCE6F4"/>
<path d="M236.624 130.721L221.976 89.2108L200.708 95.7163L216.577 134.309C216.577 134.309 197.351 140.574 192.918 141.955C192.721 142.01 192.565 142.065 192.451 142.105C189.733 143.106 185.124 149.677 191.385 152.114C192.981 152.739 195.766 152.984 199.102 152.994C208.84 152.994 228.632 148.225 228.648 148.215C232.763 147.325 238.775 148.055 241.077 143.661C244.668 136.826 236.624 130.721 236.624 130.721ZM212.95 117.209L205.706 98.4185L206.792 98.0883L214.036 116.889L212.95 117.209ZM216.068 116.264L208.824 97.4577L209.905 97.1325L217.159 115.933L216.068 116.264ZM219.513 115.218L212.28 96.4169L213.36 96.0916L220.604 114.892L219.513 115.218ZM222.958 114.172L215.714 95.371L216.795 95.0407L224.039 113.846L222.958 114.172ZM226.403 113.126L219.17 94.3101L220.251 93.9798L227.494 112.786L226.403 113.126Z" fill="#CCE6F4"/>
<path d="M207.368 51.4279L202.203 57.508C201.574 56.1018 195.967 48.2452 194.928 48.0651L152.23 48C152.163 48.1501 155.754 49.5263 157.718 50.2969C160.307 51.3983 162.79 52.7179 165.138 54.2402C170.999 57.8483 177.089 66.6256 180.862 72.1302C179.625 72.5506 175.146 73.6315 175.146 73.6315L176.97 83.2796L183.387 83.4347C183.387 83.4347 190.49 82.9944 193.868 81.5131C194.387 81.2872 194.889 81.0264 195.37 80.7325C193.385 79.011 193.894 73.9718 195.235 72.2553C198.352 68.282 203.6 70.1436 207.742 71.7249C208.235 71.578 208.704 71.364 209.134 71.0894C211.462 69.6432 213.172 66.5856 214.06 64.3337C215.162 61.5414 216.955 57.1827 216.955 57.1827L207.368 51.4279Z" fill="#CCE6F4"/>
<path d="M165.886 57.0074C162.332 54.085 150.297 49.0308 150.297 49.0308C146.452 51.8631 131.227 69.0475 131.227 69.0475C131.227 69.0475 142.02 77.2694 145.408 79.9767C148.006 82.0484 156.497 86.7824 156.497 86.7824C156.497 86.7824 157.51 84.1552 157.624 83.7799C158.393 81.2778 169.29 66.2952 172.085 62.9474C170.132 60.8609 168.063 58.878 165.886 57.0074Z" fill="#CCE6F4"/>
</svg>
