<svg width="460" height="156" viewBox="0 0 460 156" fill="none" xmlns="http://www.w3.org/2000/svg">
<rect x="25.5" y="25.5" width="409" height="105" stroke="#A9A9A9"/>
<rect x="0.5" y="0.5" width="459" height="155" stroke="#A9A9A9"/>
<path d="M96.6421 70.9091C92.2421 70.9091 87.9409 72.1656 84.2824 74.5197C80.624 76.8739 77.7726 80.22 76.0888 84.1348C74.405 88.0496 73.9644 92.3574 74.8228 96.5133C75.6812 100.669 77.8 104.487 80.9113 107.483C84.0225 110.479 87.9865 112.52 92.3019 113.346C96.6174 114.173 101.09 113.749 105.156 112.127C109.221 110.506 112.695 107.76 115.14 104.236C117.584 100.713 118.889 96.571 118.889 92.3336C118.881 86.6537 116.535 81.2086 112.364 77.1923C108.194 73.1761 102.54 70.9165 96.6421 70.9091Z" fill="#77BD43"/>
<path d="M96.6421 70.9091C92.2421 70.9091 87.9409 72.1656 84.2824 74.5197C80.624 76.8739 77.7726 80.22 76.0888 84.1348C74.405 88.0496 73.9644 92.3574 74.8228 96.5133C75.6812 100.669 77.8 104.487 80.9113 107.483C84.0225 110.479 87.9865 112.52 92.3019 113.346C96.6174 114.173 101.09 113.749 105.156 112.127C109.221 110.506 112.695 107.76 115.14 104.236C117.584 100.713 118.889 96.571 118.889 92.3336C118.881 86.6537 116.535 81.2086 112.364 77.1923C108.194 73.1761 102.54 70.9165 96.6421 70.9091ZM77.2438 84.1266C77.2703 84.206 77.2821 84.2894 77.2786 84.3729C77.2786 84.8319 77.4298 85.0559 78.0227 85.1174C78.6156 85.179 78.8133 84.4065 79.1853 84.3729C79.5574 84.3393 80.0108 84.3729 79.8131 84.6752C79.6155 84.9775 78.9063 85.8788 79.3365 85.9908C79.7666 86.1027 80.4991 85.6269 80.72 86.1979C80.9409 86.7689 80.6037 87.2616 80.8363 87.4071C81.0688 87.5527 81.2664 88.0061 81.4524 88.0733C81.6385 88.1405 81.8652 87.7542 81.9989 87.883C82.1326 88.0117 82.3942 88.1461 82.4755 88.1181C82.6115 88.0338 82.7381 87.9362 82.8534 87.827C82.8534 87.827 83.7777 87.0265 84.2602 87.1944C84.8184 87.3934 85.4088 87.4958 86.0041 87.4967C86.8819 87.5303 87.0156 87.743 87.5853 88.2525C88.1549 88.7619 87.5853 88.7171 88.7479 88.8459C89.9105 88.9746 89.2769 90.4134 90.4918 90.5254C91.3434 90.6103 92.1755 90.8258 92.9566 91.1636C93.66 91.4155 94.8458 91.7962 94.7005 92.5127C94.5552 93.2293 93.5379 93.9963 93.5379 94.5057C93.5379 95.0152 93.6658 96.5771 93.1368 96.8738C92.6078 97.1705 91.3405 97.5512 91.2068 98.0606C91.0731 98.5701 90.9859 99.9528 90.2825 100.468C89.7357 100.891 89.2438 101.376 88.8176 101.912C88.6142 102.164 87.9108 102.125 87.5562 102.629C87.2016 103.133 86.4575 104.667 86.6784 104.868C86.8993 105.07 87.6027 105.081 87.1202 105.545C86.6377 106.01 86.8121 106.732 86.8993 107.225C86.9865 107.718 88.3468 107.606 88.0619 108.07C87.7771 108.535 85.6437 109.638 85.1554 106.335C84.6671 103.032 84.6264 102.147 84.7543 100.664C84.8822 99.1803 85.1961 96.0508 84.8473 95.7989C84.4985 95.547 82.9115 96.0508 81.8535 92.6247C80.7956 89.1986 81.9872 89.9543 82.2081 89.7024C82.385 89.3519 82.4896 88.9716 82.5162 88.5828C82.2312 88.6827 81.9212 88.696 81.6281 88.621C81.3349 88.5459 81.0728 88.386 80.8769 88.1629C80.0864 87.3679 79.5574 86.7353 78.9005 86.5394C78.2436 86.3435 78.4703 85.8116 77.7786 85.9404C77.3886 85.9774 76.9948 85.9471 76.6159 85.8508C76.7555 85.2686 76.988 84.692 77.2438 84.1266ZM100.496 72.2694C100.56 72.3212 100.621 72.3773 100.676 72.4374C100.681 72.628 100.717 72.8168 100.781 72.9972C100.897 73.2995 101.229 73.7418 101.508 74.2848C101.787 74.8278 101.031 75.1078 100.345 75.1693C99.6591 75.2309 100.345 74.296 100.461 74.1057C100.578 73.9153 100.392 73.4731 100.345 73.3163C100.299 73.1596 99.8509 72.9356 99.7637 72.6501C99.7593 72.558 99.7751 72.4659 99.8102 72.3801C99.8452 72.2942 99.8987 72.2164 99.9672 72.1519L100.496 72.2694ZM116.662 85.6493L116.261 85.9236C114.721 87.0432 114.087 86.8137 114.087 86.8137C114.087 85.4813 111.994 83.0013 111.117 82.559C110.239 82.1168 112.721 85.778 113.581 86.8753C114.442 87.9726 115.075 87.4687 115.907 87.2784C116.738 87.088 115.325 89.0586 114.389 89.9655C113.454 90.8724 112.32 90.878 112.896 92.9942C113.471 95.1103 112.5 95.3399 111.733 95.7933C110.966 96.2468 111.338 97.4 110.745 97.6519C110.152 97.9039 111.25 98.906 109.1 99.9584C106.949 101.011 106.484 100.278 106.303 99.4546C106.123 98.6316 105.141 98.5029 105.275 97.4C105.408 96.2972 104.525 95.1999 104.92 94.6905C105.315 94.181 104.92 92.2776 104.217 91.5163C103.513 90.7549 104.217 89.9935 104.129 89.6128C104.042 89.2322 103.472 89.6128 103.164 89.1986C102.856 88.7843 104.746 88.0061 101.624 88.8515C98.5023 89.6968 98.5023 88.8515 97.4036 87.8774C96.3049 86.9033 96.7467 86.7577 96.6595 84.9159C96.5723 83.0741 98.1535 82.755 98.8104 81.7697C99.4672 80.7844 100.176 80.3029 102.723 79.9223C105.269 79.5416 104.35 80.5549 104.35 80.9299C104.35 81.305 106.809 81.9096 106.809 81.7417C106.809 81.5737 106.501 80.8516 107.077 80.9355C107.385 81.0195 110.373 81.4954 110.373 81.4954C111.349 81.361 111.25 80.1854 111.152 80.0062C111.053 79.8271 110.78 79.7711 109.919 80.0062C109.059 80.2414 108.559 79.4464 108.512 78.8866C108.466 78.3268 109.977 78.2092 110.402 78.1252C110.813 78.1131 111.218 78.2204 111.564 78.4331C111.647 78.464 111.736 78.474 111.823 78.4622C111.911 78.4505 111.994 78.4173 112.064 78.3659C114.111 80.456 115.677 82.9376 116.662 85.6493ZM98.7755 74.3296C98.972 73.9916 99.2101 73.6777 99.4847 73.3947C100.159 73.2211 99.8451 74.1281 99.6474 74.3296C99.4498 74.5311 98.7755 74.5031 98.7755 74.3296ZM110.338 77.1287C110.088 77.1287 109.908 76.8208 109.756 76.5689C109.605 76.317 109.297 76.9104 109.204 77.0895C109.083 77.3709 109.031 77.6757 109.053 77.9797C109.088 78.2932 108.855 78.3995 108.681 78.5059C108.507 78.6123 108.483 78.4667 108.326 78.3827C108.169 78.2988 107.797 78.4331 107.635 78.7634C107.472 79.0937 107.693 79.8383 107.635 79.8495C107.372 79.7875 107.139 79.639 106.978 79.4296C106.702 79.0227 106.506 78.5714 106.396 78.0972C106.139 77.6487 105.728 77.3004 105.234 77.1119C104.786 76.9608 105.182 77.599 105.234 77.7165C105.286 77.8341 105.902 78.2428 105.937 78.5283C105.972 78.8138 105.356 79.8215 105.507 79.4576C105.658 79.0937 105.199 78.9314 105.071 78.6571C104.943 78.3827 104.432 78.0972 103.996 77.6214C103.56 77.1455 103.379 77.6214 103.089 77.4702C102.798 77.3191 102.566 77.6382 102.298 77.5766C102.031 77.515 102.124 77.8733 102.101 78.2092C102.077 78.5451 101.949 78.3827 101.519 78.769C101.089 79.1553 101.17 79.4688 100.938 79.6144C100.487 79.8287 99.9875 79.9326 99.4847 79.9167C98.7638 79.9167 98.8045 79.5976 98.8278 79.2393C98.8623 78.7908 98.9825 78.3524 99.1824 77.9461C99.3975 77.5038 100.566 77.7109 100.804 77.6494C101.043 77.5878 100.897 77.2239 100.897 76.7928C100.897 76.3618 100.316 76.1378 100.112 75.9867C99.909 75.8355 100.345 75.8187 100.874 75.69C101.077 75.6572 101.27 75.5827 101.441 75.4716C101.611 75.3605 101.755 75.2154 101.862 75.0462C102.157 74.6598 102.517 74.3231 102.926 74.0497C103.222 73.8481 103.507 73.7754 103.717 73.6298C103.926 73.4843 104.35 73.8817 104.35 73.8817L105.315 73.7306C107.227 74.5669 109.001 75.6684 110.582 77C110.512 77.0503 110.46 77.1287 110.338 77.1287ZM89.5501 73.1204C89.7179 73.2763 89.8454 73.4681 89.9221 73.6802C90.0558 74.1504 89.5908 74.8782 90.0209 75.1022C90.4511 75.3261 90.8813 76.0539 90.5499 76.0539C90.2186 76.0539 88.87 75.8971 88.9978 75.7348C89.2232 75.4737 89.3984 75.1761 89.5152 74.8558C89.5152 74.6487 89.4745 74.7327 89.0095 74.8558C88.5444 74.979 87.4516 74.7047 87.2074 74.8558C86.9633 75.007 87.1667 75.1245 87.3527 75.3541C87.5388 75.5836 87.3179 75.662 87.4051 75.8635C87.4428 75.9613 87.5032 76.0495 87.5818 76.1214C87.6604 76.1932 87.7551 76.2467 87.8585 76.2778C88.0561 76.317 88.1433 76.0203 88.3293 76.1714C88.5154 76.3226 87.5504 76.86 87.283 77.0615C87.0156 77.2631 86.7017 77.3079 86.7889 77.0615C86.8761 76.8152 86.7307 76.6977 86.6261 76.776C86.5215 76.8544 85.7367 77.0056 85.5739 77.4814C85.4112 77.9573 84.7775 78.0412 84.5159 78.4331C84.2544 78.825 83.9346 79.8327 83.394 80.2749C82.8534 80.7172 81.714 80.8348 81.778 81.5122C81.8419 82.1896 81.6152 83.354 81.5803 83.1021C81.5454 82.8501 81.685 82.1504 80.999 81.9824C80.5067 81.7906 79.961 81.7669 79.4527 81.9152C79.1252 81.9574 78.7943 81.9686 78.4645 81.9488C80.9806 77.8498 84.9001 74.7223 89.5501 73.1036V73.1204Z" fill="#247BA0"/>
<path d="M44.9744 63.4277L47.1828 64.0532L45.2966 69.3076L43.0882 68.6821L44.9744 63.4277Z" fill="#388E3C"/>
<path d="M59.3263 67.491L68.1599 69.9881L66.2789 75.2475L57.4401 72.7454L59.3263 67.491Z" fill="#388E3C"/>
<path d="M49.3911 64.6789L57.1179 66.8658L55.2317 72.1202L47.5049 69.9333L49.3911 64.6789Z" fill="#388E3C"/>
<path d="M56.9724 101.935H57.0192L65.8268 77.4143L41.9241 70.6987L30.7626 84.5603L25 125.455L47.7803 129.038C47.6821 128.343 47.7569 127.637 47.9985 126.976L56.9724 101.935Z" fill="#388E3C"/>
<path d="M84.3306 119.029L55.9124 109.521L49.5158 126.986C49.4156 127.217 49.3656 127.465 49.3689 127.715C49.3721 127.965 49.4286 128.212 49.5347 128.441C49.6409 128.669 49.7945 128.874 49.986 129.043C50.1776 129.212 50.4031 129.341 50.6486 129.423C51.174 129.614 51.7438 129.662 52.2958 129.563L81.5506 130.794L84.3306 119.029Z" fill="#388E3C"/>
<path d="M158.624 107.721L143.976 66.2108L122.708 72.7162L138.577 111.309C138.577 111.309 119.351 117.574 114.918 118.955C114.721 119.01 114.565 119.065 114.451 119.105C111.733 120.106 107.124 126.676 113.385 129.114C114.981 129.739 117.766 129.984 121.102 129.994C130.84 129.994 150.632 125.225 150.648 125.215C154.763 124.325 160.775 125.055 163.077 120.661C166.668 113.826 158.624 107.721 158.624 107.721ZM134.95 94.2093L127.706 75.4185L128.792 75.0882L136.036 93.889L134.95 94.2093ZM138.068 93.2635L130.824 74.4577L131.905 74.1324L139.159 92.9332L138.068 93.2635ZM141.513 92.2176L134.28 73.4168L135.36 73.0916L142.604 91.8923L141.513 92.2176ZM144.958 91.1717L137.714 72.371L138.795 72.0407L146.039 90.8464L144.958 91.1717ZM148.403 90.1258L141.17 71.3101L142.251 70.9798L149.494 89.7856L148.403 90.1258Z" fill="#388E3C"/>
<path d="M129.368 28.4279L124.203 34.508C123.574 33.1018 117.967 25.2452 116.928 25.0651L74.2305 25C74.1629 25.1501 77.7535 26.5263 79.7177 27.2969C82.3069 28.3983 84.7899 29.7179 87.1379 31.2402C92.9993 34.8483 99.0893 43.6256 102.862 49.1302C101.625 49.5506 97.1459 50.6315 97.1459 50.6315L98.9697 60.2796L105.387 60.4347C105.387 60.4347 112.49 59.9943 115.868 58.5131C116.387 58.2872 116.889 58.0264 117.37 57.7324C115.385 56.011 115.894 50.9718 117.235 49.2553C120.352 45.282 125.6 47.1436 129.742 48.7249C130.235 48.578 130.704 48.364 131.134 48.0894C133.462 46.6431 135.172 43.5856 136.06 41.3337C137.162 38.5414 138.955 34.1827 138.955 34.1827L129.368 28.4279Z" fill="#388E3C"/>
<path d="M87.8862 34.0074C84.332 31.085 72.2975 26.0307 72.2975 26.0307C68.4523 28.8631 53.2273 46.0475 53.2273 46.0475C53.2273 46.0475 64.0199 54.2694 67.4078 56.9767C70.0059 59.0484 78.4966 63.7824 78.4966 63.7824C78.4966 63.7824 79.5099 61.1552 79.6242 60.7799C80.3932 58.2778 91.2897 43.2952 94.0853 39.9474C92.132 37.8609 90.0626 35.878 87.8862 34.0074Z" fill="#388E3C"/>
<path d="M218.87 82.512C218.326 82.224 217.654 81.984 216.854 81.792C216.086 81.6 215.334 81.504 214.598 81.504C213.094 81.504 211.718 81.856 210.47 82.56C209.254 83.232 208.294 84.128 207.59 85.248C206.886 86.368 206.534 87.584 206.534 88.896V102H201.542V76.8H206.534V82.032C207.494 80.336 208.79 78.96 210.422 77.904C212.054 76.816 213.766 76.272 215.558 76.272C216.454 76.272 217.318 76.368 218.15 76.56C219.014 76.72 219.686 76.96 220.166 77.28L218.87 82.512ZM254.091 98.688H254.043C253.211 99.328 252.155 99.952 250.875 100.56C249.627 101.136 248.235 101.6 246.699 101.952C245.195 102.304 243.659 102.48 242.091 102.48C239.019 102.48 236.315 101.936 233.979 100.848C231.675 99.728 229.867 98.208 228.555 96.288C227.275 94.336 226.635 92.128 226.635 89.664C226.635 86.848 227.323 84.448 228.699 82.464C230.075 80.448 231.899 78.912 234.171 77.856C236.443 76.768 238.939 76.224 241.659 76.224C244.155 76.224 246.427 76.752 248.475 77.808C250.523 78.832 252.155 80.256 253.371 82.08C254.587 83.904 255.195 86.032 255.195 88.464L255.147 90.864H231.675C232.059 93.04 233.259 94.768 235.275 96.048C237.291 97.296 239.803 97.92 242.811 97.92C245.051 97.92 246.875 97.584 248.283 96.912C249.723 96.24 250.891 95.6 251.787 94.992L254.091 98.688ZM241.659 80.784C239.195 80.784 237.051 81.248 235.227 82.176C233.435 83.104 232.283 84.688 231.771 86.928H250.155V86.304C250.027 85.216 249.547 84.256 248.715 83.424C247.883 82.592 246.843 81.952 245.595 81.504C244.347 81.024 243.035 80.784 241.659 80.784ZM296.751 68.4L282.303 102H276.591L261.999 68.4H267.903L276.447 88.608C276.927 89.792 277.455 91.056 278.031 92.4C278.639 93.744 279.199 95.04 279.711 96.288C280.159 95.04 280.655 93.76 281.199 92.448C281.743 91.104 282.255 89.84 282.735 88.656L290.655 68.4H296.751ZM329.78 76.8V102H324.788V97.824C324.212 98.592 323.396 99.328 322.34 100.032C321.284 100.736 320.068 101.328 318.692 101.808C317.316 102.256 315.86 102.48 314.324 102.48C311.668 102.48 309.332 101.92 307.316 100.8C305.3 99.68 303.716 98.128 302.564 96.144C301.444 94.16 300.884 91.904 300.884 89.376C300.884 86.816 301.476 84.56 302.66 82.608C303.844 80.624 305.476 79.072 307.556 77.952C309.668 76.832 312.1 76.272 314.852 76.272C317.06 76.272 319.028 76.688 320.756 77.52C322.516 78.32 323.86 79.248 324.788 80.304V76.8H329.78ZM315.428 97.92C317.348 97.92 319.012 97.552 320.42 96.816C321.86 96.048 322.98 95.024 323.78 93.744C324.58 92.464 324.98 91.008 324.98 89.376C324.98 87.744 324.58 86.288 323.78 85.008C322.98 83.728 321.86 82.72 320.42 81.984C319.012 81.248 317.348 80.88 315.428 80.88C313.572 80.88 311.924 81.248 310.484 81.984C309.076 82.72 307.956 83.728 307.124 85.008C306.324 86.288 305.924 87.744 305.924 89.376C305.924 91.008 306.324 92.464 307.124 93.744C307.956 95.024 309.076 96.048 310.484 96.816C311.924 97.552 313.572 97.92 315.428 97.92ZM358.535 76.368C360.711 76.368 362.551 76.832 364.055 77.76C365.591 78.656 366.663 79.984 367.271 81.744C367.879 80.976 368.711 80.176 369.767 79.344C370.823 78.512 372.039 77.808 373.415 77.232C374.791 76.656 376.279 76.368 377.879 76.368C380.375 76.368 382.327 76.864 383.735 77.856C385.175 78.816 386.183 80.112 386.759 81.744C387.367 83.376 387.671 85.184 387.671 87.168V102H382.679V87.696C382.679 85.68 382.231 84.048 381.335 82.8C380.439 81.552 378.903 80.928 376.727 80.928C375.063 80.928 373.575 81.28 372.263 81.984C370.951 82.656 369.911 83.568 369.143 84.72C368.407 85.872 368.039 87.152 368.039 88.56V102H363.047V87.6C363.047 85.648 362.535 84.048 361.511 82.8C360.487 81.552 358.807 80.928 356.471 80.928C354.935 80.928 353.559 81.296 352.343 82.032C351.159 82.736 350.231 83.632 349.559 84.72C348.887 85.776 348.551 86.832 348.551 87.888V102H343.559V76.8H348.551V80.88C349.511 79.728 350.855 78.688 352.583 77.76C354.311 76.832 356.295 76.368 358.535 76.368ZM416.909 76.368C419.597 76.368 421.965 76.928 424.013 78.048C426.061 79.136 427.661 80.656 428.813 82.608C429.965 84.56 430.541 86.816 430.541 89.376C430.541 91.904 429.965 94.16 428.813 96.144C427.661 98.096 426.061 99.632 424.013 100.752C421.997 101.872 419.677 102.432 417.053 102.432C414.813 102.432 412.797 102.016 411.005 101.184C409.213 100.352 407.837 99.424 406.877 98.4V112.56H401.885V76.752H406.877V80.64C407.421 79.936 408.205 79.264 409.229 78.624C410.253 77.952 411.421 77.408 412.733 76.992C414.045 76.576 415.437 76.368 416.909 76.368ZM416.237 80.928C414.349 80.928 412.685 81.296 411.245 82.032C409.805 82.768 408.669 83.776 407.837 85.056C407.037 86.304 406.637 87.744 406.637 89.376C406.637 90.976 407.037 92.416 407.837 93.696C408.669 94.976 409.805 96 411.245 96.768C412.685 97.504 414.349 97.872 416.237 97.872C418.125 97.872 419.773 97.504 421.181 96.768C422.621 96 423.741 94.976 424.541 93.696C425.373 92.416 425.789 90.976 425.789 89.376C425.789 87.744 425.373 86.304 424.541 85.056C423.741 83.776 422.621 82.768 421.181 82.032C419.773 81.296 418.125 80.928 416.237 80.928Z" fill="#247BA0"/>
</svg>
