<svg width="189" height="186" viewBox="0 0 189 186" fill="none" xmlns="http://www.w3.org/2000/svg">
<path d="M46.1848 145.256C45.9128 145.112 45.5768 144.992 45.1768 144.896C44.7928 144.8 44.4168 144.752 44.0488 144.752C43.2968 144.752 42.6088 144.928 41.9848 145.28C41.3768 145.616 40.8968 146.064 40.5448 146.624C40.1928 147.184 40.0168 147.792 40.0168 148.448V155H37.5208V142.4H40.0168V145.016C40.4968 144.168 41.1448 143.48 41.9608 142.952C42.7768 142.408 43.6328 142.136 44.5288 142.136C44.9768 142.136 45.4088 142.184 45.8248 142.28C46.2568 142.36 46.5928 142.48 46.8328 142.64L46.1848 145.256ZM63.7953 153.344H63.7713C63.3553 153.664 62.8273 153.976 62.1873 154.28C61.5633 154.568 60.8673 154.8 60.0993 154.976C59.3473 155.152 58.5793 155.24 57.7953 155.24C56.2593 155.24 54.9073 154.968 53.7393 154.424C52.5873 153.864 51.6833 153.104 51.0273 152.144C50.3873 151.168 50.0673 150.064 50.0673 148.832C50.0673 147.424 50.4113 146.224 51.0993 145.232C51.7873 144.224 52.6993 143.456 53.8353 142.928C54.9713 142.384 56.2193 142.112 57.5793 142.112C58.8273 142.112 59.9633 142.376 60.9873 142.904C62.0113 143.416 62.8273 144.128 63.4353 145.04C64.0433 145.952 64.3473 147.016 64.3473 148.232L64.3233 149.432H52.5873C52.7793 150.52 53.3793 151.384 54.3873 152.024C55.3953 152.648 56.6513 152.96 58.1553 152.96C59.2753 152.96 60.1873 152.792 60.8913 152.456C61.6113 152.12 62.1953 151.8 62.6433 151.496L63.7953 153.344ZM57.5793 144.392C56.3473 144.392 55.2753 144.624 54.3633 145.088C53.4673 145.552 52.8913 146.344 52.6353 147.464H61.8273V147.152C61.7633 146.608 61.5233 146.128 61.1073 145.712C60.6913 145.296 60.1713 144.976 59.5473 144.752C58.9233 144.512 58.2673 144.392 57.5793 144.392ZM85.1257 138.2L77.9017 155H75.0457L67.7497 138.2H70.7017L74.9737 148.304C75.2137 148.896 75.4777 149.528 75.7657 150.2C76.0697 150.872 76.3497 151.52 76.6057 152.144C76.8297 151.52 77.0777 150.88 77.3497 150.224C77.6217 149.552 77.8777 148.92 78.1177 148.328L82.0777 138.2H85.1257ZM101.64 142.4V155H99.1438V152.912C98.8558 153.296 98.4478 153.664 97.9198 154.016C97.3918 154.368 96.7838 154.664 96.0958 154.904C95.4078 155.128 94.6798 155.24 93.9118 155.24C92.5838 155.24 91.4158 154.96 90.4078 154.4C89.3998 153.84 88.6078 153.064 88.0318 152.072C87.4718 151.08 87.1918 149.952 87.1918 148.688C87.1918 147.408 87.4878 146.28 88.0798 145.304C88.6718 144.312 89.4878 143.536 90.5278 142.976C91.5838 142.416 92.7998 142.136 94.1758 142.136C95.2798 142.136 96.2638 142.344 97.1278 142.76C98.0078 143.16 98.6798 143.624 99.1438 144.152V142.4H101.64ZM94.4638 152.96C95.4238 152.96 96.2558 152.776 96.9598 152.408C97.6798 152.024 98.2398 151.512 98.6398 150.872C99.0398 150.232 99.2398 149.504 99.2398 148.688C99.2398 147.872 99.0398 147.144 98.6398 146.504C98.2398 145.864 97.6798 145.36 96.9598 144.992C96.2558 144.624 95.4238 144.44 94.4638 144.44C93.5358 144.44 92.7118 144.624 91.9918 144.992C91.2878 145.36 90.7278 145.864 90.3118 146.504C89.9118 147.144 89.7118 147.872 89.7118 148.688C89.7118 149.504 89.9118 150.232 90.3118 150.872C90.7278 151.512 91.2878 152.024 91.9918 152.408C92.7118 152.776 93.5358 152.96 94.4638 152.96ZM116.018 142.184C117.106 142.184 118.026 142.416 118.778 142.88C119.546 143.328 120.082 143.992 120.386 144.872C120.69 144.488 121.106 144.088 121.634 143.672C122.162 143.256 122.77 142.904 123.458 142.616C124.146 142.328 124.89 142.184 125.69 142.184C126.938 142.184 127.914 142.432 128.618 142.928C129.338 143.408 129.842 144.056 130.13 144.872C130.434 145.688 130.586 146.592 130.586 147.584V155H128.09V147.848C128.09 146.84 127.866 146.024 127.418 145.4C126.97 144.776 126.202 144.464 125.114 144.464C124.282 144.464 123.538 144.64 122.882 144.992C122.226 145.328 121.706 145.784 121.322 146.36C120.954 146.936 120.77 147.576 120.77 148.28V155H118.274V147.8C118.274 146.824 118.018 146.024 117.506 145.4C116.994 144.776 116.154 144.464 114.986 144.464C114.218 144.464 113.53 144.648 112.922 145.016C112.33 145.368 111.866 145.816 111.53 146.36C111.194 146.888 111.026 147.416 111.026 147.944V155H108.53V142.4H111.026V144.44C111.506 143.864 112.178 143.344 113.042 142.88C113.906 142.416 114.898 142.184 116.018 142.184ZM145.205 142.184C146.549 142.184 147.733 142.464 148.757 143.024C149.781 143.568 150.581 144.328 151.157 145.304C151.733 146.28 152.021 147.408 152.021 148.688C152.021 149.952 151.733 151.08 151.157 152.072C150.581 153.048 149.781 153.816 148.757 154.376C147.749 154.936 146.589 155.216 145.277 155.216C144.157 155.216 143.149 155.008 142.253 154.592C141.357 154.176 140.669 153.712 140.189 153.2V160.28H137.693V142.376H140.189V144.32C140.461 143.968 140.853 143.632 141.365 143.312C141.877 142.976 142.461 142.704 143.117 142.496C143.773 142.288 144.469 142.184 145.205 142.184ZM144.869 144.464C143.925 144.464 143.093 144.648 142.373 145.016C141.653 145.384 141.085 145.888 140.669 146.528C140.269 147.152 140.069 147.872 140.069 148.688C140.069 149.488 140.269 150.208 140.669 150.848C141.085 151.488 141.653 152 142.373 152.384C143.093 152.752 143.925 152.936 144.869 152.936C145.813 152.936 146.637 152.752 147.341 152.384C148.061 152 148.621 151.488 149.021 150.848C149.437 150.208 149.645 149.488 149.645 148.688C149.645 147.872 149.437 147.152 149.021 146.528C148.621 145.888 148.061 145.384 147.341 145.016C146.637 144.648 145.813 144.464 144.869 144.464Z" fill="#247BA0"/>
<path d="M96.6421 70.5644C92.2421 70.5644 87.9409 71.8115 84.2824 74.148C80.624 76.4845 77.7726 79.8054 76.0888 83.6908C74.405 87.5762 73.9644 91.8517 74.8228 95.9764C75.6812 100.101 77.8 103.89 80.9113 106.864C84.0225 109.838 87.9865 111.863 92.3019 112.683C96.6174 113.504 101.09 113.083 105.156 111.473C109.221 109.864 112.695 107.138 115.14 103.642C117.584 100.145 118.889 96.0336 118.889 91.8281C118.881 86.1909 116.535 80.7866 112.364 76.8005C108.194 72.8144 102.54 70.5717 96.6421 70.5644Z" fill="#77BD43"/>
<path d="M96.6421 70.5644C92.2421 70.5644 87.9409 71.8115 84.2824 74.148C80.624 76.4845 77.7726 79.8054 76.0888 83.6908C74.405 87.5762 73.9644 91.8517 74.8228 95.9764C75.6812 100.101 77.8 103.89 80.9113 106.864C84.0225 109.838 87.9865 111.863 92.3019 112.683C96.6174 113.504 101.09 113.083 105.156 111.473C109.221 109.864 112.695 107.138 115.14 103.642C117.584 100.145 118.889 96.0336 118.889 91.8281C118.881 86.1909 116.535 80.7866 112.364 76.8005C108.194 72.8144 102.54 70.5717 96.6421 70.5644ZM77.2438 83.6826C77.2703 83.7615 77.2821 83.8443 77.2786 83.9271C77.2786 84.3827 77.4298 84.605 78.0227 84.6661C78.6156 84.7272 78.8133 83.9605 79.1853 83.9271C79.5574 83.8938 80.0108 83.9271 79.8131 84.2272C79.6155 84.5272 78.9063 85.4217 79.3365 85.5329C79.7666 85.644 80.4991 85.1717 80.72 85.7385C80.9409 86.3052 80.6037 86.7941 80.8363 86.9386C81.0688 87.0831 81.2664 87.5331 81.4524 87.5998C81.6385 87.6665 81.8652 87.2831 81.9989 87.4109C82.1326 87.5387 82.3942 87.672 82.4755 87.6442C82.6115 87.5606 82.7381 87.4637 82.8534 87.3553C82.8534 87.3553 83.7777 86.5608 84.2602 86.7275C84.8184 86.925 85.4088 87.0266 86.0041 87.0275C86.8819 87.0608 87.0156 87.272 87.5853 87.7776C88.1549 88.2832 87.5853 88.2388 88.7479 88.3665C89.9105 88.4943 89.2769 89.9223 90.4918 90.0334C91.3434 90.1178 92.1755 90.3316 92.9566 90.6668C93.66 90.9169 94.8458 91.2947 94.7005 92.0059C94.5552 92.7171 93.5379 93.4783 93.5379 93.9839C93.5379 94.4895 93.6658 96.0397 93.1368 96.3342C92.6078 96.6287 91.3405 97.0065 91.2068 97.5121C91.0731 98.0177 90.9859 99.3901 90.2825 99.9013C89.7357 100.321 89.2438 100.802 88.8176 101.335C88.6142 101.585 87.9108 101.546 87.5562 102.046C87.2016 102.546 86.4575 104.068 86.6784 104.268C86.8993 104.469 87.6027 104.48 87.1202 104.941C86.6377 105.402 86.8121 106.119 86.8993 106.608C86.9865 107.097 88.3468 106.985 88.0619 107.447C87.7771 107.908 85.6437 109.002 85.1554 105.724C84.6671 102.446 84.6264 101.568 84.7543 100.096C84.8822 98.6233 85.1961 95.5174 84.8473 95.2674C84.4985 95.0174 82.9115 95.5174 81.8535 92.117C80.7956 88.7166 81.9872 89.4667 82.2081 89.2167C82.385 88.8687 82.4896 88.4914 82.5162 88.1054C82.2312 88.2046 81.9212 88.2178 81.6281 88.1433C81.3349 88.0688 81.0728 87.9101 80.8769 87.6887C80.0864 86.8997 79.5574 86.2719 78.9005 86.0774C78.2436 85.8829 78.4703 85.3551 77.7786 85.4829C77.3886 85.5196 76.9948 85.4895 76.6159 85.394C76.7555 84.8161 76.988 84.2438 77.2438 83.6826ZM100.496 71.9146C100.56 71.9659 100.621 72.0216 100.676 72.0812C100.681 72.2705 100.717 72.4578 100.781 72.6369C100.897 72.9369 101.229 73.3758 101.508 73.9148C101.787 74.4537 101.031 74.7316 100.345 74.7927C99.6591 74.8538 100.345 73.9259 100.461 73.737C100.578 73.5481 100.392 73.1091 100.345 72.9536C100.299 72.798 99.8509 72.5757 99.7637 72.2924C99.7593 72.2009 99.7751 72.1096 99.8102 72.0243C99.8452 71.9391 99.8987 71.862 99.9672 71.7979L100.496 71.9146ZM116.662 85.1939L116.261 85.4662C114.721 86.5774 114.087 86.3496 114.087 86.3496C114.087 85.0273 111.994 82.5658 111.117 82.1269C110.239 81.688 112.721 85.3217 113.581 86.4108C114.442 87.4998 115.075 86.9997 115.907 86.8108C116.738 86.6219 115.325 88.5777 114.389 89.4778C113.454 90.3779 112.32 90.3835 112.896 92.4837C113.471 94.584 112.5 94.8118 111.733 95.2618C110.966 95.7119 111.338 96.8565 110.745 97.1065C110.152 97.3565 111.25 98.3511 109.1 99.3957C106.949 100.44 106.484 99.7124 106.303 98.8956C106.123 98.0788 105.141 97.951 105.275 96.8565C105.408 95.7619 104.525 94.6729 104.92 94.1673C105.315 93.6616 104.92 91.7725 104.217 91.0169C103.513 90.2612 104.217 89.5056 104.129 89.1278C104.042 88.7499 103.472 89.1278 103.164 88.7166C102.856 88.3054 104.746 87.5331 101.624 88.3721C98.5023 89.2111 98.5023 88.3721 97.4036 87.4053C96.3049 86.4385 96.7467 86.2941 96.6595 84.4661C96.5723 82.6381 98.1535 82.3214 98.8104 81.3435C99.4672 80.3656 100.176 79.8877 102.723 79.5099C105.269 79.1321 104.35 80.1378 104.35 80.51C104.35 80.8823 106.809 81.4824 106.809 81.3157C106.809 81.149 106.501 80.4323 107.077 80.5156C107.385 80.5989 110.373 81.0712 110.373 81.0712C111.349 80.9379 111.25 79.7711 111.152 79.5933C111.053 79.4155 110.78 79.3599 109.919 79.5933C109.059 79.8266 108.559 79.0376 108.512 78.482C108.466 77.9264 109.977 77.8097 110.402 77.7264C110.813 77.7143 111.218 77.8208 111.564 78.032C111.647 78.0626 111.736 78.0725 111.823 78.0609C111.911 78.0492 111.994 78.0163 112.064 77.9653C114.111 80.0397 115.677 82.5027 116.662 85.1939ZM98.7755 73.9592C98.972 73.6238 99.2101 73.3123 99.4847 73.0314C100.159 72.8591 99.8451 73.7592 99.6474 73.9592C99.4498 74.1593 98.7755 74.1315 98.7755 73.9592ZM110.338 76.7374C110.088 76.7374 109.908 76.4318 109.756 76.1817C109.605 75.9317 109.297 76.5207 109.204 76.6985C109.083 76.9778 109.031 77.2802 109.053 77.5819C109.088 77.8931 108.855 77.9986 108.681 78.1042C108.507 78.2098 108.483 78.0653 108.326 77.982C108.169 77.8986 107.797 78.032 107.635 78.3598C107.472 78.6876 107.693 79.4266 107.635 79.4377C107.372 79.3761 107.139 79.2288 106.978 79.021C106.702 78.6171 106.506 78.1692 106.396 77.6986C106.139 77.2535 105.728 76.9077 105.234 76.7207C104.786 76.5707 105.182 77.2041 105.234 77.3208C105.286 77.4374 105.902 77.8431 105.937 78.1264C105.972 78.4098 105.356 79.4099 105.507 79.0488C105.658 78.6876 105.199 78.5265 105.071 78.2542C104.943 77.982 104.432 77.6986 103.996 77.2263C103.56 76.754 103.379 77.2263 103.089 77.0763C102.798 76.9263 102.566 77.243 102.298 77.1819C102.031 77.1207 102.124 77.4763 102.101 77.8097C102.077 78.1431 101.949 77.982 101.519 78.3653C101.089 78.7487 101.17 79.0599 100.938 79.2043C100.487 79.4171 99.9875 79.5202 99.4847 79.5044C98.7638 79.5044 98.8045 79.1877 98.8278 78.8321C98.8623 78.387 98.9825 77.9519 99.1824 77.5486C99.3975 77.1096 100.566 77.3152 100.804 77.2541C101.043 77.193 100.897 76.8318 100.897 76.404C100.897 75.9762 100.316 75.7539 100.112 75.6039C99.909 75.4539 100.345 75.4372 100.874 75.3094C101.077 75.2768 101.27 75.2029 101.441 75.0927C101.611 74.9824 101.755 74.8384 101.862 74.6704C102.157 74.287 102.517 73.9528 102.926 73.6814C103.222 73.4814 103.507 73.4092 103.717 73.2647C103.926 73.1203 104.35 73.5147 104.35 73.5147L105.315 73.3647C107.227 74.1948 109.001 75.288 110.582 76.6096C110.512 76.6596 110.46 76.7374 110.338 76.7374ZM89.5501 72.7591C89.7179 72.9139 89.8454 73.1042 89.9221 73.3147C90.0558 73.7814 89.5908 74.5038 90.0209 74.726C90.4511 74.9483 90.8813 75.6706 90.5499 75.6706C90.2186 75.6706 88.87 75.515 88.9978 75.3539C89.2232 75.0948 89.3984 74.7994 89.5152 74.4815C89.5152 74.276 89.4745 74.3593 89.0095 74.4815C88.5444 74.6038 87.4516 74.3315 87.2074 74.4815C86.9633 74.6316 87.1667 74.7482 87.3527 74.976C87.5388 75.2038 87.3179 75.2816 87.4051 75.4817C87.4428 75.5787 87.5032 75.6663 87.5818 75.7376C87.6604 75.8088 87.7551 75.8619 87.8585 75.8928C88.0561 75.9317 88.1433 75.6372 88.3293 75.7872C88.5154 75.9373 87.5504 76.4707 87.283 76.6707C87.0156 76.8707 86.7017 76.9152 86.7889 76.6707C86.8761 76.4262 86.7307 76.3095 86.6261 76.3873C86.5215 76.4651 85.7367 76.6151 85.5739 77.0874C85.4112 77.5597 84.7775 77.643 84.5159 78.032C84.2544 78.4209 83.9346 79.421 83.394 79.86C82.8534 80.2989 81.714 80.4156 81.778 81.0879C81.8419 81.7602 81.6152 82.9159 81.5803 82.6659C81.5454 82.4158 81.685 81.7213 80.999 81.5546C80.5067 81.3643 79.961 81.3407 79.4527 81.4879C79.1252 81.5297 78.7943 81.5409 78.4645 81.5213C80.9806 77.453 84.9001 74.349 89.5501 72.7424V72.7591Z" fill="#247BA0"/>
<path d="M44.9744 63.1392L47.1828 63.76L45.2966 68.975L43.0882 68.3542L44.9744 63.1392Z" fill="#388E3C"/>
<path d="M59.3263 67.172L68.1599 69.6504L66.2789 74.8703L57.4401 72.387L59.3263 67.172Z" fill="#388E3C"/>
<path d="M49.3911 64.3811L57.1179 66.5515L55.2317 71.7664L47.5049 69.596L49.3911 64.3811Z" fill="#388E3C"/>
<path d="M56.9724 101.357H57.0192L65.8268 77.0208L41.9241 70.3556L30.7626 84.1131L25 124.7L47.7803 128.256C47.6821 127.568 47.7569 126.866 47.9985 126.21L56.9724 101.357Z" fill="#388E3C"/>
<path d="M84.3306 118.323L55.9124 108.887L49.5158 126.22C49.4156 126.45 49.3656 126.696 49.3689 126.944C49.3721 127.192 49.4286 127.437 49.5347 127.664C49.6409 127.891 49.7945 128.094 49.986 128.262C50.1776 128.43 50.4031 128.558 50.6486 128.639C51.174 128.829 51.7438 128.877 52.2958 128.778L81.5506 130L84.3306 118.323Z" fill="#388E3C"/>
<path d="M158.624 107.1L143.976 65.9014L122.708 72.358L138.577 110.661C138.577 110.661 119.351 116.879 114.918 118.25C114.721 118.304 114.565 118.359 114.451 118.399C111.733 119.392 107.124 125.913 113.385 128.332C114.981 128.953 117.766 129.196 121.102 129.206C130.84 129.206 150.632 124.473 150.648 124.463C154.763 123.579 160.775 124.304 163.077 119.943C166.668 113.159 158.624 107.1 158.624 107.1ZM134.95 93.6897L127.706 75.04L128.792 74.7122L136.036 93.3718L134.95 93.6897ZM138.068 92.751L130.824 74.0864L131.905 73.7636L139.159 92.4232L138.068 92.751ZM141.513 91.713L134.28 73.0533L135.36 72.7305L142.604 91.3901L141.513 91.713ZM144.958 90.6749L137.714 72.0153L138.795 71.6875L146.039 90.3521L144.958 90.6749ZM148.403 89.6369L141.17 70.9624L142.251 70.6346L149.494 89.2992L148.403 89.6369Z" fill="#388E3C"/>
<path d="M129.368 28.4021L124.203 34.4366C123.574 33.041 117.967 25.2434 116.928 25.0646L74.2305 25C74.1629 25.149 77.7535 26.5148 79.7177 27.2797C82.3069 28.3728 84.7899 29.6825 87.1379 31.1934C92.9993 34.7743 99.0893 43.4858 102.862 48.9491C101.625 49.3663 97.1459 50.4391 97.1459 50.4391L98.9697 60.0147L105.387 60.1687C105.387 60.1687 112.49 59.7316 115.868 58.2615C116.387 58.0373 116.889 57.7784 117.37 57.4867C115.385 55.7782 115.894 50.7768 117.235 49.0732C120.352 45.1297 125.6 46.9773 129.742 48.5468C130.235 48.401 130.704 48.1886 131.134 47.916C133.462 46.4807 135.172 43.446 136.06 41.2111C137.162 38.4397 138.955 34.1138 138.955 34.1138L129.368 28.4021Z" fill="#388E3C"/>
<path d="M87.8862 33.9398C84.332 31.0393 72.2975 26.023 72.2975 26.023C68.4523 28.8341 53.2273 45.8895 53.2273 45.8895C53.2273 45.8895 64.0199 54.0497 67.4078 56.7366C70.0059 58.7928 78.4966 63.4912 78.4966 63.4912C78.4966 63.4912 79.5099 60.8837 79.6242 60.5112C80.3932 58.0279 91.2897 43.1579 94.0853 39.8352C92.132 37.7643 90.0626 35.7963 87.8862 33.9398Z" fill="#388E3C"/>
<rect x="25.5" y="25.5" width="138" height="135" stroke="#A9A9A9"/>
<rect x="0.5" y="0.5" width="188" height="185" stroke="#A9A9A9"/>
</svg>
