<svg width="185" height="55" viewBox="0 0 185 55" fill="none" xmlns="http://www.w3.org/2000/svg">
<path d="M84.1386 25.692C83.9346 25.584 83.6826 25.494 83.3826 25.422C83.0946 25.35 82.8126 25.314 82.5366 25.314C81.9726 25.314 81.4566 25.446 80.9886 25.71C80.5326 25.962 80.1726 26.298 79.9086 26.718C79.6446 27.138 79.5126 27.594 79.5126 28.086V33H77.6406V23.55H79.5126V25.512C79.8726 24.876 80.3586 24.36 80.9706 23.964C81.5826 23.556 82.2246 23.352 82.8966 23.352C83.2326 23.352 83.5566 23.388 83.8686 23.46C84.1926 23.52 84.4446 23.61 84.6246 23.73L84.1386 25.692ZM97.3465 31.758H97.3285C97.0165 31.998 96.6205 32.232 96.1405 32.46C95.6725 32.676 95.1505 32.85 94.5745 32.982C94.0105 33.114 93.4345 33.18 92.8465 33.18C91.6945 33.18 90.6805 32.976 89.8045 32.568C88.9405 32.148 88.2625 31.578 87.7705 30.858C87.2905 30.126 87.0505 29.298 87.0505 28.374C87.0505 27.318 87.3085 26.418 87.8245 25.674C88.3405 24.918 89.0245 24.342 89.8765 23.946C90.7285 23.538 91.6645 23.334 92.6845 23.334C93.6205 23.334 94.4725 23.532 95.2405 23.928C96.0085 24.312 96.6205 24.846 97.0765 25.53C97.5325 26.214 97.7605 27.012 97.7605 27.924L97.7425 28.824H88.9405C89.0845 29.64 89.5345 30.288 90.2905 30.768C91.0465 31.236 91.9885 31.47 93.1165 31.47C93.9565 31.47 94.6405 31.344 95.1685 31.092C95.7085 30.84 96.1465 30.6 96.4825 30.372L97.3465 31.758ZM92.6845 25.044C91.7605 25.044 90.9565 25.218 90.2725 25.566C89.6005 25.914 89.1685 26.508 88.9765 27.348H95.8705V27.114C95.8225 26.706 95.6425 26.346 95.3305 26.034C95.0185 25.722 94.6285 25.482 94.1605 25.314C93.6925 25.134 93.2005 25.044 92.6845 25.044ZM113.344 20.4L107.926 33H105.784L100.312 20.4H102.526L105.73 27.978C105.91 28.422 106.108 28.896 106.324 29.4C106.552 29.904 106.762 30.39 106.954 30.858C107.122 30.39 107.308 29.91 107.512 29.418C107.716 28.914 107.908 28.44 108.088 27.996L111.058 20.4H113.344ZM125.73 23.55V33H123.858V31.434C123.642 31.722 123.336 31.998 122.94 32.262C122.544 32.526 122.088 32.748 121.572 32.928C121.056 33.096 120.51 33.18 119.934 33.18C118.938 33.18 118.062 32.97 117.306 32.55C116.55 32.13 115.956 31.548 115.524 30.804C115.104 30.06 114.894 29.214 114.894 28.266C114.894 27.306 115.116 26.46 115.56 25.728C116.004 24.984 116.616 24.402 117.396 23.982C118.188 23.562 119.1 23.352 120.132 23.352C120.96 23.352 121.698 23.508 122.346 23.82C123.006 24.12 123.51 24.468 123.858 24.864V23.55H125.73ZM120.348 31.47C121.068 31.47 121.692 31.332 122.22 31.056C122.76 30.768 123.18 30.384 123.48 29.904C123.78 29.424 123.93 28.878 123.93 28.266C123.93 27.654 123.78 27.108 123.48 26.628C123.18 26.148 122.76 25.77 122.22 25.494C121.692 25.218 121.068 25.08 120.348 25.08C119.652 25.08 119.034 25.218 118.494 25.494C117.966 25.77 117.546 26.148 117.234 26.628C116.934 27.108 116.784 27.654 116.784 28.266C116.784 28.878 116.934 29.424 117.234 29.904C117.546 30.384 117.966 30.768 118.494 31.056C119.034 31.332 119.652 31.47 120.348 31.47ZM136.513 23.388C137.329 23.388 138.019 23.562 138.583 23.91C139.159 24.246 139.561 24.744 139.789 25.404C140.017 25.116 140.329 24.816 140.725 24.504C141.121 24.192 141.577 23.928 142.093 23.712C142.609 23.496 143.167 23.388 143.767 23.388C144.703 23.388 145.435 23.574 145.963 23.946C146.503 24.306 146.881 24.792 147.097 25.404C147.325 26.016 147.439 26.694 147.439 27.438V33H145.567V27.636C145.567 26.88 145.399 26.268 145.063 25.8C144.727 25.332 144.151 25.098 143.335 25.098C142.711 25.098 142.153 25.23 141.661 25.494C141.169 25.746 140.779 26.088 140.491 26.52C140.215 26.952 140.077 27.432 140.077 27.96V33H138.205V27.6C138.205 26.868 138.013 26.268 137.629 25.8C137.245 25.332 136.615 25.098 135.739 25.098C135.163 25.098 134.647 25.236 134.191 25.512C133.747 25.776 133.399 26.112 133.147 26.52C132.895 26.916 132.769 27.312 132.769 27.708V33H130.897V23.55H132.769V25.08C133.129 24.648 133.633 24.258 134.281 23.91C134.929 23.562 135.673 23.388 136.513 23.388ZM158.403 23.388C159.411 23.388 160.299 23.598 161.067 24.018C161.835 24.426 162.435 24.996 162.867 25.728C163.299 26.46 163.515 27.306 163.515 28.266C163.515 29.214 163.299 30.06 162.867 30.804C162.435 31.536 161.835 32.112 161.067 32.532C160.311 32.952 159.441 33.162 158.457 33.162C157.617 33.162 156.861 33.006 156.189 32.694C155.517 32.382 155.001 32.034 154.641 31.65V36.96H152.769V23.532H154.641V24.99C154.845 24.726 155.139 24.474 155.523 24.234C155.907 23.982 156.345 23.778 156.837 23.622C157.329 23.466 157.851 23.388 158.403 23.388ZM158.151 25.098C157.443 25.098 156.819 25.236 156.279 25.512C155.739 25.788 155.313 26.166 155.001 26.646C154.701 27.114 154.551 27.654 154.551 28.266C154.551 28.866 154.701 29.406 155.001 29.886C155.313 30.366 155.739 30.75 156.279 31.038C156.819 31.314 157.443 31.452 158.151 31.452C158.859 31.452 159.477 31.314 160.005 31.038C160.545 30.75 160.965 30.366 161.265 29.886C161.577 29.406 161.733 28.866 161.733 28.266C161.733 27.654 161.577 27.114 161.265 26.646C160.965 26.166 160.545 25.788 160.005 25.512C159.477 25.236 158.859 25.098 158.151 25.098Z" fill="#247BA0"/>
<path d="M42.6781 25.1881C41.2853 25.1881 39.9237 25.6038 38.7657 26.3827C37.6076 27.1615 36.705 28.2685 36.172 29.5636C35.639 30.8587 35.4995 32.2839 35.7712 33.6588C36.043 35.0337 36.7137 36.2967 37.6985 37.2879C38.6834 38.2792 39.9382 38.9542 41.3042 39.2277C42.6702 39.5012 44.0862 39.3609 45.373 38.8244C46.6597 38.2879 47.7596 37.3794 48.5334 36.2138C49.3072 35.0482 49.7202 33.6779 49.7202 32.276C49.7178 30.3969 48.975 28.5955 47.6549 27.2668C46.3348 25.9381 44.545 25.1906 42.6781 25.1881Z" fill="#77BD43"/>
<path d="M42.6781 25.1881C41.2853 25.1881 39.9237 25.6038 38.7657 26.3827C37.6076 27.1615 36.705 28.2685 36.172 29.5636C35.639 30.8587 35.4995 32.2839 35.7712 33.6588C36.043 35.0337 36.7137 36.2967 37.6985 37.2879C38.6834 38.2792 39.9382 38.9542 41.3042 39.2277C42.6702 39.5012 44.0862 39.3609 45.373 38.8244C46.6597 38.2879 47.7596 37.3794 48.5334 36.2138C49.3072 35.0482 49.7202 33.6779 49.7202 32.276C49.7178 30.3969 48.975 28.5955 47.6549 27.2668C46.3348 25.9381 44.545 25.1906 42.6781 25.1881ZM36.5376 29.5609C36.546 29.5872 36.5497 29.6148 36.5486 29.6424C36.5486 29.7942 36.5965 29.8683 36.7842 29.8887C36.9719 29.9091 37.0344 29.6535 37.1522 29.6424C37.27 29.6313 37.4135 29.6424 37.3509 29.7424C37.2884 29.8424 37.0639 30.1406 37.2 30.1776C37.3362 30.2147 37.5681 30.0572 37.638 30.2461C37.7079 30.4351 37.6012 30.598 37.6748 30.6462C37.7484 30.6943 37.8109 30.8444 37.8698 30.8666C37.9287 30.8888 38.0005 30.761 38.0428 30.8036C38.0851 30.8462 38.1679 30.8907 38.1937 30.8814C38.2367 30.8535 38.2768 30.8212 38.3133 30.7851C38.3133 30.7851 38.6059 30.5203 38.7586 30.5758C38.9353 30.6417 39.1222 30.6755 39.3106 30.6758C39.5885 30.6869 39.6308 30.7573 39.8112 30.9259C39.9915 31.0944 39.8112 31.0796 40.1792 31.1222C40.5472 31.1648 40.3466 31.6408 40.7312 31.6778C41.0008 31.7059 41.2642 31.7772 41.5114 31.8889C41.7341 31.9723 42.1095 32.0982 42.0635 32.3353C42.0175 32.5724 41.6954 32.8261 41.6954 32.9946C41.6954 33.1632 41.7359 33.6799 41.5685 33.7781C41.401 33.8762 40.9999 34.0022 40.9576 34.1707C40.9152 34.3392 40.8876 34.7967 40.665 34.9671C40.4919 35.107 40.3362 35.2675 40.2013 35.4449C40.1369 35.5283 39.9142 35.5153 39.802 35.682C39.6897 35.8487 39.4542 36.3561 39.5241 36.4228C39.594 36.4895 39.8167 36.4932 39.6639 36.6469C39.5112 36.8006 39.5664 37.0396 39.594 37.2025C39.6216 37.3655 40.0522 37.3285 39.962 37.4822C39.8719 37.6359 39.1966 38.0008 39.042 36.9081C38.8874 35.8153 38.8745 35.5227 38.915 35.0319C38.9555 34.5411 39.0549 33.5058 38.9445 33.4225C38.8341 33.3391 38.3317 33.5058 37.9968 32.3723C37.6619 31.2389 38.0391 31.4889 38.109 31.4055C38.165 31.2896 38.1981 31.1638 38.2066 31.0351C38.1164 31.0682 38.0182 31.0726 37.9254 31.0478C37.8326 31.0229 37.7496 30.97 37.6877 30.8962C37.4374 30.6332 37.27 30.4239 37.062 30.3591C36.8541 30.2943 36.9259 30.1184 36.7069 30.161C36.5834 30.1732 36.4588 30.1632 36.3389 30.1313C36.383 29.9387 36.4566 29.7479 36.5376 29.5609ZM43.8981 25.6382C43.9184 25.6553 43.9374 25.6739 43.9551 25.6937C43.9567 25.7568 43.9679 25.8193 43.9882 25.879C44.025 25.979 44.1299 26.1253 44.2182 26.3049C44.3066 26.4846 44.0673 26.5772 43.8502 26.5976C43.6331 26.6179 43.8502 26.3086 43.887 26.2457C43.9238 26.1827 43.8649 26.0364 43.8502 25.9845C43.8355 25.9327 43.6938 25.8586 43.6662 25.7641C43.6648 25.7336 43.6698 25.7032 43.6809 25.6748C43.692 25.6464 43.7089 25.6206 43.7306 25.5993L43.8981 25.6382ZM49.0154 30.0646L48.8885 30.1554C48.4008 30.5258 48.2003 30.4499 48.2003 30.4499C48.2003 30.0091 47.5378 29.1886 47.26 29.0423C46.9821 28.896 47.7678 30.1072 48.0402 30.4702C48.3125 30.8333 48.5131 30.6666 48.7762 30.6036C49.0394 30.5406 48.5922 31.1926 48.2959 31.4926C47.9997 31.7926 47.6409 31.7945 47.823 32.4946C48.0052 33.1947 47.6979 33.2706 47.455 33.4206C47.2121 33.5706 47.3299 33.9522 47.1422 34.0355C46.9545 34.1188 47.3023 34.4504 46.6214 34.7986C45.9406 35.1467 45.7934 34.9041 45.7363 34.6319C45.6793 34.3596 45.3683 34.317 45.4106 33.9522C45.453 33.5873 45.1733 33.2243 45.2984 33.0557C45.4235 32.8872 45.2984 32.2575 45.0757 32.0056C44.8531 31.7537 45.0757 31.5019 45.0481 31.3759C45.0205 31.25 44.8402 31.3759 44.7427 31.2389C44.6451 31.1018 45.2432 30.8444 44.255 31.124C43.2669 31.4037 43.2669 31.124 42.9191 30.8018C42.5713 30.4795 42.7112 30.4314 42.6836 29.822C42.656 29.2127 43.1565 29.1071 43.3644 28.7812C43.5724 28.4552 43.7969 28.2959 44.6028 28.17C45.4088 28.044 45.1181 28.3793 45.1181 28.5033C45.1181 28.6274 45.8964 28.8275 45.8964 28.7719C45.8964 28.7163 45.7989 28.4774 45.9811 28.5052C46.0786 28.533 47.0244 28.6904 47.0244 28.6904C47.3336 28.646 47.3023 28.257 47.271 28.1978C47.2397 28.1385 47.1532 28.12 46.8809 28.1978C46.6086 28.2755 46.4503 28.0125 46.4356 27.8273C46.4209 27.6421 46.8993 27.6032 47.0336 27.5755C47.1637 27.5714 47.2919 27.6069 47.4016 27.6773C47.4277 27.6875 47.4559 27.6908 47.4836 27.6869C47.5113 27.6831 47.5376 27.6721 47.5599 27.6551C48.2077 28.3466 48.7036 29.1675 49.0154 30.0646ZM43.3534 26.3197C43.4156 26.2079 43.491 26.1041 43.5779 26.0104C43.7913 25.953 43.692 26.2531 43.6294 26.3197C43.5668 26.3864 43.3534 26.3772 43.3534 26.3197ZM47.0134 27.2458C46.9343 27.2458 46.8772 27.1439 46.8294 27.0606C46.7815 26.9772 46.684 27.1736 46.6546 27.2328C46.6161 27.3259 46.5998 27.4267 46.6067 27.5273C46.6178 27.631 46.5442 27.6662 46.4889 27.7014C46.4337 27.7366 46.4264 27.6884 46.3767 27.6606C46.327 27.6329 46.2092 27.6773 46.1577 27.7866C46.1062 27.8959 46.1761 28.1422 46.1577 28.1459C46.0745 28.1254 46.0009 28.0763 45.9498 28.007C45.8626 27.8724 45.8003 27.7231 45.7658 27.5662C45.6844 27.4178 45.5543 27.3026 45.3978 27.2402C45.2561 27.1902 45.3812 27.4014 45.3978 27.4403C45.4143 27.4791 45.6094 27.6143 45.6204 27.7088C45.6315 27.8033 45.4364 28.1366 45.4842 28.0162C45.5321 27.8959 45.3867 27.8422 45.3462 27.7514C45.3057 27.6606 45.1438 27.5662 45.0058 27.4088C44.8678 27.2513 44.8108 27.4088 44.7188 27.3588C44.6267 27.3088 44.5531 27.4143 44.4685 27.3939C44.3838 27.3736 44.4133 27.4921 44.4059 27.6032C44.3986 27.7144 44.3581 27.6606 44.2219 27.7884C44.0858 27.9162 44.1115 28.02 44.0379 28.0681C43.8951 28.139 43.7371 28.1734 43.5779 28.1681C43.3497 28.1681 43.3626 28.0625 43.3699 27.944C43.3809 27.7957 43.4189 27.6506 43.4822 27.5162C43.5503 27.3699 43.9201 27.4384 43.9956 27.418C44.071 27.3977 44.025 27.2773 44.025 27.1347C44.025 26.992 43.841 26.918 43.7766 26.868C43.7122 26.818 43.8502 26.8124 44.0177 26.7698C44.0819 26.7589 44.1431 26.7343 44.1971 26.6976C44.2511 26.6608 44.2966 26.6128 44.3305 26.5568C44.4239 26.429 44.5377 26.3176 44.6672 26.2271C44.7611 26.1605 44.8512 26.1364 44.9175 26.0882C44.9837 26.0401 45.1181 26.1716 45.1181 26.1716L45.4235 26.1216C46.0287 26.3983 46.5904 26.7627 47.0907 27.2032C47.0686 27.2199 47.052 27.2458 47.0134 27.2458ZM40.4331 25.9197C40.4863 25.9713 40.5266 26.0347 40.5509 26.1049C40.5932 26.2605 40.446 26.5012 40.5822 26.5753C40.7183 26.6494 40.8545 26.8902 40.7496 26.8902C40.6447 26.8902 40.2178 26.8383 40.2583 26.7846C40.3296 26.6983 40.3851 26.5998 40.4221 26.4938C40.4221 26.4253 40.4092 26.4531 40.262 26.4938C40.1148 26.5346 39.7688 26.4438 39.6915 26.4938C39.6143 26.5438 39.6787 26.5827 39.7376 26.6587C39.7964 26.7346 39.7265 26.7605 39.7541 26.8272C39.766 26.8596 39.7852 26.8888 39.8101 26.9125C39.8349 26.9363 39.8649 26.954 39.8976 26.9643C39.9602 26.9772 39.9878 26.8791 40.0467 26.9291C40.1056 26.9791 39.8001 27.1569 39.7155 27.2236C39.6308 27.2902 39.5315 27.305 39.5591 27.2236C39.5867 27.1421 39.5407 27.1032 39.5075 27.1291C39.4744 27.155 39.226 27.205 39.1745 27.3625C39.123 27.5199 38.9224 27.5477 38.8396 27.6773C38.7568 27.807 38.6556 28.1403 38.4844 28.2867C38.3133 28.433 37.9526 28.4719 37.9729 28.696C37.9931 28.9201 37.9214 29.3053 37.9103 29.2219C37.8993 29.1386 37.9434 28.9071 37.7263 28.8515C37.5705 28.7881 37.3977 28.7802 37.2368 28.8293C37.1332 28.8432 37.0284 28.847 36.924 28.8404C37.7205 27.4843 38.9612 26.4497 40.4331 25.9141V25.9197Z" fill="#247BA0"/>
<path d="M26.3228 22.7131L27.0219 22.92L26.4248 24.6583L25.7258 24.4514L26.3228 22.7131Z" fill="#388E3C"/>
<path d="M30.8659 24.0573L33.6621 24.8835L33.0667 26.6234L30.2688 25.7957L30.8659 24.0573Z" fill="#388E3C"/>
<path d="M27.7209 23.127L30.1668 23.8505L29.5697 25.5888L27.1238 24.8653L27.7209 23.127Z" fill="#388E3C"/>
<path d="M30.1208 35.4524H30.1356L32.9236 27.3403L25.3573 25.1185L21.8241 29.7044L20 43.2335L27.211 44.4188C27.1799 44.1892 27.2036 43.9554 27.2801 43.7367L30.1208 35.4524Z" fill="#388E3C"/>
<path d="M38.7809 41.1078L29.7852 37.9623L27.7604 43.7401C27.7287 43.8165 27.7129 43.8986 27.7139 43.9813C27.7149 44.0641 27.7328 44.1458 27.7664 44.2213C27.8 44.2969 27.8486 44.3647 27.9093 44.4206C27.9699 44.4765 28.0413 44.5193 28.119 44.5464C28.2853 44.6095 28.4657 44.6256 28.6404 44.5927L37.9009 45L38.7809 41.1078Z" fill="#388E3C"/>
<path d="M62.2982 37.3665L57.6614 23.6338L50.929 25.786L55.9524 38.5535C55.9524 38.5535 49.8664 40.6263 48.4634 41.0832C48.4009 41.1014 48.3515 41.1196 48.3153 41.1329C47.4551 41.464 45.9961 43.6377 47.9781 44.444C48.4831 44.6509 49.3647 44.732 50.4207 44.7353C53.5032 44.7353 59.7684 43.1576 59.7734 43.1543C61.0761 42.8596 62.9792 43.1013 63.7078 41.6477C64.8444 39.3863 62.2982 37.3665 62.2982 37.3665ZM54.8043 32.8965L52.5113 26.68L52.8551 26.5707L55.148 32.7906L54.8043 32.8965ZM55.7912 32.5837L53.4983 26.3621L53.8404 26.2545L56.1366 32.4744L55.7912 32.5837ZM56.8817 32.2376L54.5921 26.0178L54.9342 25.9102L57.2271 32.13L56.8817 32.2376ZM57.9722 31.8916L55.6793 25.6718L56.0215 25.5625L58.3144 31.784L57.9722 31.8916ZM59.0628 31.5456L56.7732 25.3208L57.1153 25.2115L59.4082 31.433L59.0628 31.5456Z" fill="#388E3C"/>
<path d="M53.0373 11.134L51.4023 13.1455C51.2033 12.6803 49.4285 10.0811 49.0995 10.0215L35.5837 10C35.5624 10.0497 36.699 10.5049 37.3207 10.7599C38.1403 11.1243 38.9263 11.5608 39.6696 12.0645C41.525 13.2581 43.4527 16.1619 44.6469 17.983C44.2554 18.1221 42.8375 18.4797 42.8375 18.4797L43.4149 21.6716L45.4463 21.7229C45.4463 21.7229 47.6948 21.5772 48.7639 21.0872C48.9282 21.0124 49.0871 20.9261 49.2393 20.8289C48.611 20.2594 48.7722 18.5923 49.1965 18.0244C50.1834 16.7099 51.8448 17.3258 53.1557 17.8489C53.3118 17.8003 53.4603 17.7295 53.5965 17.6387C54.3334 17.1602 54.8746 16.1487 55.1558 15.4037C55.5045 14.4799 56.072 13.0379 56.072 13.0379L53.0373 11.134Z" fill="#388E3C"/>
<path d="M39.9064 12.9799C38.7813 12.0131 34.9719 10.341 34.9719 10.341C33.7547 11.278 28.9353 16.9632 28.9353 16.9632C28.9353 16.9632 32.3516 19.6832 33.4241 20.5789C34.2465 21.2643 36.9342 22.8304 36.9342 22.8304C36.9342 22.8304 37.2549 21.9613 37.2911 21.8371C37.5346 21.0093 40.9838 16.0526 41.8687 14.9451C41.2504 14.2548 40.5954 13.5988 39.9064 12.9799Z" fill="#388E3C"/>
<rect x="20.5" y="10.5" width="144" height="34" stroke="#A9A9A9"/>
<rect x="0.5" y="0.5" width="184" height="54" stroke="#A9A9A9"/>
</svg>
