<svg width="192" height="142" viewBox="0 0 192 142" fill="none" xmlns="http://www.w3.org/2000/svg">
<path d="M188.172 77.9163H152.479C151.687 77.9163 150.927 78.2216 150.367 78.7652C149.807 79.3088 149.492 80.0461 149.492 80.8149V94.0035H116.488C115.695 94.0035 114.936 94.3088 114.376 94.8524C113.815 95.396 113.501 96.1333 113.501 96.902V108.351H79.1519C78.3597 108.351 77.6 108.657 77.0398 109.2C76.4797 109.744 76.165 110.481 76.165 111.25V121.395H43.3095C42.5173 121.395 41.7576 121.701 41.1975 122.244C40.6373 122.788 40.3227 123.525 40.3227 124.294V135.888H2.98686C2.1947 135.888 1.43498 136.194 0.874832 136.737C0.314687 137.281 0 138.018 0 138.787C0 139.555 0.314687 140.293 0.874832 140.836C1.43498 141.38 2.1947 141.685 2.98686 141.685H43.3095C44.1017 141.685 44.8614 141.38 45.4215 140.836C45.9817 140.293 46.2964 139.555 46.2964 138.787V127.192H79.1519C79.944 127.192 80.7038 126.887 81.2639 126.343C81.8241 125.8 82.1387 125.063 82.1387 124.294V114.149H116.488C117.28 114.149 118.04 113.843 118.6 113.3C119.16 112.756 119.475 112.019 119.475 111.25V99.8006H152.479C153.272 99.8006 154.031 99.4953 154.591 98.9517C155.152 98.4081 155.466 97.6708 155.466 96.902V83.7134H188.172C188.965 83.7134 189.724 83.4081 190.284 82.8645C190.845 82.3209 191.159 81.5836 191.159 80.8149C191.159 80.0461 190.845 79.3088 190.284 78.7652C189.724 78.2216 188.965 77.9163 188.172 77.9163Z" fill="#CCE6F4"/>
<path d="M126.792 45.1622L128.136 45.452C128.823 45.4356 129.489 45.2197 130.048 44.8321C130.607 44.4446 131.034 43.9033 131.272 43.2781L135.603 32.6982L138.142 29.9445C138.142 30.2344 137.993 30.3793 137.993 30.6692C137.993 30.959 135.902 44.2926 137.246 53.5681C137.246 53.5681 138.292 59.8001 137.246 63.1334C137.246 63.1334 134.11 80.8149 133.065 84.583C132.867 85.3972 132.845 86.2421 132.999 87.0649C133.153 87.8878 133.481 88.671 133.961 89.3657C134.332 89.827 134.808 90.1981 135.352 90.4497C135.897 90.7012 136.494 90.8263 137.097 90.815C138.073 90.7778 139.01 90.432 139.765 89.8302C140.52 89.2284 141.051 88.4037 141.278 87.4816L146.804 64.4378L147.402 62.2639C147.718 60.737 147.769 59.1692 147.551 57.6261L146.954 52.8434C146.901 52.7082 146.903 52.559 146.958 52.425C147.014 52.291 147.118 52.1818 147.252 52.1188H147.85L155.765 55.4522C156.309 56.2664 156.522 57.2478 156.362 58.2058C156.362 58.2058 156.213 66.7567 156.362 66.9016C156.511 67.0465 156.362 71.3944 158.453 72.4089C159.268 72.8292 160.201 72.9855 161.114 72.8551C162.028 72.7248 162.874 72.3145 163.531 71.6843C164.381 70.7686 164.859 69.5836 164.875 68.3509L165.621 55.742C165.771 53.5681 166.219 51.684 163.68 50.3796L155.018 45.452C153.077 44.7274 153.375 43.1331 153.375 41.394C153.499 40.5785 153.549 39.7541 153.525 38.9302V38.6403C153.522 38.5316 153.545 38.4238 153.592 38.3249C153.638 38.226 153.707 38.1385 153.793 38.069C153.879 37.9994 153.98 37.9494 154.089 37.9229C154.198 37.8964 154.311 37.8939 154.421 37.9157H164.128C167.563 37.9157 168.011 31.104 163.083 31.104L154.122 30.8141C153.525 30.8141 153.525 30.2344 153.525 29.7996C153.456 27.5539 153.156 25.3205 152.629 23.1328C152.285 21.0767 151.168 19.2174 149.492 17.9154C148.228 16.926 146.746 16.2319 145.161 15.8864H144.265C143.41 15.9306 142.576 16.1622 141.826 16.5638C141.076 16.9654 140.429 17.5266 139.934 18.2052L130.376 28.2054C129.793 28.7879 129.336 29.4778 129.032 30.2344L124.851 40.8143C124.548 41.6429 124.58 42.552 124.941 43.3587C125.301 44.1653 125.962 44.8097 126.792 45.1622Z" fill="#CCE6F4"/>
<path d="M147.999 13.5675C149.702 13.5675 151.335 12.9109 152.54 11.7422C153.744 10.5735 154.421 8.98834 154.421 7.33552C154.563 6.42748 154.501 5.50034 154.24 4.61752C153.979 3.7347 153.525 2.91703 152.908 2.22047C152.291 1.5239 151.526 0.964881 150.666 0.581643C149.806 0.198406 148.871 0 147.924 0C146.978 0 146.042 0.198406 145.182 0.581643C144.322 0.964881 143.558 1.5239 142.941 2.22047C142.324 2.91703 141.869 3.7347 141.608 4.61752C141.347 5.50034 141.285 6.42748 141.428 7.33552C141.427 8.16625 141.598 8.98864 141.93 9.75435C142.262 10.52 142.749 11.2136 143.361 11.7942C143.973 12.3749 144.699 12.8308 145.495 13.1354C146.292 13.4399 147.143 13.5868 147.999 13.5675Z" fill="#CCE6F4"/>
</svg>
