<svg width="193" height="117" viewBox="0 0 193 117" fill="none" xmlns="http://www.w3.org/2000/svg">
<path d="M189.984 41.5907H153.948C153.148 41.5907 152.381 41.9503 151.815 42.5905C151.25 43.2306 150.932 44.0988 150.932 45.0041V60.535H117.609C116.81 60.535 116.043 60.8946 115.477 61.5347C114.911 62.1749 114.594 63.0431 114.594 63.9483V77.4312H79.9141C79.1143 77.4312 78.3472 77.7908 77.7817 78.431C77.2161 79.0711 76.8984 79.9393 76.8984 80.8446V92.7914H43.7266C42.9268 92.7914 42.1597 93.151 41.5942 93.7912C41.0287 94.4313 40.7109 95.2995 40.7109 96.2048V109.858H3.01562C2.21583 109.858 1.4488 110.218 0.883256 110.858C0.317717 111.498 0 112.366 0 113.272C0 114.177 0.317717 115.045 0.883256 115.685C1.4488 116.325 2.21583 116.685 3.01562 116.685H43.7266C44.5264 116.685 45.2934 116.325 45.8589 115.685C46.4245 115.045 46.7422 114.177 46.7422 113.272V99.6182H79.9141C80.7139 99.6182 81.4809 99.2586 82.0464 98.6184C82.612 97.9783 82.9297 97.1101 82.9297 96.2048V84.258H117.609C118.409 84.258 119.176 83.8983 119.742 83.2582C120.307 82.6181 120.625 81.7499 120.625 80.8446V67.3617H153.948C154.747 67.3617 155.514 67.0021 156.08 66.362C156.646 65.7218 156.963 64.8536 156.963 63.9483V48.4175H189.984C190.784 48.4175 191.551 48.0578 192.117 47.4177C192.682 46.7776 193 45.9094 193 45.0041C193 44.0988 192.682 43.2306 192.117 42.5905C191.551 41.9503 190.784 41.5907 189.984 41.5907Z" fill="#CCE6F4"/>
<path d="M15.4363 53.2422L16.6389 53.5863C17.3467 53.5565 18.0326 53.2983 18.6178 52.8417C19.2029 52.3851 19.6634 51.7485 19.9462 51.0053L24.1555 38.4445L26.7112 35.1752C26.7346 35.4726 26.6824 35.7714 26.5608 36.0356C26.5608 36.0356 24.6065 52.2098 25.8092 63.222C25.8092 63.222 26.8615 70.6208 25.9595 74.5783C25.9595 74.5783 22.6522 95.5704 21.7502 100.044C21.4732 101.001 21.4106 102.023 21.5682 103.015C21.7258 104.007 22.0985 104.938 22.6522 105.722C23.01 106.247 23.4655 106.674 23.9857 106.971C24.5058 107.269 25.0774 107.43 25.6588 107.443C26.6488 107.428 27.6049 107.029 28.37 106.309C29.135 105.59 29.6634 104.594 29.8681 103.485L35.5807 76.1269L36.1821 73.5459C36.4232 71.7209 36.4232 69.8648 36.1821 68.0398L35.7311 62.3616C35.6864 62.216 35.6768 62.0593 35.7032 61.9079C35.7297 61.7565 35.7912 61.6161 35.8814 61.5013H36.4827L44.4503 65.4588C45.0039 66.4265 45.2678 67.5739 45.202 68.7281C45.202 68.7281 45.0517 78.88 45.0517 79.052C45.0517 79.2241 45.202 84.3861 47.3066 85.5905C48.1275 86.0894 49.0661 86.275 49.9856 86.1203C50.9051 85.9655 51.7573 85.4785 52.4179 84.7302C53.2741 83.6431 53.7551 82.2362 53.7709 80.7727L54.3722 65.803C54.5226 63.222 54.9736 60.9851 52.5683 59.4365L43.6987 53.5863C41.7444 52.726 42.1954 50.8332 42.1954 48.7684V46.0154C42.2497 45.9456 42.2911 45.8638 42.317 45.775C42.3428 45.6863 42.3526 45.5924 42.3457 45.4992C42.3457 45.271 42.4249 45.0522 42.5658 44.8909C42.7068 44.7295 42.898 44.6389 43.0973 44.6389H52.8689C56.3266 44.6389 56.9279 36.5518 51.9669 36.5518H51.8166L42.7967 36.2076C42.3457 36.2076 42.1954 35.5194 42.1954 35.0032C42.252 32.3384 41.9992 29.6768 41.4437 27.0882C41.0358 24.6732 39.9226 22.4888 38.2867 20.8938C36.94 19.7523 35.4062 18.9331 33.7768 18.4849H32.8748C32.0137 18.5374 31.1741 18.8123 30.4191 19.2891C29.6641 19.7659 29.0132 20.4322 28.5151 21.2379L19.0442 33.1105C18.4574 33.8021 17.9973 34.6211 17.6912 35.5194L13.3316 47.9081C13.0297 48.9371 13.0789 50.0587 13.4692 51.048C13.8595 52.0372 14.5622 52.821 15.4363 53.2422Z" fill="#CCE6F4"/>
<path d="M36.8822 15.0189C40.5096 15.0189 43.4502 11.6568 43.4502 7.50944C43.4502 3.36209 40.5096 0 36.8822 0C33.2547 0 30.3141 3.36209 30.3141 7.50944C30.3141 11.6568 33.2547 15.0189 36.8822 15.0189Z" fill="#CCE6F4"/>
</svg>
