<svg width="408" height="373" viewBox="0 0 408 373" fill="none" xmlns="http://www.w3.org/2000/svg">
<path d="M74.5005 323.044C73.7638 322.654 72.8538 322.329 71.7705 322.069C70.7305 321.809 69.7121 321.679 68.7155 321.679C66.6788 321.679 64.8155 322.155 63.1255 323.109C61.4788 324.019 60.1788 325.232 59.2255 326.749C58.2721 328.265 57.7954 329.912 57.7954 331.689V349.434H51.0354V315.309H57.7954V322.394C59.0954 320.097 60.8504 318.234 63.0604 316.804C65.2705 315.33 67.5888 314.594 70.0155 314.594C71.2288 314.594 72.3988 314.724 73.5255 314.984C74.6955 315.2 75.6055 315.525 76.2555 315.959L74.5005 323.044ZM122.196 344.949H122.131C121.004 345.815 119.574 346.66 117.841 347.484C116.151 348.264 114.266 348.892 112.186 349.369C110.149 349.845 108.069 350.084 105.946 350.084C101.786 350.084 98.1241 349.347 94.9607 347.874C91.8407 346.357 89.3924 344.299 87.6157 341.699C85.8824 339.055 85.0157 336.065 85.0157 332.729C85.0157 328.915 85.9474 325.665 87.8107 322.979C89.6741 320.249 92.1441 318.169 95.2207 316.739C98.2974 315.265 101.677 314.529 105.361 314.529C108.741 314.529 111.817 315.244 114.591 316.674C117.364 318.06 119.574 319.989 121.221 322.459C122.867 324.929 123.691 327.81 123.691 331.104L123.626 334.354H91.8407C92.3607 337.3 93.9857 339.64 96.7157 341.374C99.4457 343.064 102.847 343.909 106.921 343.909C109.954 343.909 112.424 343.454 114.331 342.544C116.281 341.634 117.862 340.767 119.076 339.944L122.196 344.949ZM105.361 320.704C102.024 320.704 99.1207 321.332 96.6507 322.589C94.2241 323.845 92.6641 325.99 91.9707 329.024H116.866V328.179C116.692 326.705 116.042 325.405 114.916 324.279C113.789 323.152 112.381 322.285 110.691 321.679C109.001 321.029 107.224 320.704 105.361 320.704ZM179.965 303.934L160.4 349.434H152.665L132.905 303.934H140.9L152.47 331.299C153.12 332.902 153.835 334.614 154.615 336.434C155.439 338.254 156.197 340.009 156.89 341.699C157.497 340.009 158.169 338.275 158.905 336.499C159.642 334.679 160.335 332.967 160.985 331.364L171.71 303.934H179.965ZM224.691 315.309V349.434H217.931V343.779C217.151 344.819 216.046 345.815 214.616 346.769C213.186 347.722 211.539 348.524 209.676 349.174C207.813 349.78 205.841 350.084 203.761 350.084C200.164 350.084 197.001 349.325 194.271 347.809C191.541 346.292 189.396 344.19 187.836 341.504C186.319 338.817 185.561 335.762 185.561 332.339C185.561 328.872 186.363 325.817 187.966 323.174C189.569 320.487 191.779 318.385 194.596 316.869C197.456 315.352 200.749 314.594 204.476 314.594C207.466 314.594 210.131 315.157 212.471 316.284C214.854 317.367 216.674 318.624 217.931 320.054V315.309H224.691ZM205.256 343.909C207.856 343.909 210.109 343.41 212.016 342.414C213.966 341.374 215.483 339.987 216.566 338.254C217.649 336.52 218.191 334.549 218.191 332.339C218.191 330.129 217.649 328.157 216.566 326.424C215.483 324.69 213.966 323.325 212.016 322.329C210.109 321.332 207.856 320.834 205.256 320.834C202.743 320.834 200.511 321.332 198.561 322.329C196.654 323.325 195.138 324.69 194.011 326.424C192.928 328.157 192.386 330.129 192.386 332.339C192.386 334.549 192.928 336.52 194.011 338.254C195.138 339.987 196.654 341.374 198.561 342.414C200.511 343.41 202.743 343.909 205.256 343.909ZM263.631 314.724C266.578 314.724 269.069 315.352 271.106 316.609C273.186 317.822 274.638 319.62 275.461 322.004C276.284 320.964 277.411 319.88 278.841 318.754C280.271 317.627 281.918 316.674 283.781 315.894C285.644 315.114 287.659 314.724 289.826 314.724C293.206 314.724 295.849 315.395 297.756 316.739C299.706 318.039 301.071 319.794 301.851 322.004C302.674 324.214 303.086 326.662 303.086 329.349V349.434H296.326V330.064C296.326 327.334 295.719 325.124 294.506 323.434C293.293 321.744 291.213 320.899 288.266 320.899C286.013 320.899 283.998 321.375 282.221 322.329C280.444 323.239 279.036 324.474 277.996 326.034C276.999 327.594 276.501 329.327 276.501 331.234V349.434H269.741V329.934C269.741 327.29 269.048 325.124 267.661 323.434C266.274 321.744 263.999 320.899 260.836 320.899C258.756 320.899 256.893 321.397 255.246 322.394C253.643 323.347 252.386 324.56 251.476 326.034C250.566 327.464 250.111 328.894 250.111 330.324V349.434H243.351V315.309H250.111V320.834C251.411 319.274 253.231 317.865 255.571 316.609C257.911 315.352 260.598 314.724 263.631 314.724ZM342.679 314.724C346.319 314.724 349.526 315.482 352.299 316.999C355.073 318.472 357.239 320.53 358.799 323.174C360.359 325.817 361.139 328.872 361.139 332.339C361.139 335.762 360.359 338.817 358.799 341.504C357.239 344.147 355.073 346.227 352.299 347.744C349.569 349.26 346.428 350.019 342.874 350.019C339.841 350.019 337.111 349.455 334.684 348.329C332.258 347.202 330.394 345.945 329.094 344.559V363.734H322.334V315.244H329.094V320.509C329.831 319.555 330.893 318.645 332.279 317.779C333.666 316.869 335.248 316.132 337.024 315.569C338.801 315.005 340.686 314.724 342.679 314.724ZM341.769 320.899C339.213 320.899 336.959 321.397 335.009 322.394C333.059 323.39 331.521 324.755 330.394 326.489C329.311 328.179 328.769 330.129 328.769 332.339C328.769 334.505 329.311 336.455 330.394 338.189C331.521 339.922 333.059 341.309 335.009 342.349C336.959 343.345 339.213 343.844 341.769 343.844C344.326 343.844 346.558 343.345 348.464 342.349C350.414 341.309 351.931 339.922 353.014 338.189C354.141 336.455 354.704 334.505 354.704 332.339C354.704 330.129 354.141 328.179 353.014 326.489C351.931 324.755 350.414 323.39 348.464 322.394C346.558 321.397 344.326 320.899 341.769 320.899Z" fill="#237CA1"/>
<path d="M202.458 116.981C191.246 116.981 180.287 120.182 170.965 126.181C161.642 132.18 154.377 140.706 150.086 150.681C145.796 160.656 144.673 171.633 146.86 182.223C149.048 192.813 154.447 202.54 162.374 210.175C170.302 217.809 180.403 223.009 191.399 225.115C202.395 227.222 213.793 226.141 224.151 222.009C234.509 217.877 243.363 210.88 249.591 201.902C255.82 192.924 259.145 182.37 259.145 171.572C259.125 157.1 253.147 143.225 242.52 132.991C231.893 122.757 217.486 117 202.458 116.981Z" fill="#77BD43"/>
<path d="M202.458 116.981C191.246 116.981 180.287 120.182 170.965 126.181C161.642 132.18 154.377 140.706 150.086 150.681C145.796 160.656 144.673 171.633 146.86 182.223C149.048 192.813 154.447 202.54 162.374 210.175C170.302 217.809 180.403 223.009 191.399 225.115C202.395 227.222 213.793 226.141 224.151 222.009C234.509 217.877 243.363 210.88 249.591 201.902C255.82 192.924 259.145 182.37 259.145 171.572C259.125 157.1 253.147 143.225 242.52 132.991C231.893 122.757 217.486 117 202.458 116.981ZM153.029 150.66C153.097 150.863 153.127 151.075 153.118 151.288C153.118 152.458 153.503 153.028 155.014 153.185C156.525 153.342 157.029 151.373 157.977 151.288C158.925 151.202 160.08 151.288 159.576 152.058C159.073 152.828 157.266 155.125 158.362 155.41C159.458 155.696 161.324 154.483 161.887 155.938C162.45 157.393 161.591 158.648 162.183 159.019C162.776 159.39 163.279 160.546 163.753 160.717C164.227 160.888 164.805 159.904 165.146 160.232C165.486 160.56 166.153 160.902 166.36 160.831C166.707 160.616 167.03 160.368 167.323 160.089C167.323 160.089 169.678 158.049 170.908 158.477C172.33 158.985 173.835 159.245 175.352 159.248C177.588 159.333 177.929 159.875 179.38 161.173C180.832 162.471 179.38 162.357 182.343 162.685C185.305 163.014 183.691 166.68 186.787 166.965C188.957 167.181 191.077 167.73 193.067 168.591C194.859 169.233 197.881 170.203 197.511 172.029C197.14 173.855 194.548 175.809 194.548 177.107C194.548 178.405 194.874 182.385 193.526 183.141C192.178 183.897 188.949 184.867 188.609 186.165C188.268 187.464 188.046 190.987 186.253 192.299C184.86 193.377 183.607 194.613 182.521 195.98C182.002 196.622 180.21 196.522 179.306 197.806C178.403 199.089 176.507 202.998 177.07 203.512C177.633 204.025 179.425 204.054 178.195 205.238C176.966 206.422 177.41 208.262 177.633 209.517C177.855 210.772 181.321 210.487 180.595 211.671C179.869 212.855 174.433 215.665 173.189 207.249C171.945 198.833 171.841 196.579 172.167 192.799C172.493 189.018 173.293 181.044 172.404 180.402C171.515 179.761 167.471 181.044 164.775 172.314C162.08 163.584 165.116 165.51 165.679 164.868C166.13 163.975 166.396 163.006 166.464 162.015C165.738 162.27 164.948 162.304 164.201 162.112C163.454 161.921 162.786 161.514 162.287 160.945C160.273 158.92 158.925 157.308 157.251 156.808C155.577 156.309 156.155 154.954 154.392 155.282C153.398 155.376 152.395 155.299 151.43 155.054C151.785 153.57 152.378 152.101 153.029 150.66ZM212.279 120.447C212.442 120.579 212.596 120.722 212.738 120.875C212.751 121.361 212.841 121.842 213.004 122.302C213.301 123.072 214.145 124.199 214.856 125.582C215.567 126.966 213.641 127.679 211.894 127.836C210.146 127.993 211.894 125.611 212.19 125.126C212.486 124.641 212.012 123.514 211.894 123.115C211.775 122.715 210.634 122.145 210.412 121.417C210.401 121.182 210.441 120.948 210.531 120.729C210.62 120.51 210.756 120.312 210.931 120.148L212.279 120.447ZM253.472 154.54L252.45 155.239C248.524 158.092 246.91 157.507 246.91 157.507C246.91 154.112 241.577 147.793 239.341 146.666C237.104 145.539 243.429 154.868 245.621 157.664C247.813 160.46 249.428 159.176 251.546 158.691C253.664 158.206 250.065 163.228 247.68 165.538C245.295 167.849 242.407 167.864 243.873 173.256C245.34 178.648 242.866 179.233 240.911 180.388C238.956 181.544 239.904 184.482 238.393 185.124C236.882 185.766 239.681 188.319 234.201 191.001C228.72 193.683 227.535 191.814 227.076 189.717C226.617 187.621 224.114 187.292 224.454 184.482C224.795 181.672 222.544 178.876 223.551 177.578C224.558 176.28 223.551 171.43 221.759 169.49C219.966 167.55 221.759 165.61 221.536 164.64C221.314 163.67 219.863 164.64 219.078 163.584C218.292 162.529 223.106 160.546 215.152 162.7C207.198 164.854 207.198 162.7 204.398 160.218C201.599 157.736 202.725 157.365 202.503 152.671C202.28 147.978 206.309 147.165 207.983 144.655C209.657 142.144 211.464 140.917 217.952 139.947C224.44 138.977 222.099 141.559 222.099 142.515C222.099 143.471 228.365 145.011 228.365 144.583C228.365 144.155 227.58 142.315 229.046 142.529C229.831 142.743 237.445 143.956 237.445 143.956C239.933 143.613 239.681 140.618 239.43 140.161C239.178 139.705 238.482 139.562 236.289 140.161C234.097 140.76 232.823 138.735 232.705 137.308C232.586 135.882 236.438 135.582 237.519 135.368C238.566 135.337 239.598 135.611 240.481 136.153C240.691 136.231 240.918 136.257 241.141 136.227C241.364 136.197 241.576 136.112 241.755 135.982C246.97 141.307 250.962 147.631 253.472 154.54ZM207.894 125.697C208.395 124.835 209.002 124.036 209.701 123.314C211.42 122.872 210.62 125.183 210.116 125.697C209.612 126.21 207.894 126.139 207.894 125.697ZM237.356 132.829C236.719 132.829 236.26 132.044 235.875 131.403C235.49 130.761 234.705 132.273 234.468 132.729C234.158 133.446 234.026 134.223 234.082 134.997C234.171 135.796 233.579 136.067 233.134 136.338C232.69 136.609 232.631 136.238 232.231 136.024C231.831 135.81 230.883 136.153 230.468 136.994C230.053 137.836 230.616 139.733 230.468 139.762C229.798 139.604 229.206 139.225 228.794 138.692C228.093 137.655 227.591 136.505 227.313 135.297C226.658 134.154 225.611 133.266 224.351 132.786C223.21 132.401 224.217 134.027 224.351 134.327C224.484 134.626 226.054 135.668 226.143 136.395C226.232 137.123 224.662 139.69 225.047 138.763C225.432 137.836 224.262 137.422 223.936 136.723C223.61 136.024 222.307 135.297 221.196 134.084C220.085 132.872 219.626 134.084 218.885 133.699C218.144 133.314 217.552 134.127 216.87 133.97C216.189 133.813 216.426 134.726 216.367 135.582C216.308 136.438 215.982 136.024 214.886 137.009C213.79 137.993 213.997 138.792 213.404 139.163C212.255 139.709 210.983 139.973 209.701 139.933C207.865 139.933 207.968 139.12 208.028 138.207C208.115 137.064 208.422 135.947 208.931 134.912C209.479 133.785 212.456 134.313 213.064 134.156C213.671 133.999 213.301 133.072 213.301 131.973C213.301 130.875 211.819 130.304 211.301 129.919C210.783 129.534 211.894 129.491 213.241 129.163C213.759 129.079 214.251 128.89 214.686 128.607C215.12 128.323 215.486 127.954 215.76 127.522C216.512 126.538 217.427 125.68 218.47 124.983C219.226 124.47 219.951 124.284 220.485 123.913C221.018 123.543 222.099 124.555 222.099 124.555L224.558 124.17C229.43 126.301 233.951 129.108 237.978 132.501C237.8 132.629 237.667 132.829 237.356 132.829ZM184.387 122.615C184.815 123.013 185.139 123.501 185.335 124.042C185.676 125.24 184.491 127.095 185.587 127.665C186.683 128.236 187.779 130.09 186.935 130.09C186.09 130.09 182.654 129.691 182.98 129.277C183.554 128.612 184 127.854 184.298 127.037C184.298 126.51 184.194 126.724 183.009 127.037C181.824 127.351 179.04 126.652 178.418 127.037C177.796 127.423 178.314 127.722 178.788 128.307C179.262 128.892 178.699 129.092 178.921 129.605C179.017 129.854 179.171 130.079 179.372 130.262C179.572 130.445 179.813 130.581 180.077 130.661C180.58 130.761 180.802 130.005 181.276 130.39C181.75 130.775 179.292 132.144 178.61 132.658C177.929 133.171 177.129 133.285 177.351 132.658C177.573 132.03 177.203 131.731 176.936 131.93C176.67 132.13 174.67 132.515 174.255 133.728C173.841 134.94 172.226 135.154 171.56 136.153C170.893 137.151 170.078 139.719 168.701 140.846C167.323 141.973 164.42 142.272 164.583 143.998C164.746 145.724 164.168 148.692 164.079 148.05C163.99 147.408 164.346 145.625 162.598 145.197C161.344 144.708 159.953 144.648 158.658 145.026C157.824 145.133 156.98 145.161 156.14 145.111C162.551 134.666 172.539 126.697 184.387 122.573V122.615Z" fill="#237CA1"/>
<path d="M70.8038 97.9175L76.431 99.5114L71.6248 112.9L65.9976 111.306L70.8038 97.9175Z" fill="#388E3C"/>
<path d="M107.374 108.271L129.883 114.634L125.09 128.035L102.568 121.66L107.374 108.271Z" fill="#388E3C"/>
<path d="M82.058 101.106L101.747 106.678L96.9403 120.067L77.2517 114.494L82.058 101.106Z" fill="#388E3C"/>
<path d="M101.376 196.037H101.495L123.938 133.557L63.0315 116.445L34.5909 151.765L19.9072 255.968L77.9536 265.098C77.7034 263.329 77.894 261.528 78.5097 259.844L101.376 196.037Z" fill="#388E3C"/>
<path d="M171.087 239.596L98.675 215.369L82.376 259.87C82.1207 260.459 81.9933 261.091 82.0016 261.728C82.0099 262.366 82.1537 262.995 82.4241 263.577C82.6946 264.158 83.086 264.681 83.5741 265.111C84.0623 265.542 84.6368 265.872 85.2624 266.08C86.6013 266.567 88.053 266.69 89.4596 266.437L164.004 269.574L171.087 239.596Z" fill="#388E3C"/>
<path d="M360.394 210.78L323.069 105.009L268.875 121.586L309.312 219.923C309.312 219.923 260.322 235.887 249.028 239.406C248.525 239.547 248.127 239.687 247.836 239.789C240.911 242.339 229.167 259.081 245.122 265.291C249.187 266.885 256.283 267.51 264.784 267.535C289.597 267.535 340.03 255.384 340.069 255.358C350.556 253.088 365.875 254.95 371.741 243.755C380.89 226.336 360.394 210.78 360.394 210.78ZM300.07 176.352L281.613 128.471L284.38 127.63L302.837 175.536L300.07 176.352ZM308.014 173.942L289.557 126.023L292.311 125.194L310.795 173.1L308.014 173.942ZM316.793 171.277L298.362 123.371L301.116 122.542L319.573 170.448L316.793 171.277ZM325.571 168.612L307.114 120.706L309.868 119.864L328.325 167.783L325.571 168.612ZM334.349 165.947L315.919 118.002L318.673 117.161L337.13 165.08L334.349 165.947Z" fill="#388E3C"/>
<path d="M285.846 8.73455L272.685 24.2272C271.083 20.6441 256.796 0.624807 254.148 0.165765L145.351 0C145.179 0.382535 154.328 3.88911 159.333 5.85279C165.931 8.6593 172.258 12.0217 178.241 15.9007C193.176 25.0943 208.694 47.4599 218.306 61.4861C215.155 62.5572 203.742 65.3115 203.742 65.3115L208.389 89.8957L224.741 90.291C224.741 90.291 242.841 89.1689 251.447 85.3946C252.77 84.8191 254.048 84.1544 255.274 83.4054C250.216 79.019 251.513 66.1786 254.93 61.8049C262.874 51.6805 276.247 56.4239 286.799 60.4533C288.056 60.079 289.251 59.5337 290.348 58.8339C296.28 55.1488 300.636 47.3578 302.9 41.6198C305.707 34.5047 310.275 23.3984 310.275 23.3984L285.846 8.73455Z" fill="#388E3C"/>
<path d="M180.147 22.9519C171.091 15.5053 140.426 2.62659 140.426 2.62659C130.628 9.84375 91.833 53.6313 91.833 53.6313C91.833 53.6313 119.334 74.5814 127.966 81.4798C134.587 86.7588 156.222 98.8214 156.222 98.8214C156.222 98.8214 158.803 92.127 159.095 91.1707C161.054 84.7951 188.82 46.6181 195.943 38.0876C190.966 32.7709 185.693 27.7182 180.147 22.9519Z" fill="#388E3C"/>
</svg>
