<svg width="74" height="97" viewBox="0 0 74 97" fill="none" xmlns="http://www.w3.org/2000/svg">
<path d="M37.0523 37.0433C38.233 37.0763 39.4073 36.8529 40.4994 36.3877C41.5916 35.9225 42.5775 35.2257 43.3934 34.3423C44.8283 32.8457 45.7186 30.8816 45.9131 28.7834C46.1076 26.6851 45.5945 24.5819 44.4607 22.8304C43.3269 21.079 41.6423 19.7872 39.6927 19.1742C37.7431 18.5612 35.6485 18.6648 33.7643 19.4674C31.8801 20.27 30.3223 21.7221 29.3552 23.5775C28.3881 25.4328 28.0713 27.5771 28.4584 29.6466C28.8456 31.7161 29.9129 33.5833 31.4792 34.9315C33.0456 36.2797 35.0146 37.0258 37.0523 37.0433Z" fill="#FFE066"/>
<path d="M49.113 75.1147L41.4041 87.8481C40.8809 88.6842 40.1622 89.37 39.3145 89.8422C38.4668 90.3143 37.5177 90.5575 36.555 90.5492C35.5618 90.5535 34.584 90.296 33.7138 89.8009C32.8436 89.3058 32.1097 88.5895 31.5815 87.7195L24.37 75.1147C10.1956 76.5296 0 80.6454 0 85.4044C0 90.1633 16.4124 96.4657 36.555 96.4657C56.6975 96.4657 73.1099 91.5781 73.1099 85.4044C73.1099 79.2306 63.163 76.6582 49.113 75.1147Z" fill="#FFE066"/>
<path d="M13.1796 45.6608L20.3911 58.137L35.9332 85.0185C36.0013 85.1246 36.0937 85.2117 36.2021 85.2719C36.3106 85.3321 36.4318 85.3636 36.5549 85.3636C36.678 85.3636 36.7992 85.3321 36.9077 85.2719C37.0162 85.2117 37.1085 85.1246 37.1766 85.0185L61.0492 45.6608C61.0492 45.5322 61.1736 45.4036 61.2979 45.1463C63.3012 41.8501 64.6527 38.1756 65.2745 34.3356C65.8962 30.4955 65.7758 26.5661 64.9202 22.7745C64.0645 18.9829 62.4907 15.4044 60.2896 12.246C58.0886 9.08758 55.304 6.41195 52.097 4.37385C47.6269 1.4778 42.4509 -0.0392332 37.1766 0.000771243C32.0735 -0.0270233 27.0569 1.36444 22.6518 4.02958C18.2468 6.69471 14.615 10.5355 12.1367 15.1502C9.65839 19.7649 8.42454 24.9837 8.56427 30.2607C8.70399 35.5378 10.2122 40.6789 12.931 45.1463L13.1796 45.6608ZM37.1766 12.8628C40.0177 12.8892 42.788 13.7831 45.1399 15.4323C47.4917 17.0816 49.3202 19.4126 50.396 22.1329C51.4718 24.8532 51.7469 27.8416 51.1868 30.7231C50.6268 33.6045 49.2565 36.2507 47.2479 38.3295C45.9364 39.717 44.3696 40.8188 42.6399 41.5699C40.9101 42.3209 39.0525 42.7061 37.1766 42.7026C33.3514 42.7026 29.6828 41.1307 26.978 38.3326C24.2731 35.5346 22.7535 31.7397 22.7535 27.7827C22.7535 23.8257 24.2731 20.0307 26.978 17.2327C29.6828 14.4347 33.3514 12.8628 37.1766 12.8628Z" fill="#FFE066"/>
</svg>
