<svg width="155" height="129" viewBox="0 0 155 129" fill="none" xmlns="http://www.w3.org/2000/svg">
<path d="M91.0144 114.087L83.3056 113.186C65.5254 111.386 49.3616 109.199 46.1289 100.582C44.1395 95.0509 47.1236 90.8064 49.486 87.3337C51.8484 83.861 52.9674 82.0603 51.5997 79.7451C50.232 77.43 48.1183 77.0441 45.5072 75.8865C40.6581 73.7 33.9439 70.6131 33.5709 62.6387H27.3541L0 128.749H110.908C109.292 124.505 104.691 116.53 91.0144 114.087Z" fill="#CCE6F4"/>
<path d="M130.429 69.5841L116.255 93.1216C115.992 93.5185 115.639 93.8432 115.228 94.0673C114.816 94.2914 114.358 94.4083 113.892 94.4078C113.427 94.4083 112.969 94.2914 112.557 94.0673C112.146 93.8432 111.793 93.5185 111.53 93.1216L93.9985 62.51H39.0417C39.4148 66.6258 42.5232 68.4265 47.7453 70.6131C52.9675 72.7996 54.5838 73.8286 56.3245 76.7868C59.5573 82.5747 56.3245 87.205 53.9621 90.6778C51.5998 94.1505 50.3564 95.9512 51.3511 98.5236C53.4648 104.569 73.9803 106.627 83.8029 107.527C87.16 107.913 90.0198 108.17 91.8848 108.556C110.411 111.771 115.384 123.862 116.503 128.749H154.924L130.429 69.5841Z" fill="#CCE6F4"/>
<path d="M114.514 37.0433C115.695 37.0763 116.869 36.8529 117.961 36.3877C119.053 35.9225 120.039 35.2257 120.855 34.3423C122.112 33.0471 122.968 31.395 123.315 29.5956C123.662 27.7962 123.485 25.9307 122.806 24.2357C122.126 22.5408 120.975 21.0928 119.499 20.0755C118.023 19.0583 116.288 18.5176 114.514 18.5221C112.723 18.4783 110.962 18.9992 109.464 20.0156C107.966 21.032 106.802 22.4958 106.127 24.2126C105.453 25.9294 105.299 27.8179 105.686 29.6272C106.074 31.4365 106.985 33.0811 108.297 34.3423C109.942 36.0581 112.178 37.0294 114.514 37.0433Z" fill="#CCE6F4"/>
<path d="M90.6414 45.6608L97.8529 58.137L113.395 85.0185C113.463 85.1246 113.555 85.2117 113.664 85.2719C113.772 85.3321 113.894 85.3636 114.017 85.3636C114.14 85.3636 114.261 85.3321 114.369 85.2719C114.478 85.2117 114.57 85.1246 114.638 85.0185L138.511 45.6608C138.511 45.5322 138.635 45.4036 138.76 45.1463C140.763 41.8501 142.115 38.1756 142.736 34.3356C143.358 30.4955 143.238 26.5661 142.382 22.7745C141.526 18.9829 139.952 15.4044 137.751 12.246C135.55 9.08758 132.766 6.41195 129.559 4.37385C125.089 1.4778 119.913 -0.0392332 114.638 0.000771243C109.535 -0.0270233 104.519 1.36444 100.114 4.02958C95.7086 6.69471 92.0768 10.5355 89.5985 15.1502C87.1202 19.7649 85.8863 24.9837 86.0261 30.2607C86.1658 35.5378 87.6739 40.6789 90.3927 45.1463L90.6414 45.6608ZM114.638 12.8628C117.48 12.8892 120.25 13.7831 122.602 15.4323C124.953 17.0816 126.782 19.4126 127.858 22.1329C128.934 24.8532 129.209 27.8416 128.649 30.7231C128.089 33.6045 126.718 36.2507 124.71 38.3295C123.394 39.7112 121.826 40.8092 120.098 41.5598C118.369 42.3105 116.513 42.6989 114.638 42.7026C110.813 42.7026 107.145 41.1307 104.44 38.3326C101.735 35.5346 100.215 31.7397 100.215 27.7827C100.215 23.8257 101.735 20.0307 104.44 17.2327C107.145 14.4347 110.813 12.8628 114.638 12.8628Z" fill="#CCE6F4"/>
</svg>
