<svg width="65" height="63" viewBox="0 0 65 63" fill="none" xmlns="http://www.w3.org/2000/svg">
<path d="M32.9224 62.6434C50.6384 62.6434 65 48.6237 65 31.3295C65 14.0353 50.6384 0.015625 32.9224 0.015625C15.2065 0.015625 0.844849 14.0353 0.844849 31.3295C0.844849 48.6237 15.2065 62.6434 32.9224 62.6434Z" fill="#CCE6F4"/>
<path d="M30.9698 29.9134L18.3619 22.2892C18.1017 22.1361 17.8049 22.0526 17.5012 22.047C17.1975 22.0415 16.8977 22.1142 16.6319 22.2577C16.3661 22.4013 16.1437 22.6106 15.9871 22.8647C15.8305 23.1188 15.7452 23.4086 15.7399 23.7051V38.9536C15.7452 39.25 15.8305 39.5399 15.9871 39.794C16.1437 40.0481 16.3661 40.2574 16.6319 40.4009C16.8977 40.5445 17.1975 40.6171 17.5012 40.6116C17.8049 40.6061 18.1017 40.5226 18.3619 40.3695L30.9698 32.7453C31.2116 32.592 31.4102 32.3822 31.5478 32.1349C31.6854 31.8876 31.7574 31.6107 31.7574 31.3293C31.7574 31.0479 31.6854 30.771 31.5478 30.5237C31.4102 30.2764 31.2116 30.0666 30.9698 29.9134Z" fill="white"/>
<path d="M51.4998 29.9136L38.8919 22.2893C38.6362 22.1319 38.3416 22.045 38.0394 22.0378C37.7372 22.0307 37.4386 22.1036 37.1754 22.2488C36.9122 22.394 36.6943 22.6061 36.5446 22.8626C36.395 23.119 36.3194 23.4102 36.3257 23.7053V38.9537C36.3194 39.2488 36.395 39.54 36.5446 39.7964C36.6943 40.0529 36.9122 40.265 37.1754 40.4102C37.4386 40.5554 37.7372 40.6283 38.0394 40.6212C38.3416 40.614 38.6362 40.5271 38.8919 40.3697L51.4998 32.7454C51.7547 32.6022 51.9665 32.3959 52.1137 32.1473C52.261 31.8987 52.3385 31.6166 52.3385 31.3295C52.3385 31.0424 52.261 30.7603 52.1137 30.5117C51.9665 30.2631 51.7547 30.0568 51.4998 29.9136Z" fill="white"/>
</svg>
