<svg width="85" height="83" viewBox="0 0 85 83" fill="none" xmlns="http://www.w3.org/2000/svg">
<path d="M42.6673 82.2701C65.9396 82.2701 84.8056 63.8533 84.8056 41.1351C84.8056 18.4168 65.9396 0 42.6673 0C19.3949 0 0.528931 18.4168 0.528931 41.1351C0.528931 63.8533 19.3949 82.2701 42.6673 82.2701Z" fill="#CCE6F4"/>
<path d="M62.6006 37.9873L34.3862 20.8179C33.8054 20.4733 33.1407 20.2867 32.4611 20.2773C31.7815 20.268 31.1117 20.4362 30.5212 20.7646C29.9306 21.093 29.4407 21.5696 29.1024 22.145C28.764 22.7204 28.5894 23.3737 28.5968 24.0371V58.2329C28.5894 58.8964 28.764 59.5497 29.1024 60.1251C29.4407 60.7005 29.9306 61.1771 30.5212 61.5055C31.1117 61.8339 31.7815 62.0021 32.4611 61.9927C33.1407 61.9834 33.8054 61.7967 34.3862 61.4522L62.6006 44.2828C63.163 43.961 63.6294 43.5012 63.9536 42.949C64.2777 42.3968 64.4482 41.7714 64.4482 41.135C64.4482 40.4986 64.2777 39.8733 63.9536 39.3211C63.6294 38.7689 63.163 38.3091 62.6006 37.9873Z" fill="white"/>
</svg>
