<svg width="65" height="63" viewBox="0 0 65 63" fill="none" xmlns="http://www.w3.org/2000/svg">
<path d="M32.0776 62.6434C49.7936 62.6434 64.1552 48.6237 64.1552 31.3295C64.1552 14.0353 49.7936 0.015625 32.0776 0.015625C14.3616 0.015625 0 14.0353 0 31.3295C0 48.6237 14.3616 62.6434 32.0776 62.6434Z" fill="#CCE6F4"/>
<path d="M46.6381 22.2892L34.0302 29.9134C33.7884 30.0666 33.5897 30.2764 33.4522 30.5237C33.3146 30.771 33.2426 31.0479 33.2426 31.3293C33.2426 31.6107 33.3146 31.8876 33.4522 32.1349C33.5897 32.3822 33.7884 32.592 34.0302 32.7453L46.6381 40.3695C46.8982 40.5226 47.1951 40.6061 47.4988 40.6116C47.8025 40.6171 48.1023 40.5445 48.3681 40.4009C48.6339 40.2574 48.8563 40.0481 49.0128 39.794C49.1694 39.5399 49.2547 39.25 49.2601 38.9536V23.7051C49.2547 23.4086 49.1694 23.1188 49.0128 22.8647C48.8563 22.6106 48.6339 22.4013 48.3681 22.2577C48.1023 22.1142 47.8025 22.0415 47.4988 22.047C47.1951 22.0526 46.8982 22.1361 46.6381 22.2892Z" fill="white"/>
<path d="M26.1084 22.2893L13.5005 29.9136C13.2456 30.0568 13.0339 30.2631 12.8866 30.5117C12.7394 30.7603 12.6619 31.0424 12.6619 31.3295C12.6619 31.6166 12.7394 31.8987 12.8866 32.1473C13.0339 32.3959 13.2456 32.6022 13.5005 32.7454L26.1084 40.3697C26.3641 40.5271 26.6587 40.614 26.961 40.6212C27.2632 40.6283 27.5617 40.5554 27.8249 40.4102C28.0881 40.265 28.3061 40.0529 28.4557 39.7964C28.6053 39.54 28.681 39.2488 28.6747 38.9537V23.7053C28.681 23.4102 28.6053 23.119 28.4557 22.8626C28.3061 22.6061 28.0881 22.394 27.8249 22.2488C27.5617 22.1036 27.2632 22.0307 26.961 22.0378C26.6587 22.045 26.3641 22.1319 26.1084 22.2893Z" fill="white"/>
</svg>
