<svg width="44" height="33" viewBox="0 0 44 33" fill="none" xmlns="http://www.w3.org/2000/svg">
<path d="M22.6781 14.3203C21.2853 14.3203 19.9237 14.7123 18.7657 15.4466C17.6076 16.1809 16.705 17.2246 16.172 18.4458C15.639 19.6669 15.4995 21.0106 15.7712 22.307C16.043 23.6033 16.7137 24.7941 17.6985 25.7287C18.6834 26.6633 19.9382 27.2998 21.3042 27.5577C22.6702 27.8155 24.0862 27.6832 25.373 27.1774C26.6597 26.6715 27.7596 25.815 28.5334 24.716C29.3072 23.617 29.7202 22.3249 29.7202 21.0032C29.7178 19.2315 28.975 17.533 27.6549 16.2802C26.3348 15.0275 24.545 14.3226 22.6781 14.3203Z" fill="#77BD43"/>
<path d="M22.6781 14.3203C21.2853 14.3203 19.9237 14.7123 18.7657 15.4466C17.6076 16.1809 16.705 17.2246 16.172 18.4458C15.639 19.6669 15.4995 21.0106 15.7712 22.307C16.043 23.6033 16.7137 24.7941 17.6985 25.7287C18.6834 26.6633 19.9382 27.2998 21.3042 27.5577C22.6702 27.8155 24.0862 27.6832 25.373 27.1774C26.6597 26.6715 27.7596 25.815 28.5334 24.716C29.3072 23.617 29.7202 22.3249 29.7202 21.0032C29.7178 19.2315 28.975 17.533 27.6549 16.2802C26.3348 15.0275 24.545 14.3226 22.6781 14.3203ZM16.5376 18.4432C16.546 18.468 16.5497 18.494 16.5486 18.52C16.5486 18.6632 16.5965 18.7331 16.7842 18.7523C16.9719 18.7715 17.0344 18.5305 17.1522 18.52C17.27 18.5096 17.4135 18.52 17.3509 18.6143C17.2884 18.7086 17.0639 18.9898 17.2 19.0247C17.3362 19.0596 17.5681 18.9112 17.638 19.0893C17.7079 19.2674 17.6012 19.4211 17.6748 19.4665C17.7484 19.5119 17.8109 19.6533 17.8698 19.6743C17.9287 19.6953 18.0005 19.5748 18.0428 19.6149C18.0851 19.6551 18.1679 19.697 18.1937 19.6883C18.2367 19.662 18.2768 19.6315 18.3133 19.5975C18.3133 19.5975 18.6059 19.3477 18.7586 19.4001C18.9353 19.4622 19.1222 19.4941 19.3106 19.4944C19.5885 19.5049 19.6308 19.5713 19.8112 19.7302C19.9915 19.8891 19.8112 19.8751 20.1792 19.9153C20.5472 19.9554 20.3466 20.4042 20.7312 20.4391C21.0008 20.4657 21.2642 20.5329 21.5114 20.6382C21.7341 20.7168 22.1095 20.8355 22.0635 21.0591C22.0175 21.2826 21.6954 21.5218 21.6954 21.6807C21.6954 21.8396 21.7359 22.3268 21.5685 22.4194C21.401 22.5119 20.9999 22.6307 20.9576 22.7896C20.9152 22.9485 20.8876 23.3798 20.665 23.5405C20.4919 23.6724 20.3362 23.8237 20.2013 23.991C20.1369 24.0696 19.9142 24.0574 19.802 24.2145C19.6897 24.3717 19.4542 24.8502 19.5241 24.913C19.594 24.9759 19.8167 24.9794 19.6639 25.1243C19.5112 25.2693 19.5664 25.4945 19.594 25.6482C19.6216 25.8019 20.0522 25.7669 19.962 25.9119C19.8719 26.0568 19.1966 26.4008 19.042 25.3705C18.8874 24.3403 18.8745 24.0644 18.915 23.6016C18.9555 23.1388 19.0549 22.1627 18.9445 22.0841C18.8341 22.0055 18.3317 22.1627 17.9968 21.094C17.6619 20.0253 18.0391 20.261 18.109 20.1825C18.165 20.0731 18.1981 19.9545 18.2066 19.8332C18.1164 19.8644 18.0182 19.8685 17.9254 19.8451C17.8326 19.8217 17.7496 19.7718 17.6877 19.7022C17.4374 19.4543 17.27 19.2569 17.062 19.1958C16.8541 19.1347 16.9259 18.9688 16.7069 19.009C16.5834 19.0205 16.4588 19.0111 16.3389 18.981C16.383 18.7994 16.4566 18.6196 16.5376 18.4432ZM23.8981 14.7446C23.9184 14.7608 23.9374 14.7783 23.9551 14.797C23.9567 14.8565 23.9679 14.9154 23.9882 14.9717C24.025 15.066 24.1299 15.2039 24.2182 15.3733C24.3066 15.5427 24.0673 15.63 23.8502 15.6492C23.6331 15.6684 23.8502 15.3768 23.887 15.3174C23.9238 15.258 23.8649 15.1201 23.8502 15.0712C23.8355 15.0223 23.6938 14.9525 23.6662 14.8634C23.6648 14.8346 23.6698 14.8059 23.6809 14.7792C23.692 14.7524 23.7089 14.7281 23.7306 14.708L23.8981 14.7446ZM29.0154 18.9182L28.8885 19.0037C28.4008 19.353 28.2003 19.2814 28.2003 19.2814C28.2003 18.8658 27.5378 18.0922 27.26 17.9542C26.9821 17.8163 27.7678 18.9583 28.0402 19.3006C28.3125 19.6429 28.5131 19.4857 28.7762 19.4263C29.0393 19.367 28.5922 19.9816 28.2959 20.2645C27.9997 20.5474 27.6409 20.5492 27.823 21.2092C28.0052 21.8693 27.6979 21.9409 27.455 22.0824C27.2121 22.2238 27.3299 22.5835 27.1422 22.6621C26.9545 22.7407 27.3023 23.0533 26.6214 23.3816C25.9406 23.7099 25.7934 23.4811 25.7363 23.2244C25.6793 22.9677 25.3683 22.9275 25.4106 22.5835C25.453 22.2395 25.1733 21.8973 25.2984 21.7384C25.4235 21.5794 25.2984 20.9857 25.0757 20.7482C24.8531 20.5107 25.0757 20.2733 25.0481 20.1545C25.0205 20.0358 24.8402 20.1545 24.7427 20.0253C24.6451 19.8961 25.2432 19.6533 24.255 19.917C23.2669 20.1807 23.2669 19.917 22.9191 19.6132C22.5713 19.3093 22.7112 19.2639 22.6836 18.6894C22.656 18.1149 23.1565 18.0154 23.3644 17.708C23.5724 17.4007 23.7969 17.2505 24.6028 17.1318C25.4088 17.013 25.1181 17.3291 25.1181 17.4461C25.1181 17.5631 25.8964 17.7517 25.8964 17.6993C25.8964 17.6469 25.7989 17.4216 25.9811 17.4478C26.0786 17.474 27.0244 17.6225 27.0244 17.6225C27.3336 17.5806 27.3023 17.2138 27.271 17.158C27.2397 17.1021 27.1532 17.0846 26.8809 17.158C26.6086 17.2313 26.4503 16.9833 26.4356 16.8087C26.4209 16.6341 26.8993 16.5974 27.0336 16.5712C27.1637 16.5674 27.2919 16.6009 27.4016 16.6673C27.4277 16.6769 27.4559 16.68 27.4836 16.6763C27.5113 16.6727 27.5376 16.6623 27.5599 16.6463C28.2077 17.2983 28.7036 18.0723 29.0154 18.9182ZM23.3534 15.3873C23.4156 15.2819 23.491 15.1839 23.5779 15.0956C23.7913 15.0415 23.692 15.3244 23.6294 15.3873C23.5668 15.4501 23.3534 15.4414 23.3534 15.3873ZM27.0134 16.2604C26.9343 16.2604 26.8772 16.1643 26.8294 16.0858C26.7815 16.0072 26.684 16.1923 26.6546 16.2482C26.6161 16.3359 26.5998 16.431 26.6067 16.5258C26.6178 16.6236 26.5441 16.6568 26.4889 16.69C26.4337 16.7231 26.4264 16.6777 26.3767 16.6515C26.327 16.6254 26.2092 16.6673 26.1577 16.7703C26.1062 16.8733 26.1761 17.1056 26.1577 17.1091C26.0745 17.0897 26.0009 17.0434 25.9498 16.9781C25.8626 16.8512 25.8003 16.7104 25.7658 16.5625C25.6844 16.4226 25.5543 16.3139 25.3978 16.2552C25.2561 16.208 25.3812 16.4071 25.3978 16.4437C25.4143 16.4804 25.6094 16.6079 25.6204 16.697C25.6315 16.786 25.4364 17.1003 25.4842 16.9868C25.5321 16.8733 25.3867 16.8227 25.3462 16.7371C25.3057 16.6515 25.1438 16.5625 25.0058 16.4141C24.8678 16.2656 24.8108 16.4141 24.7188 16.3669C24.6267 16.3198 24.5531 16.4193 24.4685 16.4001C24.3838 16.3809 24.4133 16.4926 24.4059 16.5974C24.3986 16.7022 24.3581 16.6515 24.2219 16.772C24.0858 16.8925 24.1115 16.9903 24.0379 17.0357C23.8951 17.1026 23.7371 17.135 23.5779 17.13C23.3497 17.13 23.3626 17.0305 23.3699 16.9187C23.3809 16.7788 23.4189 16.6421 23.4822 16.5153C23.5503 16.3774 23.9201 16.442 23.9956 16.4228C24.071 16.4036 24.025 16.2901 24.025 16.1556C24.025 16.0212 23.841 15.9513 23.7766 15.9042C23.7122 15.857 23.8502 15.8518 24.0177 15.8116C24.0819 15.8014 24.1431 15.7781 24.1971 15.7435C24.2511 15.7088 24.2966 15.6636 24.3305 15.6108C24.4239 15.4903 24.5377 15.3852 24.6672 15.3C24.7611 15.2371 24.8512 15.2144 24.9175 15.169C24.9837 15.1236 25.1181 15.2476 25.1181 15.2476L25.4235 15.2004C26.0287 15.4613 26.5904 15.8049 27.0907 16.2202C27.0686 16.2359 27.052 16.2604 27.0134 16.2604ZM20.4331 15.0101C20.4863 15.0587 20.5266 15.1185 20.5509 15.1847C20.5932 15.3314 20.446 15.5584 20.5822 15.6282C20.7183 15.6981 20.8545 15.9251 20.7496 15.9251C20.6447 15.9251 20.2178 15.8762 20.2583 15.8256C20.3296 15.7442 20.3851 15.6513 20.4221 15.5514C20.4221 15.4868 20.4092 15.513 20.262 15.5514C20.1148 15.5898 19.7688 15.5043 19.6915 15.5514C19.6143 15.5986 19.6787 15.6352 19.7376 15.7068C19.7964 15.7784 19.7265 15.8029 19.7541 15.8657C19.766 15.8963 19.7852 15.9238 19.8101 15.9462C19.8349 15.9686 19.8649 15.9853 19.8976 15.995C19.9602 16.0072 19.9878 15.9146 20.0467 15.9618C20.1056 16.0089 19.8001 16.1766 19.7155 16.2394C19.6308 16.3023 19.5315 16.3163 19.5591 16.2394C19.5867 16.1626 19.5407 16.1259 19.5075 16.1504C19.4744 16.1748 19.226 16.222 19.1745 16.3704C19.123 16.5188 18.9224 16.545 18.8396 16.6673C18.7568 16.7895 18.6556 17.1038 18.4844 17.2418C18.3133 17.3797 17.9526 17.4164 17.9729 17.6277C17.9931 17.839 17.9214 18.2022 17.9103 18.1236C17.8993 18.0451 17.9434 17.8268 17.7263 17.7744C17.5705 17.7146 17.3977 17.7072 17.2368 17.7534C17.1332 17.7666 17.0284 17.7701 16.924 17.7639C17.7205 16.4853 18.9612 15.5098 20.4331 15.0048V15.0101Z" fill="#134459"/>
<path d="M6.32282 11.9866L7.02188 12.1817L6.4248 13.8207L5.72574 13.6256L6.32282 11.9866Z" fill="#CCE6F4"/>
<path d="M10.8659 13.2542L13.6621 14.0331L13.0667 15.6736L10.2688 14.8931L10.8659 13.2542Z" fill="#CCE6F4"/>
<path d="M7.72092 12.377L10.1668 13.0591L9.56974 14.6981L7.12384 14.0159L7.72092 12.377Z" fill="#CCE6F4"/>
<path d="M10.1208 23.998H10.1356L12.9236 16.3494L5.35728 14.2546L1.82414 18.5784L0 31.3344L7.21103 32.4521C7.17995 32.2355 7.20363 32.0151 7.28011 31.809L10.1208 23.998Z" fill="#CCE6F4"/>
<path d="M18.7809 29.3303L9.7852 26.3645L7.76039 31.8122C7.72868 31.8842 7.71285 31.9616 7.71388 32.0396C7.71491 32.1177 7.73278 32.1947 7.76638 32.2659C7.79998 32.3371 7.84859 32.4011 7.90924 32.4538C7.96988 32.5065 8.04126 32.5468 8.11897 32.5724C8.28529 32.6319 8.46564 32.647 8.64039 32.6161L17.9009 33.0001L18.7809 29.3303Z" fill="#CCE6F4"/>
<path d="M42.2982 25.8027L37.6614 12.8547L30.929 14.884L35.9524 26.9219C35.9524 26.9219 29.8664 28.8762 28.4633 29.307C28.4008 29.3242 28.3515 29.3414 28.3153 29.3539C27.4551 29.6661 25.9961 31.7156 27.9781 32.4757C28.4831 32.6709 29.3647 32.7474 30.4207 32.7505C33.5032 32.7505 39.7684 31.2629 39.7733 31.2598C41.0761 30.9819 42.9792 31.2098 43.7078 29.8393C44.8444 27.7071 42.2982 25.8027 42.2982 25.8027ZM34.8042 21.5882L32.5113 15.7269L32.8551 15.6238L35.148 21.4883L34.8042 21.5882ZM35.7912 21.2932L33.4982 15.4272L33.8404 15.3257L36.1366 21.1902L35.7912 21.2932ZM36.8817 20.9669L34.5921 15.1025L34.9342 15.001L37.2271 20.8655L36.8817 20.9669ZM37.9722 20.6407L35.6793 14.7763L36.0214 14.6732L38.3144 20.5392L37.9722 20.6407ZM39.0628 20.3145L36.7731 14.4453L37.1153 14.3423L39.4082 20.2083L39.0628 20.3145Z" fill="#CCE6F4"/>
<path d="M33.0373 1.06924L31.4023 2.96579C31.2032 2.52716 29.4284 0.0764861 29.0995 0.0202922L15.5837 0C15.5623 0.0468282 16.6989 0.476087 17.3207 0.716471C18.1403 1.06003 18.9263 1.47164 19.6695 1.94649C21.5249 3.07193 23.4527 5.80982 24.6469 7.52685C24.2554 7.65797 22.8375 7.99513 22.8375 7.99513L23.4149 11.0046L25.4463 11.053C25.4463 11.053 27.6948 10.9157 28.7639 10.4536C28.9282 10.3832 29.0871 10.3018 29.2393 10.2101C28.611 9.67315 28.7722 8.10128 29.1965 7.56588C30.1834 6.32649 31.8447 6.90716 33.1557 7.40042C33.3118 7.3546 33.4603 7.28785 33.5965 7.20218C34.3334 6.75107 34.8746 5.79733 35.1558 5.09491C35.5045 4.2239 36.072 2.86432 36.072 2.86432L33.0373 1.06924Z" fill="#CCE6F4"/>
<path d="M19.9064 2.80967C18.7813 1.89808 14.9719 0.321533 14.9719 0.321533C13.7547 1.20502 8.93527 6.56529 8.93527 6.56529C8.93527 6.56529 12.3516 9.12992 13.4241 9.97438C14.2465 10.6206 16.9342 12.0973 16.9342 12.0973C16.9342 12.0973 17.2549 11.2778 17.2911 11.1607C17.5346 10.3802 20.9838 5.70677 21.8687 4.66251C21.2504 4.01166 20.5954 3.39314 19.9064 2.80967V2.80967Z" fill="#CCE6F4"/>
</svg>
