<svg width="98" height="98" viewBox="0 0 98 98" fill="none" xmlns="http://www.w3.org/2000/svg">
<g clip-path="url(#clip0)">
<path d="M98 49C98 58.6912 95.1262 68.1649 89.742 76.2229C84.3578 84.2809 76.7051 90.5614 67.7515 94.2701C58.7979 97.9787 48.9457 98.9491 39.4406 97.0584C29.9355 95.1678 21.2046 90.501 14.3518 83.6482C7.49902 76.7954 2.83222 68.0645 0.941543 58.5594C-0.949133 49.0543 0.0212313 39.202 3.72993 30.2485C7.43862 21.2949 13.7191 13.6421 21.7771 8.25795C29.8351 2.87376 39.3087 -4.36581e-05 49 -4.36581e-05C55.438 -0.011571 61.815 1.24798 67.7651 3.70638C73.7153 6.16478 79.1216 9.77365 83.674 14.326C88.2263 18.8784 91.8352 24.2847 94.2936 30.2348C96.752 36.185 98.0116 42.5619 98 49Z" fill="#CCE6F4"/>
<path d="M77.4374 37.0125C77.4374 37.0125 76.9125 32.9 75.1625 31.0625C74.4216 30.2644 73.5295 29.6214 72.5382 29.1708C71.5469 28.7202 70.4759 28.4709 69.3875 28.4375C61.25 27.825 49 27.825 49 27.825C49 27.825 36.8375 27.825 28.7 28.4375C26.4752 28.5012 24.3667 29.4453 22.8375 31.0625C21.175 32.9 20.5625 37.0125 20.5625 37.0125C20.1812 40.2656 19.9767 43.5371 19.95 46.8125V51.45C19.9767 54.7253 20.1812 57.9968 20.5625 61.25C20.5625 61.25 21.175 65.45 22.8375 67.2875C24.5 69.125 28 69.5625 29.3125 69.825C33.95 70.2625 49 70.4375 49 70.4375C49 70.4375 61.25 70.4375 69.3875 69.825C71.567 69.7524 73.6349 68.8438 75.1625 67.2875C76.9125 65.45 77.4374 61.25 77.4374 61.25C77.8187 57.9968 78.0232 54.7253 78.0499 51.45V46.8125C78.0232 43.5371 77.8187 40.2656 77.4374 37.0125ZM58.7125 48.5625L43.05 57.0499V39.9875L50.05 43.8375L58.7125 48.5625Z" fill="white"/>
</g>
<defs>
<clipPath id="clip0">
<rect width="98" height="98" fill="white"/>
</clipPath>
</defs>
</svg>
